<?xml version="1.0" encoding="utf-8" standalone="no"?>
<!DOCTYPE svg PUBLIC "-//W3C//DTD SVG 1.1//EN"
  "http://www.w3.org/Graphics/SVG/1.1/DTD/svg11.dtd">
<svg xmlns:xlink="http://www.w3.org/1999/xlink" width="1330.56pt" height="701.28pt" viewBox="0 0 1330.56 701.28" xmlns="http://www.w3.org/2000/svg" version="1.1">
 <metadata>
  <rdf:RDF xmlns:dc="http://purl.org/dc/elements/1.1/" xmlns:cc="http://creativecommons.org/ns#" xmlns:rdf="http://www.w3.org/1999/02/22-rdf-syntax-ns#">
   <cc:Work>
    <dc:type rdf:resource="http://purl.org/dc/dcmitype/StillImage"/>
    <dc:date>2022-10-17T20:08:40.002529</dc:date>
    <dc:format>image/svg+xml</dc:format>
    <dc:creator>
     <cc:Agent>
      <dc:title>Matplotlib v3.5.1, https://matplotlib.org/</dc:title>
     </cc:Agent>
    </dc:creator>
   </cc:Work>
  </rdf:RDF>
 </metadata>
 <defs>
  <style type="text/css">*{stroke-linejoin: round; stroke-linecap: butt}</style>
 </defs>
 <g id="figure_1">
  <g id="patch_1">
   <path d="M 0 701.28 
L 1330.56 701.28 
L 1330.56 0 
L 0 0 
z
" style="fill: #ffffff"/>
  </g>
  <g id="axes_1">
   <g id="patch_2">
    <path d="M 166.32 624.1392 
L 1197.504 624.1392 
L 1197.504 84.1536 
L 166.32 84.1536 
z
" style="fill: #ffffff"/>
   </g>
   <g id="matplotlib.axis_1">
    <g id="xtick_1">
     <g id="line2d_1">
      <defs>
       <path id="m9ba024b31c" d="M 0 0 
L 0 3.5 
" style="stroke: #000000; stroke-width: 0.8"/>
      </defs>
      <g>
       <use xlink:href="#m9ba024b31c" x="213.192" y="624.1392" style="stroke: #000000; stroke-width: 0.8"/>
      </g>
     </g>
     <g id="text_1">
      <!-- 0 -->
      <g transform="translate(210.01075 638.737638)scale(0.1 -0.1)">
       <defs>
        <path id="DejaVuSans-30" d="M 2034 4250 
Q 1547 4250 1301 3770 
Q 1056 3291 1056 2328 
Q 1056 1369 1301 889 
Q 1547 409 2034 409 
Q 2525 409 2770 889 
Q 3016 1369 3016 2328 
Q 3016 3291 2770 3770 
Q 2525 4250 2034 4250 
z
M 2034 4750 
Q 2819 4750 3233 4129 
Q 3647 3509 3647 2328 
Q 3647 1150 3233 529 
Q 2819 -91 2034 -91 
Q 1250 -91 836 529 
Q 422 1150 422 2328 
Q 422 3509 836 4129 
Q 1250 4750 2034 4750 
z
" transform="scale(0.015625)"/>
       </defs>
       <use xlink:href="#DejaVuSans-30"/>
      </g>
     </g>
    </g>
    <g id="xtick_2">
     <g id="line2d_2">
      <g>
       <use xlink:href="#m9ba024b31c" x="335.653177" y="624.1392" style="stroke: #000000; stroke-width: 0.8"/>
      </g>
     </g>
     <g id="text_2">
      <!-- 5 -->
      <g transform="translate(332.471927 638.737638)scale(0.1 -0.1)">
       <defs>
        <path id="DejaVuSans-35" d="M 691 4666 
L 3169 4666 
L 3169 4134 
L 1269 4134 
L 1269 2991 
Q 1406 3038 1543 3061 
Q 1681 3084 1819 3084 
Q 2600 3084 3056 2656 
Q 3513 2228 3513 1497 
Q 3513 744 3044 326 
Q 2575 -91 1722 -91 
Q 1428 -91 1123 -41 
Q 819 9 494 109 
L 494 744 
Q 775 591 1075 516 
Q 1375 441 1709 441 
Q 2250 441 2565 725 
Q 2881 1009 2881 1497 
Q 2881 1984 2565 2268 
Q 2250 2553 1709 2553 
Q 1456 2553 1204 2497 
Q 953 2441 691 2322 
L 691 4666 
z
" transform="scale(0.015625)"/>
       </defs>
       <use xlink:href="#DejaVuSans-35"/>
      </g>
     </g>
    </g>
    <g id="xtick_3">
     <g id="line2d_3">
      <g>
       <use xlink:href="#m9ba024b31c" x="458.114355" y="624.1392" style="stroke: #000000; stroke-width: 0.8"/>
      </g>
     </g>
     <g id="text_3">
      <!-- 10 -->
      <g transform="translate(451.751855 638.737638)scale(0.1 -0.1)">
       <defs>
        <path id="DejaVuSans-31" d="M 794 531 
L 1825 531 
L 1825 4091 
L 703 3866 
L 703 4441 
L 1819 4666 
L 2450 4666 
L 2450 531 
L 3481 531 
L 3481 0 
L 794 0 
L 794 531 
z
" transform="scale(0.015625)"/>
       </defs>
       <use xlink:href="#DejaVuSans-31"/>
       <use xlink:href="#DejaVuSans-30" x="63.623047"/>
      </g>
     </g>
    </g>
    <g id="xtick_4">
     <g id="line2d_4">
      <g>
       <use xlink:href="#m9ba024b31c" x="580.575532" y="624.1392" style="stroke: #000000; stroke-width: 0.8"/>
      </g>
     </g>
     <g id="text_4">
      <!-- 15 -->
      <g transform="translate(574.213032 638.737638)scale(0.1 -0.1)">
       <use xlink:href="#DejaVuSans-31"/>
       <use xlink:href="#DejaVuSans-35" x="63.623047"/>
      </g>
     </g>
    </g>
    <g id="xtick_5">
     <g id="line2d_5">
      <g>
       <use xlink:href="#m9ba024b31c" x="703.03671" y="624.1392" style="stroke: #000000; stroke-width: 0.8"/>
      </g>
     </g>
     <g id="text_5">
      <!-- 20 -->
      <g transform="translate(696.67421 638.737638)scale(0.1 -0.1)">
       <defs>
        <path id="DejaVuSans-32" d="M 1228 531 
L 3431 531 
L 3431 0 
L 469 0 
L 469 531 
Q 828 903 1448 1529 
Q 2069 2156 2228 2338 
Q 2531 2678 2651 2914 
Q 2772 3150 2772 3378 
Q 2772 3750 2511 3984 
Q 2250 4219 1831 4219 
Q 1534 4219 1204 4116 
Q 875 4013 500 3803 
L 500 4441 
Q 881 4594 1212 4672 
Q 1544 4750 1819 4750 
Q 2544 4750 2975 4387 
Q 3406 4025 3406 3419 
Q 3406 3131 3298 2873 
Q 3191 2616 2906 2266 
Q 2828 2175 2409 1742 
Q 1991 1309 1228 531 
z
" transform="scale(0.015625)"/>
       </defs>
       <use xlink:href="#DejaVuSans-32"/>
       <use xlink:href="#DejaVuSans-30" x="63.623047"/>
      </g>
     </g>
    </g>
    <g id="xtick_6">
     <g id="line2d_6">
      <g>
       <use xlink:href="#m9ba024b31c" x="825.497887" y="624.1392" style="stroke: #000000; stroke-width: 0.8"/>
      </g>
     </g>
     <g id="text_6">
      <!-- 25 -->
      <g transform="translate(819.135387 638.737638)scale(0.1 -0.1)">
       <use xlink:href="#DejaVuSans-32"/>
       <use xlink:href="#DejaVuSans-35" x="63.623047"/>
      </g>
     </g>
    </g>
    <g id="xtick_7">
     <g id="line2d_7">
      <g>
       <use xlink:href="#m9ba024b31c" x="947.959064" y="624.1392" style="stroke: #000000; stroke-width: 0.8"/>
      </g>
     </g>
     <g id="text_7">
      <!-- 30 -->
      <g transform="translate(941.596564 638.737638)scale(0.1 -0.1)">
       <defs>
        <path id="DejaVuSans-33" d="M 2597 2516 
Q 3050 2419 3304 2112 
Q 3559 1806 3559 1356 
Q 3559 666 3084 287 
Q 2609 -91 1734 -91 
Q 1441 -91 1130 -33 
Q 819 25 488 141 
L 488 750 
Q 750 597 1062 519 
Q 1375 441 1716 441 
Q 2309 441 2620 675 
Q 2931 909 2931 1356 
Q 2931 1769 2642 2001 
Q 2353 2234 1838 2234 
L 1294 2234 
L 1294 2753 
L 1863 2753 
Q 2328 2753 2575 2939 
Q 2822 3125 2822 3475 
Q 2822 3834 2567 4026 
Q 2313 4219 1838 4219 
Q 1578 4219 1281 4162 
Q 984 4106 628 3988 
L 628 4550 
Q 988 4650 1302 4700 
Q 1616 4750 1894 4750 
Q 2613 4750 3031 4423 
Q 3450 4097 3450 3541 
Q 3450 3153 3228 2886 
Q 3006 2619 2597 2516 
z
" transform="scale(0.015625)"/>
       </defs>
       <use xlink:href="#DejaVuSans-33"/>
       <use xlink:href="#DejaVuSans-30" x="63.623047"/>
      </g>
     </g>
    </g>
    <g id="xtick_8">
     <g id="line2d_8">
      <g>
       <use xlink:href="#m9ba024b31c" x="1070.420242" y="624.1392" style="stroke: #000000; stroke-width: 0.8"/>
      </g>
     </g>
     <g id="text_8">
      <!-- 35 -->
      <g transform="translate(1064.057742 638.737638)scale(0.1 -0.1)">
       <use xlink:href="#DejaVuSans-33"/>
       <use xlink:href="#DejaVuSans-35" x="63.623047"/>
      </g>
     </g>
    </g>
    <g id="xtick_9">
     <g id="line2d_9">
      <g>
       <use xlink:href="#m9ba024b31c" x="1192.881419" y="624.1392" style="stroke: #000000; stroke-width: 0.8"/>
      </g>
     </g>
     <g id="text_9">
      <!-- 40 -->
      <g transform="translate(1186.518919 638.737638)scale(0.1 -0.1)">
       <defs>
        <path id="DejaVuSans-34" d="M 2419 4116 
L 825 1625 
L 2419 1625 
L 2419 4116 
z
M 2253 4666 
L 3047 4666 
L 3047 1625 
L 3713 1625 
L 3713 1100 
L 3047 1100 
L 3047 0 
L 2419 0 
L 2419 1100 
L 313 1100 
L 313 1709 
L 2253 4666 
z
" transform="scale(0.015625)"/>
       </defs>
       <use xlink:href="#DejaVuSans-34"/>
       <use xlink:href="#DejaVuSans-30" x="63.623047"/>
      </g>
     </g>
    </g>
    <g id="text_10">
     <!-- Distance (km) -->
     <g transform="translate(646.79325 652.415763)scale(0.1 -0.1)">
      <defs>
       <path id="DejaVuSans-44" d="M 1259 4147 
L 1259 519 
L 2022 519 
Q 2988 519 3436 956 
Q 3884 1394 3884 2338 
Q 3884 3275 3436 3711 
Q 2988 4147 2022 4147 
L 1259 4147 
z
M 628 4666 
L 1925 4666 
Q 3281 4666 3915 4102 
Q 4550 3538 4550 2338 
Q 4550 1131 3912 565 
Q 3275 0 1925 0 
L 628 0 
L 628 4666 
z
" transform="scale(0.015625)"/>
       <path id="DejaVuSans-69" d="M 603 3500 
L 1178 3500 
L 1178 0 
L 603 0 
L 603 3500 
z
M 603 4863 
L 1178 4863 
L 1178 4134 
L 603 4134 
L 603 4863 
z
" transform="scale(0.015625)"/>
       <path id="DejaVuSans-73" d="M 2834 3397 
L 2834 2853 
Q 2591 2978 2328 3040 
Q 2066 3103 1784 3103 
Q 1356 3103 1142 2972 
Q 928 2841 928 2578 
Q 928 2378 1081 2264 
Q 1234 2150 1697 2047 
L 1894 2003 
Q 2506 1872 2764 1633 
Q 3022 1394 3022 966 
Q 3022 478 2636 193 
Q 2250 -91 1575 -91 
Q 1294 -91 989 -36 
Q 684 19 347 128 
L 347 722 
Q 666 556 975 473 
Q 1284 391 1588 391 
Q 1994 391 2212 530 
Q 2431 669 2431 922 
Q 2431 1156 2273 1281 
Q 2116 1406 1581 1522 
L 1381 1569 
Q 847 1681 609 1914 
Q 372 2147 372 2553 
Q 372 3047 722 3315 
Q 1072 3584 1716 3584 
Q 2034 3584 2315 3537 
Q 2597 3491 2834 3397 
z
" transform="scale(0.015625)"/>
       <path id="DejaVuSans-74" d="M 1172 4494 
L 1172 3500 
L 2356 3500 
L 2356 3053 
L 1172 3053 
L 1172 1153 
Q 1172 725 1289 603 
Q 1406 481 1766 481 
L 2356 481 
L 2356 0 
L 1766 0 
Q 1100 0 847 248 
Q 594 497 594 1153 
L 594 3053 
L 172 3053 
L 172 3500 
L 594 3500 
L 594 4494 
L 1172 4494 
z
" transform="scale(0.015625)"/>
       <path id="DejaVuSans-61" d="M 2194 1759 
Q 1497 1759 1228 1600 
Q 959 1441 959 1056 
Q 959 750 1161 570 
Q 1363 391 1709 391 
Q 2188 391 2477 730 
Q 2766 1069 2766 1631 
L 2766 1759 
L 2194 1759 
z
M 3341 1997 
L 3341 0 
L 2766 0 
L 2766 531 
Q 2569 213 2275 61 
Q 1981 -91 1556 -91 
Q 1019 -91 701 211 
Q 384 513 384 1019 
Q 384 1609 779 1909 
Q 1175 2209 1959 2209 
L 2766 2209 
L 2766 2266 
Q 2766 2663 2505 2880 
Q 2244 3097 1772 3097 
Q 1472 3097 1187 3025 
Q 903 2953 641 2809 
L 641 3341 
Q 956 3463 1253 3523 
Q 1550 3584 1831 3584 
Q 2591 3584 2966 3190 
Q 3341 2797 3341 1997 
z
" transform="scale(0.015625)"/>
       <path id="DejaVuSans-6e" d="M 3513 2113 
L 3513 0 
L 2938 0 
L 2938 2094 
Q 2938 2591 2744 2837 
Q 2550 3084 2163 3084 
Q 1697 3084 1428 2787 
Q 1159 2491 1159 1978 
L 1159 0 
L 581 0 
L 581 3500 
L 1159 3500 
L 1159 2956 
Q 1366 3272 1645 3428 
Q 1925 3584 2291 3584 
Q 2894 3584 3203 3211 
Q 3513 2838 3513 2113 
z
" transform="scale(0.015625)"/>
       <path id="DejaVuSans-63" d="M 3122 3366 
L 3122 2828 
Q 2878 2963 2633 3030 
Q 2388 3097 2138 3097 
Q 1578 3097 1268 2742 
Q 959 2388 959 1747 
Q 959 1106 1268 751 
Q 1578 397 2138 397 
Q 2388 397 2633 464 
Q 2878 531 3122 666 
L 3122 134 
Q 2881 22 2623 -34 
Q 2366 -91 2075 -91 
Q 1284 -91 818 406 
Q 353 903 353 1747 
Q 353 2603 823 3093 
Q 1294 3584 2113 3584 
Q 2378 3584 2631 3529 
Q 2884 3475 3122 3366 
z
" transform="scale(0.015625)"/>
       <path id="DejaVuSans-65" d="M 3597 1894 
L 3597 1613 
L 953 1613 
Q 991 1019 1311 708 
Q 1631 397 2203 397 
Q 2534 397 2845 478 
Q 3156 559 3463 722 
L 3463 178 
Q 3153 47 2828 -22 
Q 2503 -91 2169 -91 
Q 1331 -91 842 396 
Q 353 884 353 1716 
Q 353 2575 817 3079 
Q 1281 3584 2069 3584 
Q 2775 3584 3186 3129 
Q 3597 2675 3597 1894 
z
M 3022 2063 
Q 3016 2534 2758 2815 
Q 2500 3097 2075 3097 
Q 1594 3097 1305 2825 
Q 1016 2553 972 2059 
L 3022 2063 
z
" transform="scale(0.015625)"/>
       <path id="DejaVuSans-20" transform="scale(0.015625)"/>
       <path id="DejaVuSans-28" d="M 1984 4856 
Q 1566 4138 1362 3434 
Q 1159 2731 1159 2009 
Q 1159 1288 1364 580 
Q 1569 -128 1984 -844 
L 1484 -844 
Q 1016 -109 783 600 
Q 550 1309 550 2009 
Q 550 2706 781 3412 
Q 1013 4119 1484 4856 
L 1984 4856 
z
" transform="scale(0.015625)"/>
       <path id="DejaVuSans-6b" d="M 581 4863 
L 1159 4863 
L 1159 1991 
L 2875 3500 
L 3609 3500 
L 1753 1863 
L 3688 0 
L 2938 0 
L 1159 1709 
L 1159 0 
L 581 0 
L 581 4863 
z
" transform="scale(0.015625)"/>
       <path id="DejaVuSans-6d" d="M 3328 2828 
Q 3544 3216 3844 3400 
Q 4144 3584 4550 3584 
Q 5097 3584 5394 3201 
Q 5691 2819 5691 2113 
L 5691 0 
L 5113 0 
L 5113 2094 
Q 5113 2597 4934 2840 
Q 4756 3084 4391 3084 
Q 3944 3084 3684 2787 
Q 3425 2491 3425 1978 
L 3425 0 
L 2847 0 
L 2847 2094 
Q 2847 2600 2669 2842 
Q 2491 3084 2119 3084 
Q 1678 3084 1418 2786 
Q 1159 2488 1159 1978 
L 1159 0 
L 581 0 
L 581 3500 
L 1159 3500 
L 1159 2956 
Q 1356 3278 1631 3431 
Q 1906 3584 2284 3584 
Q 2666 3584 2933 3390 
Q 3200 3197 3328 2828 
z
" transform="scale(0.015625)"/>
       <path id="DejaVuSans-29" d="M 513 4856 
L 1013 4856 
Q 1481 4119 1714 3412 
Q 1947 2706 1947 2009 
Q 1947 1309 1714 600 
Q 1481 -109 1013 -844 
L 513 -844 
Q 928 -128 1133 580 
Q 1338 1288 1338 2009 
Q 1338 2731 1133 3434 
Q 928 4138 513 4856 
z
" transform="scale(0.015625)"/>
      </defs>
      <use xlink:href="#DejaVuSans-44"/>
      <use xlink:href="#DejaVuSans-69" x="77.001953"/>
      <use xlink:href="#DejaVuSans-73" x="104.785156"/>
      <use xlink:href="#DejaVuSans-74" x="156.884766"/>
      <use xlink:href="#DejaVuSans-61" x="196.09375"/>
      <use xlink:href="#DejaVuSans-6e" x="257.373047"/>
      <use xlink:href="#DejaVuSans-63" x="320.751953"/>
      <use xlink:href="#DejaVuSans-65" x="375.732422"/>
      <use xlink:href="#DejaVuSans-20" x="437.255859"/>
      <use xlink:href="#DejaVuSans-28" x="469.042969"/>
      <use xlink:href="#DejaVuSans-6b" x="508.056641"/>
      <use xlink:href="#DejaVuSans-6d" x="565.966797"/>
      <use xlink:href="#DejaVuSans-29" x="663.378906"/>
     </g>
    </g>
   </g>
   <g id="matplotlib.axis_2">
    <g id="ytick_1">
     <g id="line2d_10">
      <path d="M 166.32 624.1392 
L 1197.504 624.1392 
" clip-path="url(#p205a1bdfd5)" style="fill: none; stroke: #b0b0b0; stroke-width: 0.8; stroke-linecap: square"/>
     </g>
     <g id="line2d_11">
      <defs>
       <path id="maccdb295d9" d="M 0 0 
L -3.5 0 
" style="stroke: #000000; stroke-width: 0.8"/>
      </defs>
      <g>
       <use xlink:href="#maccdb295d9" x="166.32" y="624.1392" style="stroke: #000000; stroke-width: 0.8"/>
      </g>
     </g>
     <g id="text_11">
      <!-- 0 -->
      <g transform="translate(152.9575 627.938419)scale(0.1 -0.1)">
       <use xlink:href="#DejaVuSans-30"/>
      </g>
     </g>
    </g>
    <g id="ytick_2">
     <g id="line2d_12">
      <path d="M 166.32 516.14208 
L 1197.504 516.14208 
" clip-path="url(#p205a1bdfd5)" style="fill: none; stroke: #b0b0b0; stroke-width: 0.8; stroke-linecap: square"/>
     </g>
     <g id="line2d_13">
      <g>
       <use xlink:href="#maccdb295d9" x="166.32" y="516.14208" style="stroke: #000000; stroke-width: 0.8"/>
      </g>
     </g>
     <g id="text_12">
      <!-- 200 -->
      <g transform="translate(140.2325 519.941299)scale(0.1 -0.1)">
       <use xlink:href="#DejaVuSans-32"/>
       <use xlink:href="#DejaVuSans-30" x="63.623047"/>
       <use xlink:href="#DejaVuSans-30" x="127.246094"/>
      </g>
     </g>
    </g>
    <g id="ytick_3">
     <g id="line2d_14">
      <path d="M 166.32 408.14496 
L 1197.504 408.14496 
" clip-path="url(#p205a1bdfd5)" style="fill: none; stroke: #b0b0b0; stroke-width: 0.8; stroke-linecap: square"/>
     </g>
     <g id="line2d_15">
      <g>
       <use xlink:href="#maccdb295d9" x="166.32" y="408.14496" style="stroke: #000000; stroke-width: 0.8"/>
      </g>
     </g>
     <g id="text_13">
      <!-- 400 -->
      <g transform="translate(140.2325 411.944179)scale(0.1 -0.1)">
       <use xlink:href="#DejaVuSans-34"/>
       <use xlink:href="#DejaVuSans-30" x="63.623047"/>
       <use xlink:href="#DejaVuSans-30" x="127.246094"/>
      </g>
     </g>
    </g>
    <g id="ytick_4">
     <g id="line2d_16">
      <path d="M 166.32 300.14784 
L 1197.504 300.14784 
" clip-path="url(#p205a1bdfd5)" style="fill: none; stroke: #b0b0b0; stroke-width: 0.8; stroke-linecap: square"/>
     </g>
     <g id="line2d_17">
      <g>
       <use xlink:href="#maccdb295d9" x="166.32" y="300.14784" style="stroke: #000000; stroke-width: 0.8"/>
      </g>
     </g>
     <g id="text_14">
      <!-- 600 -->
      <g transform="translate(140.2325 303.947059)scale(0.1 -0.1)">
       <defs>
        <path id="DejaVuSans-36" d="M 2113 2584 
Q 1688 2584 1439 2293 
Q 1191 2003 1191 1497 
Q 1191 994 1439 701 
Q 1688 409 2113 409 
Q 2538 409 2786 701 
Q 3034 994 3034 1497 
Q 3034 2003 2786 2293 
Q 2538 2584 2113 2584 
z
M 3366 4563 
L 3366 3988 
Q 3128 4100 2886 4159 
Q 2644 4219 2406 4219 
Q 1781 4219 1451 3797 
Q 1122 3375 1075 2522 
Q 1259 2794 1537 2939 
Q 1816 3084 2150 3084 
Q 2853 3084 3261 2657 
Q 3669 2231 3669 1497 
Q 3669 778 3244 343 
Q 2819 -91 2113 -91 
Q 1303 -91 875 529 
Q 447 1150 447 2328 
Q 447 3434 972 4092 
Q 1497 4750 2381 4750 
Q 2619 4750 2861 4703 
Q 3103 4656 3366 4563 
z
" transform="scale(0.015625)"/>
       </defs>
       <use xlink:href="#DejaVuSans-36"/>
       <use xlink:href="#DejaVuSans-30" x="63.623047"/>
       <use xlink:href="#DejaVuSans-30" x="127.246094"/>
      </g>
     </g>
    </g>
    <g id="ytick_5">
     <g id="line2d_18">
      <path d="M 166.32 192.15072 
L 1197.504 192.15072 
" clip-path="url(#p205a1bdfd5)" style="fill: none; stroke: #b0b0b0; stroke-width: 0.8; stroke-linecap: square"/>
     </g>
     <g id="line2d_19">
      <g>
       <use xlink:href="#maccdb295d9" x="166.32" y="192.15072" style="stroke: #000000; stroke-width: 0.8"/>
      </g>
     </g>
     <g id="text_15">
      <!-- 800 -->
      <g transform="translate(140.2325 195.949939)scale(0.1 -0.1)">
       <defs>
        <path id="DejaVuSans-38" d="M 2034 2216 
Q 1584 2216 1326 1975 
Q 1069 1734 1069 1313 
Q 1069 891 1326 650 
Q 1584 409 2034 409 
Q 2484 409 2743 651 
Q 3003 894 3003 1313 
Q 3003 1734 2745 1975 
Q 2488 2216 2034 2216 
z
M 1403 2484 
Q 997 2584 770 2862 
Q 544 3141 544 3541 
Q 544 4100 942 4425 
Q 1341 4750 2034 4750 
Q 2731 4750 3128 4425 
Q 3525 4100 3525 3541 
Q 3525 3141 3298 2862 
Q 3072 2584 2669 2484 
Q 3125 2378 3379 2068 
Q 3634 1759 3634 1313 
Q 3634 634 3220 271 
Q 2806 -91 2034 -91 
Q 1263 -91 848 271 
Q 434 634 434 1313 
Q 434 1759 690 2068 
Q 947 2378 1403 2484 
z
M 1172 3481 
Q 1172 3119 1398 2916 
Q 1625 2713 2034 2713 
Q 2441 2713 2670 2916 
Q 2900 3119 2900 3481 
Q 2900 3844 2670 4047 
Q 2441 4250 2034 4250 
Q 1625 4250 1398 4047 
Q 1172 3844 1172 3481 
z
" transform="scale(0.015625)"/>
       </defs>
       <use xlink:href="#DejaVuSans-38"/>
       <use xlink:href="#DejaVuSans-30" x="63.623047"/>
       <use xlink:href="#DejaVuSans-30" x="127.246094"/>
      </g>
     </g>
    </g>
    <g id="ytick_6">
     <g id="line2d_20">
      <path d="M 166.32 84.1536 
L 1197.504 84.1536 
" clip-path="url(#p205a1bdfd5)" style="fill: none; stroke: #b0b0b0; stroke-width: 0.8; stroke-linecap: square"/>
     </g>
     <g id="line2d_21">
      <g>
       <use xlink:href="#maccdb295d9" x="166.32" y="84.1536" style="stroke: #000000; stroke-width: 0.8"/>
      </g>
     </g>
     <g id="text_16">
      <!-- 1000 -->
      <g transform="translate(133.87 87.952819)scale(0.1 -0.1)">
       <use xlink:href="#DejaVuSans-31"/>
       <use xlink:href="#DejaVuSans-30" x="63.623047"/>
       <use xlink:href="#DejaVuSans-30" x="127.246094"/>
       <use xlink:href="#DejaVuSans-30" x="190.869141"/>
      </g>
     </g>
    </g>
    <g id="text_17">
     <!-- Elevation (m) -->
     <g transform="translate(127.790312 387.733119)rotate(-90)scale(0.1 -0.1)">
      <defs>
       <path id="DejaVuSans-45" d="M 628 4666 
L 3578 4666 
L 3578 4134 
L 1259 4134 
L 1259 2753 
L 3481 2753 
L 3481 2222 
L 1259 2222 
L 1259 531 
L 3634 531 
L 3634 0 
L 628 0 
L 628 4666 
z
" transform="scale(0.015625)"/>
       <path id="DejaVuSans-6c" d="M 603 4863 
L 1178 4863 
L 1178 0 
L 603 0 
L 603 4863 
z
" transform="scale(0.015625)"/>
       <path id="DejaVuSans-76" d="M 191 3500 
L 800 3500 
L 1894 563 
L 2988 3500 
L 3597 3500 
L 2284 0 
L 1503 0 
L 191 3500 
z
" transform="scale(0.015625)"/>
       <path id="DejaVuSans-6f" d="M 1959 3097 
Q 1497 3097 1228 2736 
Q 959 2375 959 1747 
Q 959 1119 1226 758 
Q 1494 397 1959 397 
Q 2419 397 2687 759 
Q 2956 1122 2956 1747 
Q 2956 2369 2687 2733 
Q 2419 3097 1959 3097 
z
M 1959 3584 
Q 2709 3584 3137 3096 
Q 3566 2609 3566 1747 
Q 3566 888 3137 398 
Q 2709 -91 1959 -91 
Q 1206 -91 779 398 
Q 353 888 353 1747 
Q 353 2609 779 3096 
Q 1206 3584 1959 3584 
z
" transform="scale(0.015625)"/>
      </defs>
      <use xlink:href="#DejaVuSans-45"/>
      <use xlink:href="#DejaVuSans-6c" x="63.183594"/>
      <use xlink:href="#DejaVuSans-65" x="90.966797"/>
      <use xlink:href="#DejaVuSans-76" x="152.490234"/>
      <use xlink:href="#DejaVuSans-61" x="211.669922"/>
      <use xlink:href="#DejaVuSans-74" x="272.949219"/>
      <use xlink:href="#DejaVuSans-69" x="312.158203"/>
      <use xlink:href="#DejaVuSans-6f" x="339.941406"/>
      <use xlink:href="#DejaVuSans-6e" x="401.123047"/>
      <use xlink:href="#DejaVuSans-20" x="464.501953"/>
      <use xlink:href="#DejaVuSans-28" x="496.289062"/>
      <use xlink:href="#DejaVuSans-6d" x="535.302734"/>
      <use xlink:href="#DejaVuSans-29" x="632.714844"/>
     </g>
    </g>
   </g>
   <g id="line2d_22">
    <path d="M 213.192 531.261677 
L 214.081587 526.941792 
L 215.860756 526.941792 
L 216.750339 510.742224 
L 218.5295 510.742224 
L 219.419079 513.442152 
L 221.198233 513.442152 
L 222.087808 535.041576 
L 223.866954 535.041576 
L 224.756525 540.981418 
L 226.535662 540.981418 
L 227.425229 544.761317 
L 230.093922 544.761317 
L 230.983484 545.841288 
L 234.346952 545.841288 
L 235.178683 546.921259 
L 236.010411 546.921259 
L 236.829092 549.621187 
L 240.642264 549.621187 
L 241.404895 548.00123 
L 242.167525 548.00123 
L 242.930154 549.621187 
L 243.692781 549.621187 
L 244.455408 549.081202 
L 248.268523 549.081202 
L 249.031142 548.541216 
L 249.785976 549.081202 
L 255.70181 549.081202 
L 256.441287 547.461245 
L 259.399191 547.461245 
L 260.138666 549.081202 
L 260.87814 549.081202 
L 261.617614 547.461245 
L 262.357088 547.461245 
L 263.096561 546.381274 
L 263.836033 546.381274 
L 264.575506 544.761317 
L 266.078913 544.761317 
L 266.830998 545.301302 
L 267.583082 545.301302 
L 268.335164 544.761317 
L 269.087247 544.761317 
L 269.839328 544.221331 
L 270.591408 544.221331 
L 271.343487 542.061389 
L 275.855943 542.061389 
L 276.608016 543.14136 
L 278.112694 543.14136 
L 278.906836 539.901446 
L 282.083387 539.901446 
L 282.877521 539.361461 
L 283.671654 539.361461 
L 284.465785 539.901446 
L 286.848169 539.901446 
L 287.642295 538.28149 
L 288.436419 537.201518 
L 289.951057 537.201518 
L 290.703932 536.121547 
L 291.456805 536.121547 
L 292.209678 534.50159 
L 292.946019 534.50159 
L 293.683995 532.341648 
L 294.42197 532.341648 
L 295.159946 534.50159 
L 296.635899 534.50159 
L 297.373876 532.341648 
L 298.111854 532.341648 
L 298.849831 529.101734 
L 299.587809 529.101734 
L 300.325788 524.241864 
L 301.063767 524.241864 
L 301.801746 519.381994 
L 303.277705 519.381994 
L 304.015685 517.762037 
L 304.753665 517.762037 
L 305.491646 523.161893 
L 306.229627 523.161893 
L 306.967608 530.181706 
L 307.70559 530.181706 
L 308.443572 533.961605 
L 309.181555 533.961605 
L 309.919537 530.721691 
L 311.395504 530.721691 
L 312.133488 526.401806 
L 312.871472 523.161893 
L 313.609456 519.381994 
L 314.347441 519.381994 
L 315.085426 520.461965 
L 315.823412 520.461965 
L 316.554276 522.081922 
L 317.300428 522.081922 
L 318.046579 515.602094 
L 318.79273 516.14208 
L 319.53888 516.14208 
L 320.285028 519.921979 
L 321.031177 519.921979 
L 321.777324 522.081922 
L 323.269617 522.081922 
L 324.015762 524.241864 
L 324.761906 524.241864 
L 325.50805 526.941792 
L 326.254193 526.941792 
L 327.000335 526.401806 
L 327.746476 518.842008 
L 328.492617 517.222051 
L 329.984895 517.222051 
L 330.731034 509.662253 
L 331.477171 509.662253 
L 332.223308 503.182426 
L 332.969444 503.182426 
L 333.715579 504.802382 
L 334.461714 504.802382 
L 335.207848 509.122267 
L 336.700113 509.122267 
L 337.446244 501.562469 
L 338.192375 501.562469 
L 338.938505 510.202238 
L 339.684634 510.202238 
L 340.430763 517.762037 
L 341.923017 517.762037 
L 342.669143 526.401806 
L 343.415269 526.401806 
L 344.161393 530.721691 
L 344.907517 530.721691 
L 345.65364 531.801662 
L 346.399763 531.801662 
L 347.145884 525.861821 
L 350.130363 525.861821 
L 350.876481 528.021763 
L 351.622598 528.021763 
L 352.368714 529.64172 
L 353.11483 529.64172 
L 353.860945 529.101734 
L 355.353172 529.101734 
L 356.101767 528.561749 
L 356.853234 528.561749 
L 357.604699 526.401806 
L 358.356164 526.401806 
L 359.107628 528.021763 
L 360.602297 528.021763 
L 361.347291 525.861821 
L 362.092283 525.861821 
L 362.837275 526.941792 
L 365.072246 526.941792 
L 365.817235 529.101734 
L 367.307211 529.101734 
L 368.052198 527.481778 
L 368.797184 527.481778 
L 369.542169 525.321835 
L 370.287154 525.321835 
L 371.032138 523.161893 
L 371.777121 523.161893 
L 372.522103 521.00195 
L 374.012066 521.00195 
L 374.757046 519.381994 
L 375.502026 521.00195 
L 376.238682 519.381994 
L 376.975319 519.381994 
L 377.711957 517.222051 
L 378.448594 517.222051 
L 379.185231 515.062109 
L 380.658504 515.062109 
L 381.39514 513.442152 
L 382.131776 513.442152 
L 382.868412 511.822195 
L 383.605048 511.822195 
L 384.341683 509.122267 
L 385.078319 509.122267 
L 385.814954 506.422339 
L 387.288224 506.422339 
L 388.024858 502.102454 
L 388.761493 502.102454 
L 389.498127 498.862541 
L 390.234761 498.862541 
L 390.971395 501.022483 
L 391.708029 501.022483 
L 392.444662 504.802382 
L 393.917929 504.802382 
L 394.654562 503.182426 
L 395.391194 503.182426 
L 396.127827 502.64244 
L 396.864459 502.64244 
L 397.601091 501.022483 
L 398.337723 501.022483 
L 399.074355 498.322555 
L 402.02088 498.322555 
L 402.757511 498.862541 
L 403.494142 498.862541 
L 404.230772 496.162613 
L 404.963011 496.162613 
L 405.710402 492.922699 
L 406.457794 492.922699 
L 407.205186 491.302742 
L 408.699974 491.302742 
L 409.447369 492.382714 
L 410.194765 492.382714 
L 410.942162 490.762757 
L 411.689559 490.762757 
L 412.436957 486.982858 
L 413.931756 486.982858 
L 414.679157 489.682786 
L 415.426558 489.682786 
L 416.173961 489.1428 
L 416.921364 489.1428 
L 417.711043 486.982858 
L 418.521191 486.982858 
L 419.33134 484.822915 
L 420.141491 486.442872 
L 420.951643 486.442872 
L 421.761797 491.302742 
L 422.571952 491.842728 
L 423.382109 491.842728 
L 424.192267 495.622627 
L 425.002427 495.622627 
L 425.812589 497.242584 
L 426.622751 501.022483 
L 427.432916 501.022483 
L 428.243082 497.78257 
L 429.05325 497.78257 
L 429.863419 499.942512 
L 431.483762 499.942512 
L 432.293935 501.562469 
L 433.169718 501.562469 
L 434.082697 502.102454 
L 434.995676 503.182426 
L 435.908657 500.482498 
L 437.734623 500.482498 
L 438.647607 496.162613 
L 440.473579 496.162613 
L 441.386567 495.622627 
L 443.212546 495.622627 
L 444.125537 497.242584 
L 445.038529 492.382714 
L 445.951523 492.382714 
L 446.864517 493.462685 
L 447.777513 490.222771 
L 448.692049 490.222771 
L 449.645013 492.382714 
L 450.597978 492.382714 
L 451.550945 495.622627 
L 452.503911 493.462685 
L 453.456879 493.462685 
L 454.409847 497.242584 
L 455.362816 497.242584 
L 456.315786 494.00267 
L 457.268757 497.78257 
L 458.221728 497.78257 
L 459.1747 498.862541 
L 460.127673 498.862541 
L 461.080647 496.162613 
L 462.033621 497.242584 
L 463.939572 497.242584 
L 464.892549 495.082642 
L 465.845526 495.082642 
L 466.798505 497.242584 
L 468.704463 497.242584 
L 469.657444 495.082642 
L 470.610425 495.082642 
L 471.563407 496.702598 
L 472.51639 496.702598 
L 473.469373 492.922699 
L 474.422358 496.702598 
L 475.375343 496.702598 
L 476.328329 492.382714 
L 478.234302 492.382714 
L 479.187291 489.1428 
L 480.140279 489.1428 
L 481.093269 484.28293 
L 482.046259 485.362901 
L 482.999251 485.362901 
L 483.952243 479.423059 
L 484.905235 479.423059 
L 485.858229 481.043016 
L 486.811223 475.103174 
L 487.764218 475.103174 
L 488.717213 475.64316 
L 489.67021 475.64316 
L 490.623207 473.483218 
L 491.576205 484.822915 
L 492.529204 484.822915 
L 493.482203 494.542656 
L 494.435204 495.082642 
L 495.388205 495.082642 
L 496.341207 498.862541 
L 498.247212 498.862541 
L 499.200217 498.322555 
L 500.153221 498.322555 
L 501.106227 501.022483 
L 502.059233 501.022483 
L 503.01224 498.862541 
L 503.965248 501.022483 
L 504.918257 501.022483 
L 505.871266 501.562469 
L 506.824277 501.562469 
L 507.66803 501.022483 
L 508.426515 501.022483 
L 509.185 499.402526 
L 510.701974 499.402526 
L 511.460463 497.242584 
L 512.218953 497.242584 
L 512.977444 494.00267 
L 513.735935 494.00267 
L 514.494428 492.922699 
L 515.252922 492.922699 
L 516.002913 497.242584 
L 516.741698 495.082642 
L 517.480484 495.082642 
L 518.219269 491.842728 
L 518.958055 491.842728 
L 519.696842 490.222771 
L 520.435628 490.222771 
L 521.174416 492.382714 
L 522.651991 492.382714 
L 523.390779 493.462685 
L 524.129568 493.462685 
L 524.868357 494.542656 
L 525.607147 494.542656 
L 526.345936 496.162613 
L 527.084727 496.162613 
L 527.8212 498.322555 
L 528.557765 498.322555 
L 529.294329 498.862541 
L 530.767458 498.862541 
L 531.504022 499.942512 
L 532.240586 499.942512 
L 532.97715 499.402526 
L 533.713714 499.402526 
L 534.450273 499.942512 
L 535.188162 499.942512 
L 535.926052 501.022483 
L 537.40183 501.022483 
L 538.139718 500.482498 
L 538.877607 500.482498 
L 539.615495 501.562469 
L 540.353382 501.562469 
L 541.09127 499.942512 
L 544.042816 499.942512 
L 544.780702 501.022483 
L 545.518588 501.022483 
L 546.256473 500.482498 
L 546.994358 500.482498 
L 547.732243 499.402526 
L 550.683778 499.402526 
L 551.421662 498.322555 
L 552.159544 498.322555 
L 552.897427 495.082642 
L 553.635309 495.082642 
L 554.373191 496.162613 
L 555.111073 496.162613 
L 555.848954 498.322555 
L 558.800477 498.322555 
L 559.538357 500.482498 
L 561.751995 500.482498 
L 562.489873 501.562469 
L 563.96563 501.562469 
L 564.703508 498.322555 
L 565.438031 498.322555 
L 566.17653 495.622627 
L 566.915029 495.622627 
L 567.65882 496.702598 
L 568.402812 496.702598 
L 569.146804 495.082642 
L 572.12278 495.082642 
L 572.866776 497.242584 
L 573.610772 501.022483 
L 574.354769 501.562469 
L 575.098766 501.562469 
L 575.842765 499.402526 
L 581.794775 499.402526 
L 582.538779 500.482498 
L 584.025939 500.482498 
L 584.76945 501.562469 
L 588.487016 501.562469 
L 589.230532 499.942512 
L 590.717564 499.942512 
L 591.461081 498.322555 
L 592.207227 498.322555 
L 592.955867 499.402526 
L 593.704509 499.402526 
L 594.453151 498.322555 
L 595.201795 497.78257 
L 595.950439 497.78257 
L 596.699083 499.402526 
L 597.447729 499.402526 
L 598.196376 498.862541 
L 600.44232 498.862541 
L 601.19097 498.322555 
L 602.688272 498.322555 
L 603.436924 496.162613 
L 604.185577 495.082642 
L 604.934231 495.622627 
L 605.682886 495.622627 
L 606.431542 494.00267 
L 607.180198 494.00267 
L 607.928856 493.462685 
L 609.426173 493.462685 
L 610.174832 492.922699 
L 610.923493 492.922699 
L 611.672155 490.762757 
L 612.420817 479.963045 
L 613.16948 478.883074 
L 614.666809 478.883074 
L 615.435614 478.343088 
L 616.204432 478.343088 
L 616.973251 478.883074 
L 617.742072 478.883074 
L 619.279717 479.963045 
L 620.048541 479.963045 
L 620.817366 480.50303 
L 621.586193 480.50303 
L 622.355021 479.423059 
L 623.12385 479.423059 
L 623.89268 479.963045 
L 624.661512 479.423059 
L 625.430345 479.423059 
L 626.199179 482.122987 
L 626.968014 482.122987 
L 627.736851 485.362901 
L 628.522823 485.362901 
L 629.32713 481.583002 
L 630.131437 490.762757 
L 630.935746 490.762757 
L 631.740057 494.542656 
L 632.544369 494.542656 
L 633.348683 499.942512 
L 634.152998 499.402526 
L 634.957315 499.402526 
L 635.761633 496.162613 
L 636.565953 496.162613 
L 637.384057 500.482498 
L 638.211829 501.022483 
L 639.039602 501.022483 
L 639.867376 499.402526 
L 640.695153 502.64244 
L 641.52293 502.64244 
L 642.350709 500.482498 
L 643.17849 500.482498 
L 644.006273 504.262397 
L 647.264697 504.262397 
L 648.068996 506.962325 
L 649.677596 506.962325 
L 650.481899 508.582282 
L 651.286203 509.122267 
L 652.090509 509.122267 
L 652.894816 508.582282 
L 657.720691 508.582282 
L 658.492201 508.042296 
L 659.26132 508.042296 
L 660.030441 508.582282 
L 660.799562 506.962325 
L 661.568685 506.962325 
L 662.33781 503.722411 
L 663.106935 503.722411 
L 663.876062 502.64244 
L 664.64519 502.64244 
L 665.414319 503.182426 
L 666.183449 502.64244 
L 666.952581 502.64244 
L 667.721714 501.562469 
L 670.02912 501.562469 
L 670.798258 503.182426 
L 671.567397 503.722411 
L 672.336538 503.722411 
L 673.105679 503.182426 
L 675.413111 503.182426 
L 676.182258 505.342368 
L 676.951406 503.182426 
L 677.720555 503.182426 
L 678.489705 496.162613 
L 680.028009 496.162613 
L 680.797164 492.922699 
L 681.566319 498.322555 
L 682.335475 490.762757 
L 683.104633 490.762757 
L 683.873792 485.902886 
L 685.412114 485.902886 
L 686.181276 486.982858 
L 686.95044 488.602814 
L 688.488772 488.602814 
L 689.25794 486.982858 
L 690.796279 486.982858 
L 692.334623 494.542656 
L 693.106337 496.702598 
L 693.880141 496.702598 
L 694.653947 496.162613 
L 696.201562 496.162613 
L 696.975372 496.702598 
L 698.55077 498.862541 
L 700.152955 498.862541 
L 700.954049 495.622627 
L 701.755145 502.64244 
L 702.556243 500.482498 
L 704.158442 500.482498 
L 704.959544 499.402526 
L 705.760648 504.802382 
L 706.561753 504.262397 
L 708.163967 504.262397 
L 708.965077 501.562469 
L 709.766188 504.802382 
L 710.5673 504.262397 
L 712.16953 504.262397 
L 714.572885 502.64244 
L 716.17513 502.64244 
L 716.976254 499.942512 
L 717.77738 504.262397 
L 718.578508 504.802382 
L 720.180767 504.802382 
L 720.981899 504.262397 
L 721.783033 504.802382 
L 722.584168 503.722411 
L 725.235745 503.722411 
L 726.226743 503.182426 
L 727.217742 505.882354 
L 728.20874 505.882354 
L 729.199739 504.802382 
L 731.181738 504.802382 
L 732.172738 505.342368 
L 736.136741 505.342368 
L 737.127742 504.262397 
L 738.118744 504.262397 
L 739.109746 505.342368 
L 740.100749 503.722411 
L 741.091751 503.182426 
L 743.073758 503.182426 
L 744.064762 502.64244 
L 745.055766 502.64244 
L 746.04677 500.482498 
L 747.037775 501.562469 
L 748.02878 496.702598 
L 750.01079 496.702598 
L 751.001796 492.922699 
L 751.992803 492.922699 
L 752.983809 487.522843 
L 753.974816 490.762757 
L 754.965823 488.062829 
L 756.947839 488.062829 
L 757.938847 482.662973 
L 758.929855 482.662973 
L 759.920864 479.963045 
L 760.911873 479.963045 
L 761.902883 479.423059 
L 763.39147 479.423059 
L 764.14557 477.263117 
L 764.89967 477.263117 
L 765.653772 478.343088 
L 766.407875 478.343088 
L 767.161978 481.043016 
L 768.670188 481.043016 
L 769.424295 476.183146 
L 770.169345 476.183146 
L 770.906462 477.803102 
L 771.64358 477.803102 
L 772.380698 480.50303 
L 773.117816 480.50303 
L 773.854934 481.583002 
L 774.592052 481.583002 
L 775.329171 483.202958 
L 776.803408 483.202958 
L 777.540527 483.742944 
L 778.277645 483.742944 
L 779.014764 484.28293 
L 779.751883 484.28293 
L 780.489003 486.442872 
L 781.226122 486.442872 
L 781.963241 489.682786 
L 783.437481 489.682786 
L 784.1746 488.602814 
L 786.38596 488.602814 
L 787.123081 489.682786 
L 790.071563 489.682786 
L 790.808684 490.222771 
L 791.545805 490.222771 
L 792.282926 490.762757 
L 794.49429 490.762757 
L 795.231411 491.302742 
L 798.179899 491.302742 
L 798.917021 493.462685 
L 799.654143 493.462685 
L 800.391265 495.082642 
L 801.128388 495.082642 
L 801.86551 495.622627 
L 806.302678 495.622627 
L 807.829588 494.542656 
L 810.119961 494.542656 
L 810.883421 495.082642 
L 813.173807 495.082642 
L 813.937534 492.922699 
L 815.468452 492.922699 
L 816.233913 492.382714 
L 816.999375 492.382714 
L 817.764839 492.922699 
L 818.530303 492.922699 
L 819.295769 491.302742 
L 820.826704 491.302742 
L 821.592173 491.842728 
L 822.357644 491.842728 
L 823.123115 492.922699 
L 823.888588 492.922699 
L 824.654062 493.462685 
L 825.417 491.302742 
L 826.15737 491.302742 
L 826.897741 490.222771 
L 829.118855 490.222771 
L 829.859227 489.682786 
L 830.5996 489.682786 
L 831.339973 489.1428 
L 832.820721 489.1428 
L 833.561096 488.602814 
L 834.301471 488.602814 
L 835.041846 487.522843 
L 837.262976 487.522843 
L 838.003353 486.982858 
L 841.016616 486.982858 
L 841.817806 485.362901 
L 843.483979 485.362901 
L 844.382105 486.982858 
L 846.178352 486.982858 
L 847.076473 488.062829 
L 848.872713 488.062829 
L 849.77083 487.522843 
L 851.567062 487.522843 
L 852.465176 486.982858 
L 853.363289 485.902886 
L 854.261401 485.902886 
L 855.159511 486.442872 
L 856.05762 485.362901 
L 856.955728 485.362901 
L 857.853834 483.742944 
L 858.751939 482.662973 
L 859.650043 482.662973 
L 860.548146 485.362901 
L 861.446248 485.362901 
L 862.344348 486.982858 
L 864.140544 486.982858 
L 865.038641 486.442872 
L 865.936736 487.522843 
L 869.733416 487.522843 
L 870.705289 489.682786 
L 871.677162 489.682786 
L 872.649034 488.602814 
L 873.620906 490.222771 
L 874.592777 490.222771 
L 875.564648 492.382714 
L 877.508388 492.382714 
L 878.480257 491.302742 
L 879.452125 491.302742 
L 880.423993 492.382714 
L 882.367728 492.382714 
L 883.339594 493.462685 
L 887.227053 493.462685 
L 888.198917 495.082642 
L 889.17078 495.082642 
L 890.142642 494.00267 
L 894.030087 494.00267 
L 895.001946 494.542656 
L 897.917522 494.542656 
L 898.88938 495.622627 
L 899.861237 496.162613 
L 908.607924 496.162613 
L 909.579776 493.462685 
L 910.551627 493.462685 
L 911.523477 494.542656 
L 913.467176 494.542656 
L 914.418443 496.162613 
L 915.357215 496.162613 
L 916.295986 496.702598 
L 918.173525 496.702598 
L 919.112293 497.242584 
L 920.989826 497.242584 
L 921.928592 497.78257 
L 922.867356 496.702598 
L 923.80612 496.162613 
L 925.683644 496.162613 
L 926.622405 494.542656 
L 928.499924 494.542656 
L 929.438682 495.082642 
L 933.193706 495.082642 
L 934.132459 495.622627 
L 936.009964 495.622627 
L 936.948715 494.00267 
L 937.887465 494.00267 
L 938.826214 494.542656 
L 940.703709 494.542656 
L 941.642455 496.162613 
L 943.519945 496.162613 
L 944.458689 495.622627 
L 945.397432 494.542656 
L 948.213654 494.542656 
L 949.152394 493.462685 
L 950.931121 493.462685 
L 951.765781 494.00267 
L 953.435097 494.00267 
L 954.269753 493.462685 
L 955.104406 492.382714 
L 955.939059 492.382714 
L 956.77371 491.842728 
L 957.608359 491.842728 
L 958.443007 492.382714 
L 960.112298 492.382714 
L 960.946941 491.302742 
L 961.781583 491.842728 
L 964.285498 491.842728 
L 965.120134 491.302742 
L 965.954768 490.222771 
L 966.7894 490.222771 
L 967.624031 491.302742 
L 971.797162 491.302742 
L 972.631784 491.842728 
L 973.466404 491.842728 
L 974.301022 490.762757 
L 975.135639 491.302742 
L 975.970254 491.302742 
L 976.804868 489.682786 
L 977.639481 489.682786 
L 978.474091 489.1428 
L 980.977915 489.1428 
L 981.812519 488.602814 
L 982.647122 488.602814 
L 983.481724 487.522843 
L 984.316324 487.522843 
L 985.150922 486.982858 
L 985.985519 485.902886 
L 987.654708 485.902886 
L 988.489301 484.822915 
L 989.323891 484.822915 
L 990.158481 484.28293 
L 990.993068 484.28293 
L 991.827654 483.742944 
L 992.662239 482.122987 
L 994.331404 482.122987 
L 995.165983 483.742944 
L 996.000562 483.742944 
L 996.835139 482.662973 
L 997.669714 482.662973 
L 998.504288 484.28293 
L 1001.008 484.28293 
L 1001.842568 482.662973 
L 1002.677134 482.662973 
L 1003.511698 482.122987 
L 1004.346261 482.122987 
L 1006.015383 481.043016 
L 1007.684498 481.043016 
L 1008.519053 481.583002 
L 1011.02271 481.583002 
L 1011.857259 481.043016 
L 1012.691806 481.583002 
L 1013.61056 481.583002 
L 1014.547509 479.963045 
L 1015.484457 479.963045 
L 1016.421405 479.423059 
L 1017.358351 477.803102 
L 1019.232241 477.803102 
L 1020.169184 475.103174 
L 1021.106127 475.103174 
L 1022.044603 471.323275 
L 1024.038505 471.323275 
L 1025.035456 465.383434 
L 1026.032406 461.603534 
L 1027.029356 456.203678 
L 1028.026306 456.203678 
L 1029.023255 455.663693 
L 1031.022262 455.663693 
L 1032.022105 456.203678 
L 1033.021948 456.203678 
L 1034.02179 456.743664 
L 1035.021632 459.443592 
L 1036.021474 458.903606 
L 1037.021316 458.903606 
L 1038.021158 457.28365 
L 1040.02084 457.28365 
L 1041.020681 457.823635 
L 1042.020522 457.823635 
L 1043.020363 460.523563 
L 1044.020203 460.523563 
L 1045.020043 456.743664 
L 1047.019723 456.743664 
L 1048.019562 451.343808 
L 1049.019402 451.343808 
L 1050.019241 448.64388 
L 1051.01908 448.64388 
L 1052.018919 444.323995 
L 1054.018596 444.323995 
L 1055.018434 450.803822 
L 1056.018272 450.803822 
L 1057.018109 454.043736 
L 1058.017947 454.043736 
L 1059.017784 451.343808 
L 1060.017621 451.343808 
L 1061.017458 449.723851 
L 1062.017295 445.943952 
L 1063.017131 445.943952 
L 1064.016968 442.704038 
L 1065.016804 442.704038 
L 1066.01664 437.304182 
L 1068.016311 437.304182 
L 1069.016146 429.204398 
L 1069.957724 429.744384 
L 1070.855999 423.264557 
L 1071.754272 423.264557 
L 1072.652544 424.884514 
L 1073.550815 416.244744 
L 1075.347352 416.244744 
L 1076.245619 405.445032 
L 1078.04215 405.445032 
L 1078.940413 397.885234 
L 1080.736935 397.885234 
L 1081.635195 389.245464 
L 1083.43171 389.245464 
L 1084.329966 378.985738 
L 1085.22822 378.445752 
L 1086.126473 378.445752 
L 1087.024725 374.665853 
L 1088.821225 374.665853 
L 1089.719473 375.745824 
L 1090.61772 374.665853 
L 1091.515966 374.665853 
L 1092.41421 375.205838 
L 1093.312453 375.205838 
L 1094.210695 374.665853 
L 1095.108936 380.065709 
L 1096.007175 380.065709 
L 1096.905413 380.605694 
L 1097.80365 377.365781 
L 1099.60012 377.365781 
L 1100.498353 374.665853 
L 1102.294815 374.665853 
L 1103.193045 373.585882 
L 1104.989499 373.585882 
L 1105.887725 373.045896 
L 1106.785949 370.345968 
L 1107.684172 370.345968 
L 1108.582394 371.425939 
L 1109.480615 367.64604 
L 1110.378834 367.64604 
L 1111.277052 369.265997 
L 1112.175269 367.64604 
L 1113.971698 367.64604 
L 1114.869911 364.406126 
L 1116.666334 364.406126 
L 1117.564543 355.766357 
L 1119.360957 355.766357 
L 1120.259163 348.746544 
L 1122.05557 348.746544 
L 1122.953772 347.126587 
L 1123.851972 340.64676 
L 1124.750171 340.64676 
L 1125.648369 336.326875 
L 1126.546566 334.166933 
L 1127.444761 334.166933 
L 1128.342955 332.546976 
L 1130.13934 332.546976 
L 1131.03753 328.767077 
L 1131.93572 328.767077 
L 1132.833907 328.227091 
L 1133.732094 331.467005 
L 1134.630279 331.467005 
L 1135.528463 336.866861 
L 1136.426646 349.826515 
L 1137.324828 349.826515 
L 1138.223008 355.226371 
L 1139.121187 363.866141 
L 1140.019365 363.866141 
L 1140.917542 365.486098 
L 1141.815717 368.726011 
L 1143.612064 368.726011 
L 1144.510236 367.64604 
L 1146.294071 367.64604 
L 1147.16166 369.265997 
L 1148.896833 369.265997 
L 1149.764417 364.946112 
L 1150.632 368.186026 
L 1150.632 368.186026 
" clip-path="url(#p205a1bdfd5)" style="fill: none; stroke: #1f77b4; stroke-width: 1.5; stroke-linecap: square"/>
   </g>
   <g id="line2d_23">
    <path d="M 166.32 531.261677 
L 1197.504 531.261677 
" clip-path="url(#p205a1bdfd5)" style="fill: none; stroke-dasharray: 5.55,2.4; stroke-dashoffset: 0; stroke: #1f77b4; stroke-width: 1.5"/>
   </g>
   <g id="line2d_24">
    <path d="M 166.32 368.186026 
L 1197.504 368.186026 
" clip-path="url(#p205a1bdfd5)" style="fill: none; stroke-dasharray: 5.55,2.4; stroke-dashoffset: 0; stroke: #1f77b4; stroke-width: 1.5"/>
   </g>
   <g id="line2d_25">
    <path d="M 166.32 328.227091 
L 1197.504 328.227091 
" clip-path="url(#p205a1bdfd5)" style="fill: none; stroke-dasharray: 5.55,2.4; stroke-dashoffset: 0; stroke: #1f77b4; stroke-width: 1.5"/>
   </g>
   <g id="line2d_26">
    <path d="M 213.192 520.461965 
L 214.081587 516.14208 
L 215.860756 516.14208 
L 216.750339 499.942512 
L 218.5295 499.942512 
L 219.419079 502.64244 
L 221.198233 502.64244 
L 222.087808 524.241864 
L 223.866954 524.241864 
L 224.756525 530.181706 
L 226.535662 530.181706 
L 227.425229 533.961605 
L 230.093922 533.961605 
L 230.983484 535.041576 
L 234.346952 535.041576 
L 235.178683 536.121547 
L 236.010411 536.121547 
L 236.829092 538.821475 
L 240.642264 538.821475 
L 241.404895 537.201518 
L 242.167525 537.201518 
L 242.930154 538.821475 
L 243.692781 538.821475 
L 244.455408 538.28149 
L 248.268523 538.28149 
L 249.031142 537.741504 
L 249.785976 538.28149 
L 255.70181 538.28149 
L 256.441287 536.661533 
L 259.399191 536.661533 
L 260.138666 538.28149 
L 260.87814 538.28149 
L 261.617614 536.661533 
L 262.357088 536.661533 
L 263.096561 535.581562 
L 263.836033 535.581562 
L 264.575506 533.961605 
L 266.078913 533.961605 
L 266.830998 534.50159 
L 267.583082 534.50159 
L 268.335164 533.961605 
L 269.087247 533.961605 
L 269.839328 533.421619 
L 270.591408 533.421619 
L 271.343487 531.261677 
L 275.855943 531.261677 
L 276.608016 532.341648 
L 278.112694 532.341648 
L 278.906836 529.101734 
L 282.083387 529.101734 
L 282.877521 528.561749 
L 283.671654 528.561749 
L 284.465785 529.101734 
L 286.848169 529.101734 
L 287.642295 527.481778 
L 288.436419 526.401806 
L 289.951057 526.401806 
L 290.703932 525.321835 
L 291.456805 525.321835 
L 292.209678 523.701878 
L 292.946019 523.701878 
L 293.683995 521.541936 
L 294.42197 521.541936 
L 295.159946 523.701878 
L 296.635899 523.701878 
L 297.373876 521.541936 
L 298.111854 521.541936 
L 298.849831 518.302022 
L 299.587809 518.302022 
L 300.325788 513.442152 
L 301.063767 513.442152 
L 301.801746 508.582282 
L 303.277705 508.582282 
L 304.015685 506.962325 
L 304.753665 506.962325 
L 305.491646 512.362181 
L 306.229627 512.362181 
L 306.967608 519.381994 
L 307.70559 519.381994 
L 308.443572 523.161893 
L 309.181555 523.161893 
L 309.919537 519.921979 
L 311.395504 519.921979 
L 312.133488 515.602094 
L 312.871472 512.362181 
L 313.609456 508.582282 
L 314.347441 508.582282 
L 315.085426 509.662253 
L 315.823412 509.662253 
L 316.554276 511.28221 
L 317.300428 511.28221 
L 318.046579 504.802382 
L 318.79273 505.342368 
L 319.53888 505.342368 
L 320.285028 509.122267 
L 321.031177 509.122267 
L 321.777324 511.28221 
L 323.269617 511.28221 
L 324.015762 513.442152 
L 324.761906 513.442152 
L 325.50805 516.14208 
L 326.254193 516.14208 
L 327.000335 515.602094 
L 327.746476 508.042296 
L 328.492617 506.422339 
L 329.984895 506.422339 
L 330.731034 498.862541 
L 331.477171 498.862541 
L 332.223308 492.382714 
L 332.969444 492.382714 
L 333.715579 494.00267 
L 334.461714 494.00267 
L 335.207848 498.322555 
L 336.700113 498.322555 
L 337.446244 490.762757 
L 338.192375 490.762757 
L 338.938505 499.402526 
L 339.684634 499.402526 
L 340.430763 506.962325 
L 341.923017 506.962325 
L 342.669143 515.602094 
L 343.415269 515.602094 
L 344.161393 519.921979 
L 344.907517 519.921979 
L 345.65364 521.00195 
L 346.399763 521.00195 
L 347.145884 515.062109 
L 350.130363 515.062109 
L 350.876481 517.222051 
L 351.622598 517.222051 
L 352.368714 518.842008 
L 353.11483 518.842008 
L 353.860945 518.302022 
L 355.353172 518.302022 
L 356.101767 517.762037 
L 356.853234 517.762037 
L 357.604699 515.602094 
L 358.356164 515.602094 
L 359.107628 517.222051 
L 360.602297 517.222051 
L 361.347291 515.062109 
L 362.092283 515.062109 
L 362.837275 516.14208 
L 365.072246 516.14208 
L 365.817235 518.302022 
L 367.307211 518.302022 
L 368.052198 516.682066 
L 368.797184 516.682066 
L 369.542169 514.522123 
L 370.287154 514.522123 
L 371.032138 512.362181 
L 371.777121 512.362181 
L 372.522103 510.202238 
L 374.012066 510.202238 
L 374.757046 508.582282 
L 375.502026 510.202238 
L 376.238682 508.582282 
L 376.975319 508.582282 
L 377.711957 506.422339 
L 378.448594 506.422339 
L 379.185231 504.262397 
L 380.658504 504.262397 
L 381.39514 502.64244 
L 382.131776 502.64244 
L 382.868412 501.022483 
L 383.605048 501.022483 
L 384.341683 498.322555 
L 385.078319 498.322555 
L 385.814954 495.622627 
L 387.288224 495.622627 
L 388.024858 491.302742 
L 388.761493 491.302742 
L 389.498127 488.062829 
L 390.234761 488.062829 
L 390.971395 490.222771 
L 391.708029 490.222771 
L 392.444662 494.00267 
L 393.917929 494.00267 
L 394.654562 492.382714 
L 395.391194 492.382714 
L 396.127827 491.842728 
L 396.864459 491.842728 
L 397.601091 490.222771 
L 398.337723 490.222771 
L 399.074355 487.522843 
L 402.02088 487.522843 
L 402.757511 488.062829 
L 403.494142 488.062829 
L 404.230772 485.362901 
L 404.963011 485.362901 
L 405.710402 482.122987 
L 406.457794 482.122987 
L 407.205186 480.50303 
L 408.699974 480.50303 
L 409.447369 481.583002 
L 410.194765 481.583002 
L 410.942162 479.963045 
L 411.689559 479.963045 
L 412.436957 476.183146 
L 413.931756 476.183146 
L 414.679157 478.883074 
L 415.426558 478.883074 
L 416.173961 478.343088 
L 416.921364 478.343088 
L 417.711043 476.183146 
L 418.521191 476.183146 
L 419.33134 474.023203 
L 420.141491 475.64316 
L 420.951643 475.64316 
L 421.761797 480.50303 
L 422.571952 481.043016 
L 423.382109 481.043016 
L 424.192267 484.822915 
L 425.002427 484.822915 
L 425.812589 486.442872 
L 426.622751 490.222771 
L 427.432916 490.222771 
L 428.243082 486.982858 
L 429.05325 486.982858 
L 429.863419 489.1428 
L 431.483762 489.1428 
L 432.293935 490.762757 
L 433.169718 490.762757 
L 434.082697 491.302742 
L 434.995676 492.382714 
L 435.908657 489.682786 
L 437.734623 489.682786 
L 438.647607 485.362901 
L 440.473579 485.362901 
L 441.386567 484.822915 
L 443.212546 484.822915 
L 444.125537 486.442872 
L 445.038529 481.583002 
L 445.951523 481.583002 
L 446.864517 482.662973 
L 447.777513 479.423059 
L 448.692049 479.423059 
L 449.645013 481.583002 
L 450.597978 481.583002 
L 451.550945 484.822915 
L 452.503911 482.662973 
L 453.456879 482.662973 
L 454.409847 486.442872 
L 455.362816 486.442872 
L 456.315786 483.202958 
L 457.268757 486.982858 
L 458.221728 486.982858 
L 459.1747 488.062829 
L 460.127673 488.062829 
L 461.080647 485.362901 
L 462.033621 486.442872 
L 463.939572 486.442872 
L 464.892549 484.28293 
L 465.845526 484.28293 
L 466.798505 486.442872 
L 468.704463 486.442872 
L 469.657444 484.28293 
L 470.610425 484.28293 
L 471.563407 485.902886 
L 472.51639 485.902886 
L 473.469373 482.122987 
L 474.422358 485.902886 
L 475.375343 485.902886 
L 476.328329 481.583002 
L 478.234302 481.583002 
L 479.187291 478.343088 
L 480.140279 478.343088 
L 481.093269 473.483218 
L 482.046259 474.563189 
L 482.999251 474.563189 
L 483.952243 468.623347 
L 484.905235 468.623347 
L 485.858229 470.243304 
L 486.811223 464.303462 
L 487.764218 464.303462 
L 488.717213 464.843448 
L 489.67021 464.843448 
L 490.623207 462.683506 
L 491.576205 474.023203 
L 492.529204 474.023203 
L 493.482203 483.742944 
L 494.435204 484.28293 
L 495.388205 484.28293 
L 496.341207 488.062829 
L 498.247212 488.062829 
L 499.200217 487.522843 
L 500.153221 487.522843 
L 501.106227 490.222771 
L 502.059233 490.222771 
L 503.01224 488.062829 
L 503.965248 490.222771 
L 504.918257 490.222771 
L 505.871266 490.762757 
L 506.824277 490.762757 
L 507.66803 490.222771 
L 508.426515 490.222771 
L 509.185 488.602814 
L 510.701974 488.602814 
L 511.460463 486.442872 
L 512.218953 486.442872 
L 512.977444 483.202958 
L 513.735935 483.202958 
L 514.494428 482.122987 
L 515.252922 482.122987 
L 516.002913 486.442872 
L 516.741698 484.28293 
L 517.480484 484.28293 
L 518.219269 481.043016 
L 518.958055 481.043016 
L 519.696842 479.423059 
L 520.435628 479.423059 
L 521.174416 481.583002 
L 522.651991 481.583002 
L 523.390779 482.662973 
L 524.129568 482.662973 
L 524.868357 483.742944 
L 525.607147 483.742944 
L 526.345936 485.362901 
L 527.084727 485.362901 
L 527.8212 487.522843 
L 528.557765 487.522843 
L 529.294329 488.062829 
L 530.767458 488.062829 
L 531.504022 489.1428 
L 532.240586 489.1428 
L 532.97715 488.602814 
L 533.713714 488.602814 
L 534.450273 489.1428 
L 535.188162 489.1428 
L 535.926052 490.222771 
L 537.40183 490.222771 
L 538.139718 489.682786 
L 538.877607 489.682786 
L 539.615495 490.762757 
L 540.353382 490.762757 
L 541.09127 489.1428 
L 544.042816 489.1428 
L 544.780702 490.222771 
L 545.518588 490.222771 
L 546.256473 489.682786 
L 546.994358 489.682786 
L 547.732243 488.602814 
L 550.683778 488.602814 
L 551.421662 487.522843 
L 552.159544 487.522843 
L 552.897427 484.28293 
L 553.635309 484.28293 
L 554.373191 485.362901 
L 555.111073 485.362901 
L 555.848954 487.522843 
L 558.800477 487.522843 
L 559.538357 489.682786 
L 561.751995 489.682786 
L 562.489873 490.762757 
L 563.96563 490.762757 
L 564.703508 487.522843 
L 565.438031 487.522843 
L 566.17653 484.822915 
L 566.915029 484.822915 
L 567.65882 485.902886 
L 568.402812 485.902886 
L 569.146804 484.28293 
L 572.12278 484.28293 
L 572.866776 486.442872 
L 573.610772 490.222771 
L 574.354769 490.762757 
L 575.098766 490.762757 
L 575.842765 488.602814 
L 581.794775 488.602814 
L 582.538779 489.682786 
L 584.025939 489.682786 
L 584.76945 490.762757 
L 588.487016 490.762757 
L 589.230532 489.1428 
L 590.717564 489.1428 
L 591.461081 487.522843 
L 592.207227 487.522843 
L 592.955867 488.602814 
L 593.704509 488.602814 
L 594.453151 487.522843 
L 595.201795 486.982858 
L 595.950439 486.982858 
L 596.699083 488.602814 
L 597.447729 488.602814 
L 598.196376 488.062829 
L 600.44232 488.062829 
L 601.19097 487.522843 
L 602.688272 487.522843 
L 603.436924 485.362901 
L 604.185577 484.28293 
L 604.934231 484.822915 
L 605.682886 484.822915 
L 606.431542 483.202958 
L 607.180198 483.202958 
L 607.928856 482.662973 
L 609.426173 482.662973 
L 610.174832 482.122987 
L 610.923493 482.122987 
L 611.672155 479.963045 
L 612.420817 469.163333 
L 613.16948 468.083362 
L 614.666809 468.083362 
L 615.435614 467.543376 
L 616.204432 467.543376 
L 616.973251 468.083362 
L 617.742072 468.083362 
L 619.279717 469.163333 
L 620.048541 469.163333 
L 620.817366 469.703318 
L 621.586193 469.703318 
L 622.355021 468.623347 
L 623.12385 468.623347 
L 623.89268 469.163333 
L 624.661512 468.623347 
L 625.430345 468.623347 
L 626.199179 471.323275 
L 626.968014 471.323275 
L 627.736851 474.563189 
L 628.522823 474.563189 
L 629.32713 470.78329 
L 630.131437 479.963045 
L 630.935746 479.963045 
L 631.740057 483.742944 
L 632.544369 483.742944 
L 633.348683 489.1428 
L 634.152998 488.602814 
L 634.957315 488.602814 
L 635.761633 485.362901 
L 636.565953 485.362901 
L 637.384057 489.682786 
L 638.211829 490.222771 
L 639.039602 490.222771 
L 639.867376 488.602814 
L 640.695153 491.842728 
L 641.52293 491.842728 
L 642.350709 489.682786 
L 643.17849 489.682786 
L 644.006273 493.462685 
L 647.264697 493.462685 
L 648.068996 496.162613 
L 649.677596 496.162613 
L 650.481899 497.78257 
L 651.286203 498.322555 
L 652.090509 498.322555 
L 652.894816 497.78257 
L 657.720691 497.78257 
L 658.492201 497.242584 
L 659.26132 497.242584 
L 660.030441 497.78257 
L 660.799562 496.162613 
L 661.568685 496.162613 
L 662.33781 492.922699 
L 663.106935 492.922699 
L 663.876062 491.842728 
L 664.64519 491.842728 
L 665.414319 492.382714 
L 666.183449 491.842728 
L 666.952581 491.842728 
L 667.721714 490.762757 
L 670.02912 490.762757 
L 670.798258 492.382714 
L 671.567397 492.922699 
L 672.336538 492.922699 
L 673.105679 492.382714 
L 675.413111 492.382714 
L 676.182258 494.542656 
L 676.951406 492.382714 
L 677.720555 492.382714 
L 678.489705 485.362901 
L 680.028009 485.362901 
L 680.797164 482.122987 
L 681.566319 487.522843 
L 682.335475 479.963045 
L 683.104633 479.963045 
L 683.873792 475.103174 
L 685.412114 475.103174 
L 686.181276 476.183146 
L 686.95044 477.803102 
L 688.488772 477.803102 
L 689.25794 476.183146 
L 690.796279 476.183146 
L 692.334623 483.742944 
L 693.106337 485.902886 
L 693.880141 485.902886 
L 694.653947 485.362901 
L 696.201562 485.362901 
L 696.975372 485.902886 
L 698.55077 488.062829 
L 700.152955 488.062829 
L 700.954049 484.822915 
L 701.755145 491.842728 
L 702.556243 489.682786 
L 704.158442 489.682786 
L 704.959544 488.602814 
L 705.760648 494.00267 
L 706.561753 493.462685 
L 708.163967 493.462685 
L 708.965077 490.762757 
L 709.766188 494.00267 
L 710.5673 493.462685 
L 712.16953 493.462685 
L 714.572885 491.842728 
L 716.17513 491.842728 
L 716.976254 489.1428 
L 717.77738 493.462685 
L 718.578508 494.00267 
L 720.180767 494.00267 
L 720.981899 493.462685 
L 721.783033 494.00267 
L 722.584168 492.922699 
L 725.235745 492.922699 
L 726.226743 492.382714 
L 727.217742 495.082642 
L 728.20874 495.082642 
L 729.199739 494.00267 
L 731.181738 494.00267 
L 732.172738 494.542656 
L 736.136741 494.542656 
L 737.127742 493.462685 
L 738.118744 493.462685 
L 739.109746 494.542656 
L 740.100749 492.922699 
L 741.091751 492.382714 
L 743.073758 492.382714 
L 744.064762 491.842728 
L 745.055766 491.842728 
L 746.04677 489.682786 
L 747.037775 490.762757 
L 748.02878 485.902886 
L 750.01079 485.902886 
L 751.001796 482.122987 
L 751.992803 482.122987 
L 752.983809 476.723131 
L 753.974816 479.963045 
L 754.965823 477.263117 
L 756.947839 477.263117 
L 757.938847 471.863261 
L 758.929855 471.863261 
L 759.920864 469.163333 
L 760.911873 469.163333 
L 761.902883 468.623347 
L 763.39147 468.623347 
L 764.14557 466.463405 
L 764.89967 466.463405 
L 765.653772 467.543376 
L 766.407875 467.543376 
L 767.161978 470.243304 
L 768.670188 470.243304 
L 769.424295 465.383434 
L 770.169345 465.383434 
L 770.906462 467.00339 
L 771.64358 467.00339 
L 772.380698 469.703318 
L 773.117816 469.703318 
L 773.854934 470.78329 
L 774.592052 470.78329 
L 775.329171 472.403246 
L 776.803408 472.403246 
L 777.540527 472.943232 
L 778.277645 472.943232 
L 779.014764 473.483218 
L 779.751883 473.483218 
L 780.489003 475.64316 
L 781.226122 475.64316 
L 781.963241 478.883074 
L 783.437481 478.883074 
L 784.1746 477.803102 
L 786.38596 477.803102 
L 787.123081 478.883074 
L 790.071563 478.883074 
L 790.808684 479.423059 
L 791.545805 479.423059 
L 792.282926 479.963045 
L 794.49429 479.963045 
L 795.231411 480.50303 
L 798.179899 480.50303 
L 798.917021 482.662973 
L 799.654143 482.662973 
L 800.391265 484.28293 
L 801.128388 484.28293 
L 801.86551 484.822915 
L 806.302678 484.822915 
L 807.829588 483.742944 
L 810.119961 483.742944 
L 810.883421 484.28293 
L 813.173807 484.28293 
L 813.937534 482.122987 
L 815.468452 482.122987 
L 816.233913 481.583002 
L 816.999375 481.583002 
L 817.764839 482.122987 
L 818.530303 482.122987 
L 819.295769 480.50303 
L 820.826704 480.50303 
L 821.592173 481.043016 
L 822.357644 481.043016 
L 823.123115 482.122987 
L 823.888588 482.122987 
L 824.654062 482.662973 
L 825.417 480.50303 
L 826.15737 480.50303 
L 826.897741 479.423059 
L 829.118855 479.423059 
L 829.859227 478.883074 
L 830.5996 478.883074 
L 831.339973 478.343088 
L 832.820721 478.343088 
L 833.561096 477.803102 
L 834.301471 477.803102 
L 835.041846 476.723131 
L 837.262976 476.723131 
L 838.003353 476.183146 
L 841.016616 476.183146 
L 841.817806 474.563189 
L 843.483979 474.563189 
L 844.382105 476.183146 
L 846.178352 476.183146 
L 847.076473 477.263117 
L 848.872713 477.263117 
L 849.77083 476.723131 
L 851.567062 476.723131 
L 852.465176 476.183146 
L 853.363289 475.103174 
L 854.261401 475.103174 
L 855.159511 475.64316 
L 856.05762 474.563189 
L 856.955728 474.563189 
L 857.853834 472.943232 
L 858.751939 471.863261 
L 859.650043 471.863261 
L 860.548146 474.563189 
L 861.446248 474.563189 
L 862.344348 476.183146 
L 864.140544 476.183146 
L 865.038641 475.64316 
L 865.936736 476.723131 
L 869.733416 476.723131 
L 870.705289 478.883074 
L 871.677162 478.883074 
L 872.649034 477.803102 
L 873.620906 479.423059 
L 874.592777 479.423059 
L 875.564648 481.583002 
L 877.508388 481.583002 
L 878.480257 480.50303 
L 879.452125 480.50303 
L 880.423993 481.583002 
L 882.367728 481.583002 
L 883.339594 482.662973 
L 887.227053 482.662973 
L 888.198917 484.28293 
L 889.17078 484.28293 
L 890.142642 483.202958 
L 894.030087 483.202958 
L 895.001946 483.742944 
L 897.917522 483.742944 
L 898.88938 484.822915 
L 899.861237 485.362901 
L 908.607924 485.362901 
L 909.579776 482.662973 
L 910.551627 482.662973 
L 911.523477 483.742944 
L 913.467176 483.742944 
L 914.418443 485.362901 
L 915.357215 485.362901 
L 916.295986 485.902886 
L 918.173525 485.902886 
L 919.112293 486.442872 
L 920.989826 486.442872 
L 921.928592 486.982858 
L 922.867356 485.902886 
L 923.80612 485.362901 
L 925.683644 485.362901 
L 926.622405 483.742944 
L 928.499924 483.742944 
L 929.438682 484.28293 
L 933.193706 484.28293 
L 934.132459 484.822915 
L 936.009964 484.822915 
L 936.948715 483.202958 
L 937.887465 483.202958 
L 938.826214 483.742944 
L 940.703709 483.742944 
L 941.642455 485.362901 
L 943.519945 485.362901 
L 944.458689 484.822915 
L 945.397432 483.742944 
L 948.213654 483.742944 
L 949.152394 482.662973 
L 950.931121 482.662973 
L 951.765781 483.202958 
L 953.435097 483.202958 
L 954.269753 482.662973 
L 955.104406 481.583002 
L 955.939059 481.583002 
L 956.77371 481.043016 
L 957.608359 481.043016 
L 958.443007 481.583002 
L 960.112298 481.583002 
L 960.946941 480.50303 
L 961.781583 481.043016 
L 964.285498 481.043016 
L 965.120134 480.50303 
L 965.954768 479.423059 
L 966.7894 479.423059 
L 967.624031 480.50303 
L 971.797162 480.50303 
L 972.631784 481.043016 
L 973.466404 481.043016 
L 974.301022 479.963045 
L 975.135639 480.50303 
L 975.970254 480.50303 
L 976.804868 478.883074 
L 977.639481 478.883074 
L 978.474091 478.343088 
L 980.977915 478.343088 
L 981.812519 477.803102 
L 982.647122 477.803102 
L 983.481724 476.723131 
L 984.316324 476.723131 
L 985.150922 476.183146 
L 985.985519 475.103174 
L 987.654708 475.103174 
L 988.489301 474.023203 
L 989.323891 474.023203 
L 990.158481 473.483218 
L 990.993068 473.483218 
L 991.827654 472.943232 
L 992.662239 471.323275 
L 994.331404 471.323275 
L 995.165983 472.943232 
L 996.000562 472.943232 
L 996.835139 471.863261 
L 997.669714 471.863261 
L 998.504288 473.483218 
L 1001.008 473.483218 
L 1001.842568 471.863261 
L 1002.677134 471.863261 
L 1003.511698 471.323275 
L 1004.346261 471.323275 
L 1006.015383 470.243304 
L 1007.684498 470.243304 
L 1008.519053 470.78329 
L 1011.02271 470.78329 
L 1011.857259 470.243304 
L 1012.691806 470.78329 
L 1013.61056 470.78329 
L 1014.547509 469.163333 
L 1015.484457 469.163333 
L 1016.421405 468.623347 
L 1017.358351 467.00339 
L 1019.232241 467.00339 
L 1020.169184 464.303462 
L 1021.106127 464.303462 
L 1022.044603 460.523563 
L 1024.038505 460.523563 
L 1025.035456 454.583722 
L 1026.032406 450.803822 
L 1027.029356 445.403966 
L 1028.026306 445.403966 
L 1029.023255 444.863981 
L 1031.022262 444.863981 
L 1032.022105 445.403966 
L 1033.021948 445.403966 
L 1034.02179 445.943952 
L 1035.021632 448.64388 
L 1036.021474 448.103894 
L 1037.021316 448.103894 
L 1038.021158 446.483938 
L 1040.02084 446.483938 
L 1041.020681 447.023923 
L 1042.020522 447.023923 
L 1043.020363 449.723851 
L 1044.020203 449.723851 
L 1045.020043 445.943952 
L 1047.019723 445.943952 
L 1048.019562 440.544096 
L 1049.019402 440.544096 
L 1050.019241 437.844168 
L 1051.01908 437.844168 
L 1052.018919 433.524283 
L 1054.018596 433.524283 
L 1055.018434 440.00411 
L 1056.018272 440.00411 
L 1057.018109 443.244024 
L 1058.017947 443.244024 
L 1059.017784 440.544096 
L 1060.017621 440.544096 
L 1061.017458 438.924139 
L 1062.017295 435.14424 
L 1063.017131 435.14424 
L 1064.016968 431.904326 
L 1065.016804 431.904326 
L 1066.01664 426.50447 
L 1068.016311 426.50447 
L 1069.016146 418.404686 
L 1069.957724 418.944672 
L 1070.855999 412.464845 
L 1071.754272 412.464845 
L 1072.652544 414.084802 
L 1073.550815 405.445032 
L 1075.347352 405.445032 
L 1076.245619 394.64532 
L 1078.04215 394.64532 
L 1078.940413 387.085522 
L 1080.736935 387.085522 
L 1081.635195 378.445752 
L 1083.43171 378.445752 
L 1084.329966 368.186026 
L 1085.22822 367.64604 
L 1086.126473 367.64604 
L 1087.024725 363.866141 
L 1088.821225 363.866141 
L 1089.719473 364.946112 
L 1090.61772 363.866141 
L 1091.515966 363.866141 
L 1092.41421 364.406126 
L 1093.312453 364.406126 
L 1094.210695 363.866141 
L 1095.108936 369.265997 
L 1096.007175 369.265997 
L 1096.905413 369.805982 
L 1097.80365 366.566069 
L 1099.60012 366.566069 
L 1100.498353 363.866141 
L 1102.294815 363.866141 
L 1103.193045 362.78617 
L 1104.989499 362.78617 
L 1105.887725 362.246184 
L 1106.785949 359.546256 
L 1107.684172 359.546256 
L 1108.582394 360.626227 
L 1109.480615 356.846328 
L 1110.378834 356.846328 
L 1111.277052 358.466285 
L 1112.175269 356.846328 
L 1113.971698 356.846328 
L 1114.869911 353.606414 
L 1116.666334 353.606414 
L 1117.564543 344.966645 
L 1119.360957 344.966645 
L 1120.259163 337.946832 
L 1122.05557 337.946832 
L 1122.953772 336.326875 
L 1123.851972 329.847048 
L 1124.750171 329.847048 
L 1125.648369 325.527163 
L 1126.546566 323.367221 
L 1127.444761 323.367221 
L 1128.342955 321.747264 
L 1130.13934 321.747264 
L 1131.03753 317.967365 
L 1131.93572 317.967365 
L 1132.833907 317.427379 
L 1133.732094 320.667293 
L 1134.630279 320.667293 
L 1135.528463 326.067149 
L 1136.426646 339.026803 
L 1137.324828 339.026803 
L 1138.223008 344.426659 
L 1139.121187 353.066429 
L 1140.019365 353.066429 
L 1140.917542 354.686386 
L 1141.815717 357.926299 
L 1143.612064 357.926299 
L 1144.510236 356.846328 
L 1146.294071 356.846328 
L 1147.16166 358.466285 
L 1148.896833 358.466285 
L 1149.764417 354.1464 
L 1150.632 357.386314 
L 1150.632 357.386314 
" clip-path="url(#p205a1bdfd5)" style="fill: none; stroke-dasharray: 5.55,2.4; stroke-dashoffset: 0; stroke: #808080; stroke-width: 1.5"/>
   </g>
   <g id="line2d_27">
    <path d="M 213.192 466.463405 
L 214.081587 462.14352 
L 215.860756 462.14352 
L 216.750339 445.943952 
L 218.5295 445.943952 
L 219.419079 448.64388 
L 221.198233 448.64388 
L 222.087808 470.243304 
L 223.866954 470.243304 
L 224.756525 476.183146 
L 226.535662 476.183146 
L 227.425229 479.963045 
L 230.093922 479.963045 
L 230.983484 481.043016 
L 234.346952 481.043016 
L 235.178683 482.122987 
L 236.010411 482.122987 
L 236.829092 484.822915 
L 240.642264 484.822915 
L 241.404895 483.202958 
L 242.167525 483.202958 
L 242.930154 484.822915 
L 243.692781 484.822915 
L 244.455408 484.28293 
L 248.268523 484.28293 
L 249.031142 483.742944 
L 249.785976 484.28293 
L 255.70181 484.28293 
L 256.441287 482.662973 
L 259.399191 482.662973 
L 260.138666 484.28293 
L 260.87814 484.28293 
L 261.617614 482.662973 
L 262.357088 482.662973 
L 263.096561 481.583002 
L 263.836033 481.583002 
L 264.575506 479.963045 
L 266.078913 479.963045 
L 266.830998 480.50303 
L 267.583082 480.50303 
L 268.335164 479.963045 
L 269.087247 479.963045 
L 269.839328 479.423059 
L 270.591408 479.423059 
L 271.343487 477.263117 
L 275.855943 477.263117 
L 276.608016 478.343088 
L 278.112694 478.343088 
L 278.906836 475.103174 
L 282.083387 475.103174 
L 282.877521 474.563189 
L 283.671654 474.563189 
L 284.465785 475.103174 
L 286.848169 475.103174 
L 287.642295 473.483218 
L 288.436419 472.403246 
L 289.951057 472.403246 
L 290.703932 471.323275 
L 291.456805 471.323275 
L 292.209678 469.703318 
L 292.946019 469.703318 
L 293.683995 467.543376 
L 294.42197 467.543376 
L 295.159946 469.703318 
L 296.635899 469.703318 
L 297.373876 467.543376 
L 298.111854 467.543376 
L 298.849831 464.303462 
L 299.587809 464.303462 
L 300.325788 459.443592 
L 301.063767 459.443592 
L 301.801746 454.583722 
L 303.277705 454.583722 
L 304.015685 452.963765 
L 304.753665 452.963765 
L 305.491646 458.363621 
L 306.229627 458.363621 
L 306.967608 465.383434 
L 307.70559 465.383434 
L 308.443572 469.163333 
L 309.181555 469.163333 
L 309.919537 465.923419 
L 311.395504 465.923419 
L 312.133488 461.603534 
L 312.871472 458.363621 
L 313.609456 454.583722 
L 314.347441 454.583722 
L 315.085426 455.663693 
L 315.823412 455.663693 
L 316.554276 457.28365 
L 317.300428 457.28365 
L 318.046579 450.803822 
L 318.79273 451.343808 
L 319.53888 451.343808 
L 320.285028 455.123707 
L 321.031177 455.123707 
L 321.777324 457.28365 
L 323.269617 457.28365 
L 324.015762 459.443592 
L 324.761906 459.443592 
L 325.50805 462.14352 
L 326.254193 462.14352 
L 327.000335 461.603534 
L 327.746476 454.043736 
L 328.492617 452.423779 
L 329.984895 452.423779 
L 330.731034 444.863981 
L 331.477171 444.863981 
L 332.223308 438.384154 
L 332.969444 438.384154 
L 333.715579 440.00411 
L 334.461714 440.00411 
L 335.207848 444.323995 
L 336.700113 444.323995 
L 337.446244 436.764197 
L 338.192375 436.764197 
L 338.938505 445.403966 
L 339.684634 445.403966 
L 340.430763 452.963765 
L 341.923017 452.963765 
L 342.669143 461.603534 
L 343.415269 461.603534 
L 344.161393 465.923419 
L 344.907517 465.923419 
L 345.65364 467.00339 
L 346.399763 467.00339 
L 347.145884 461.063549 
L 350.130363 461.063549 
L 350.876481 463.223491 
L 351.622598 463.223491 
L 352.368714 464.843448 
L 353.11483 464.843448 
L 353.860945 464.303462 
L 355.353172 464.303462 
L 356.101767 463.763477 
L 356.853234 463.763477 
L 357.604699 461.603534 
L 358.356164 461.603534 
L 359.107628 463.223491 
L 360.602297 463.223491 
L 361.347291 461.063549 
L 362.092283 461.063549 
L 362.837275 462.14352 
L 365.072246 462.14352 
L 365.817235 464.303462 
L 367.307211 464.303462 
L 368.052198 462.683506 
L 368.797184 462.683506 
L 369.542169 460.523563 
L 370.287154 460.523563 
L 371.032138 458.363621 
L 371.777121 458.363621 
L 372.522103 456.203678 
L 374.012066 456.203678 
L 374.757046 454.583722 
L 375.502026 456.203678 
L 376.238682 454.583722 
L 376.975319 454.583722 
L 377.711957 452.423779 
L 378.448594 452.423779 
L 379.185231 450.263837 
L 380.658504 450.263837 
L 381.39514 448.64388 
L 382.131776 448.64388 
L 382.868412 447.023923 
L 383.605048 447.023923 
L 384.341683 444.323995 
L 385.078319 444.323995 
L 385.814954 441.624067 
L 387.288224 441.624067 
L 388.024858 437.304182 
L 388.761493 437.304182 
L 389.498127 434.064269 
L 390.234761 434.064269 
L 390.971395 436.224211 
L 391.708029 436.224211 
L 392.444662 440.00411 
L 393.917929 440.00411 
L 394.654562 438.384154 
L 395.391194 438.384154 
L 396.127827 437.844168 
L 396.864459 437.844168 
L 397.601091 436.224211 
L 398.337723 436.224211 
L 399.074355 433.524283 
L 402.02088 433.524283 
L 402.757511 434.064269 
L 403.494142 434.064269 
L 404.230772 431.364341 
L 404.963011 431.364341 
L 405.710402 428.124427 
L 406.457794 428.124427 
L 407.205186 426.50447 
L 408.699974 426.50447 
L 409.447369 427.584442 
L 410.194765 427.584442 
L 410.942162 425.964485 
L 411.689559 425.964485 
L 412.436957 422.184586 
L 413.931756 422.184586 
L 414.679157 424.884514 
L 415.426558 424.884514 
L 416.173961 424.344528 
L 416.921364 424.344528 
L 417.711043 422.184586 
L 418.521191 422.184586 
L 419.33134 420.024643 
L 420.141491 421.6446 
L 420.951643 421.6446 
L 421.761797 426.50447 
L 422.571952 427.044456 
L 423.382109 427.044456 
L 424.192267 430.824355 
L 425.002427 430.824355 
L 425.812589 432.444312 
L 426.622751 436.224211 
L 427.432916 436.224211 
L 428.243082 432.984298 
L 429.05325 432.984298 
L 429.863419 435.14424 
L 431.483762 435.14424 
L 432.293935 436.764197 
L 433.169718 436.764197 
L 434.082697 437.304182 
L 434.995676 438.384154 
L 435.908657 435.684226 
L 437.734623 435.684226 
L 438.647607 431.364341 
L 440.473579 431.364341 
L 441.386567 430.824355 
L 443.212546 430.824355 
L 444.125537 432.444312 
L 445.038529 427.584442 
L 445.951523 427.584442 
L 446.864517 428.664413 
L 447.777513 425.424499 
L 448.692049 425.424499 
L 449.645013 427.584442 
L 450.597978 427.584442 
L 451.550945 430.824355 
L 452.503911 428.664413 
L 453.456879 428.664413 
L 454.409847 432.444312 
L 455.362816 432.444312 
L 456.315786 429.204398 
L 457.268757 432.984298 
L 458.221728 432.984298 
L 459.1747 434.064269 
L 460.127673 434.064269 
L 461.080647 431.364341 
L 462.033621 432.444312 
L 463.939572 432.444312 
L 464.892549 430.28437 
L 465.845526 430.28437 
L 466.798505 432.444312 
L 468.704463 432.444312 
L 469.657444 430.28437 
L 470.610425 430.28437 
L 471.563407 431.904326 
L 472.51639 431.904326 
L 473.469373 428.124427 
L 474.422358 431.904326 
L 475.375343 431.904326 
L 476.328329 427.584442 
L 478.234302 427.584442 
L 479.187291 424.344528 
L 480.140279 424.344528 
L 481.093269 419.484658 
L 482.046259 420.564629 
L 482.999251 420.564629 
L 483.952243 414.624787 
L 484.905235 414.624787 
L 485.858229 416.244744 
L 486.811223 410.304902 
L 487.764218 410.304902 
L 488.717213 410.844888 
L 489.67021 410.844888 
L 490.623207 408.684946 
L 491.576205 420.024643 
L 492.529204 420.024643 
L 493.482203 429.744384 
L 494.435204 430.28437 
L 495.388205 430.28437 
L 496.341207 434.064269 
L 498.247212 434.064269 
L 499.200217 433.524283 
L 500.153221 433.524283 
L 501.106227 436.224211 
L 502.059233 436.224211 
L 503.01224 434.064269 
L 503.965248 436.224211 
L 504.918257 436.224211 
L 505.871266 436.764197 
L 506.824277 436.764197 
L 507.66803 436.224211 
L 508.426515 436.224211 
L 509.185 434.604254 
L 510.701974 434.604254 
L 511.460463 432.444312 
L 512.218953 432.444312 
L 512.977444 429.204398 
L 513.735935 429.204398 
L 514.494428 428.124427 
L 515.252922 428.124427 
L 516.002913 432.444312 
L 516.741698 430.28437 
L 517.480484 430.28437 
L 518.219269 427.044456 
L 518.958055 427.044456 
L 519.696842 425.424499 
L 520.435628 425.424499 
L 521.174416 427.584442 
L 522.651991 427.584442 
L 523.390779 428.664413 
L 524.129568 428.664413 
L 524.868357 429.744384 
L 525.607147 429.744384 
L 526.345936 431.364341 
L 527.084727 431.364341 
L 527.8212 433.524283 
L 528.557765 433.524283 
L 529.294329 434.064269 
L 530.767458 434.064269 
L 531.504022 435.14424 
L 532.240586 435.14424 
L 532.97715 434.604254 
L 533.713714 434.604254 
L 534.450273 435.14424 
L 535.188162 435.14424 
L 535.926052 436.224211 
L 537.40183 436.224211 
L 538.139718 435.684226 
L 538.877607 435.684226 
L 539.615495 436.764197 
L 540.353382 436.764197 
L 541.09127 435.14424 
L 544.042816 435.14424 
L 544.780702 436.224211 
L 545.518588 436.224211 
L 546.256473 435.684226 
L 546.994358 435.684226 
L 547.732243 434.604254 
L 550.683778 434.604254 
L 551.421662 433.524283 
L 552.159544 433.524283 
L 552.897427 430.28437 
L 553.635309 430.28437 
L 554.373191 431.364341 
L 555.111073 431.364341 
L 555.848954 433.524283 
L 558.800477 433.524283 
L 559.538357 435.684226 
L 561.751995 435.684226 
L 562.489873 436.764197 
L 563.96563 436.764197 
L 564.703508 433.524283 
L 565.438031 433.524283 
L 566.17653 430.824355 
L 566.915029 430.824355 
L 567.65882 431.904326 
L 568.402812 431.904326 
L 569.146804 430.28437 
L 572.12278 430.28437 
L 572.866776 432.444312 
L 573.610772 436.224211 
L 574.354769 436.764197 
L 575.098766 436.764197 
L 575.842765 434.604254 
L 581.794775 434.604254 
L 582.538779 435.684226 
L 584.025939 435.684226 
L 584.76945 436.764197 
L 588.487016 436.764197 
L 589.230532 435.14424 
L 590.717564 435.14424 
L 591.461081 433.524283 
L 592.207227 433.524283 
L 592.955867 434.604254 
L 593.704509 434.604254 
L 594.453151 433.524283 
L 595.201795 432.984298 
L 595.950439 432.984298 
L 596.699083 434.604254 
L 597.447729 434.604254 
L 598.196376 434.064269 
L 600.44232 434.064269 
L 601.19097 433.524283 
L 602.688272 433.524283 
L 603.436924 431.364341 
L 604.185577 430.28437 
L 604.934231 430.824355 
L 605.682886 430.824355 
L 606.431542 429.204398 
L 607.180198 429.204398 
L 607.928856 428.664413 
L 609.426173 428.664413 
L 610.174832 428.124427 
L 610.923493 428.124427 
L 611.672155 425.964485 
L 612.420817 415.164773 
L 613.16948 414.084802 
L 614.666809 414.084802 
L 615.435614 413.544816 
L 616.204432 413.544816 
L 616.973251 414.084802 
L 617.742072 414.084802 
L 619.279717 415.164773 
L 620.048541 415.164773 
L 620.817366 415.704758 
L 621.586193 415.704758 
L 622.355021 414.624787 
L 623.12385 414.624787 
L 623.89268 415.164773 
L 624.661512 414.624787 
L 625.430345 414.624787 
L 626.199179 417.324715 
L 626.968014 417.324715 
L 627.736851 420.564629 
L 628.522823 420.564629 
L 629.32713 416.78473 
L 630.131437 425.964485 
L 630.935746 425.964485 
L 631.740057 429.744384 
L 632.544369 429.744384 
L 633.348683 435.14424 
L 634.152998 434.604254 
L 634.957315 434.604254 
L 635.761633 431.364341 
L 636.565953 431.364341 
L 637.384057 435.684226 
L 638.211829 436.224211 
L 639.039602 436.224211 
L 639.867376 434.604254 
L 640.695153 437.844168 
L 641.52293 437.844168 
L 642.350709 435.684226 
L 643.17849 435.684226 
L 644.006273 439.464125 
L 647.264697 439.464125 
L 648.068996 442.164053 
L 649.677596 442.164053 
L 650.481899 443.78401 
L 651.286203 444.323995 
L 652.090509 444.323995 
L 652.894816 443.78401 
L 657.720691 443.78401 
L 658.492201 443.244024 
L 659.26132 443.244024 
L 660.030441 443.78401 
L 660.799562 442.164053 
L 661.568685 442.164053 
L 662.33781 438.924139 
L 663.106935 438.924139 
L 663.876062 437.844168 
L 664.64519 437.844168 
L 665.414319 438.384154 
L 666.183449 437.844168 
L 666.952581 437.844168 
L 667.721714 436.764197 
L 670.02912 436.764197 
L 670.798258 438.384154 
L 671.567397 438.924139 
L 672.336538 438.924139 
L 673.105679 438.384154 
L 675.413111 438.384154 
L 676.182258 440.544096 
L 676.951406 438.384154 
L 677.720555 438.384154 
L 678.489705 431.364341 
L 680.028009 431.364341 
L 680.797164 428.124427 
L 681.566319 433.524283 
L 682.335475 425.964485 
L 683.104633 425.964485 
L 683.873792 421.104614 
L 685.412114 421.104614 
L 686.181276 422.184586 
L 686.95044 423.804542 
L 688.488772 423.804542 
L 689.25794 422.184586 
L 690.796279 422.184586 
L 692.334623 429.744384 
L 693.106337 431.904326 
L 693.880141 431.904326 
L 694.653947 431.364341 
L 696.201562 431.364341 
L 696.975372 431.904326 
L 698.55077 434.064269 
L 700.152955 434.064269 
L 700.954049 430.824355 
L 701.755145 437.844168 
L 702.556243 435.684226 
L 704.158442 435.684226 
L 704.959544 434.604254 
L 705.760648 440.00411 
L 706.561753 439.464125 
L 708.163967 439.464125 
L 708.965077 436.764197 
L 709.766188 440.00411 
L 710.5673 439.464125 
L 712.16953 439.464125 
L 714.572885 437.844168 
L 716.17513 437.844168 
L 716.976254 435.14424 
L 717.77738 439.464125 
L 718.578508 440.00411 
L 720.180767 440.00411 
L 720.981899 439.464125 
L 721.783033 440.00411 
L 722.584168 438.924139 
L 725.235745 438.924139 
L 726.226743 438.384154 
L 727.217742 441.084082 
L 728.20874 441.084082 
L 729.199739 440.00411 
L 731.181738 440.00411 
L 732.172738 440.544096 
L 736.136741 440.544096 
L 737.127742 439.464125 
L 738.118744 439.464125 
L 739.109746 440.544096 
L 740.100749 438.924139 
L 741.091751 438.384154 
L 743.073758 438.384154 
L 744.064762 437.844168 
L 745.055766 437.844168 
L 746.04677 435.684226 
L 747.037775 436.764197 
L 748.02878 431.904326 
L 750.01079 431.904326 
L 751.001796 428.124427 
L 751.992803 428.124427 
L 752.983809 422.724571 
L 753.974816 425.964485 
L 754.965823 423.264557 
L 756.947839 423.264557 
L 757.938847 417.864701 
L 758.929855 417.864701 
L 759.920864 415.164773 
L 760.911873 415.164773 
L 761.902883 414.624787 
L 763.39147 414.624787 
L 764.14557 412.464845 
L 764.89967 412.464845 
L 765.653772 413.544816 
L 766.407875 413.544816 
L 767.161978 416.244744 
L 768.670188 416.244744 
L 769.424295 411.384874 
L 770.169345 411.384874 
L 770.906462 413.00483 
L 771.64358 413.00483 
L 772.380698 415.704758 
L 773.117816 415.704758 
L 773.854934 416.78473 
L 774.592052 416.78473 
L 775.329171 418.404686 
L 776.803408 418.404686 
L 777.540527 418.944672 
L 778.277645 418.944672 
L 779.014764 419.484658 
L 779.751883 419.484658 
L 780.489003 421.6446 
L 781.226122 421.6446 
L 781.963241 424.884514 
L 783.437481 424.884514 
L 784.1746 423.804542 
L 786.38596 423.804542 
L 787.123081 424.884514 
L 790.071563 424.884514 
L 790.808684 425.424499 
L 791.545805 425.424499 
L 792.282926 425.964485 
L 794.49429 425.964485 
L 795.231411 426.50447 
L 798.179899 426.50447 
L 798.917021 428.664413 
L 799.654143 428.664413 
L 800.391265 430.28437 
L 801.128388 430.28437 
L 801.86551 430.824355 
L 806.302678 430.824355 
L 807.829588 429.744384 
L 810.119961 429.744384 
L 810.883421 430.28437 
L 813.173807 430.28437 
L 813.937534 428.124427 
L 815.468452 428.124427 
L 816.233913 427.584442 
L 816.999375 427.584442 
L 817.764839 428.124427 
L 818.530303 428.124427 
L 819.295769 426.50447 
L 820.826704 426.50447 
L 821.592173 427.044456 
L 822.357644 427.044456 
L 823.123115 428.124427 
L 823.888588 428.124427 
L 824.654062 428.664413 
L 825.417 426.50447 
L 826.15737 426.50447 
L 826.897741 425.424499 
L 829.118855 425.424499 
L 829.859227 424.884514 
L 830.5996 424.884514 
L 831.339973 424.344528 
L 832.820721 424.344528 
L 833.561096 423.804542 
L 834.301471 423.804542 
L 835.041846 422.724571 
L 837.262976 422.724571 
L 838.003353 422.184586 
L 841.016616 422.184586 
L 841.817806 420.564629 
L 843.483979 420.564629 
L 844.382105 422.184586 
L 846.178352 422.184586 
L 847.076473 423.264557 
L 848.872713 423.264557 
L 849.77083 422.724571 
L 851.567062 422.724571 
L 852.465176 422.184586 
L 853.363289 421.104614 
L 854.261401 421.104614 
L 855.159511 421.6446 
L 856.05762 420.564629 
L 856.955728 420.564629 
L 857.853834 418.944672 
L 858.751939 417.864701 
L 859.650043 417.864701 
L 860.548146 420.564629 
L 861.446248 420.564629 
L 862.344348 422.184586 
L 864.140544 422.184586 
L 865.038641 421.6446 
L 865.936736 422.724571 
L 869.733416 422.724571 
L 870.705289 424.884514 
L 871.677162 424.884514 
L 872.649034 423.804542 
L 873.620906 425.424499 
L 874.592777 425.424499 
L 875.564648 427.584442 
L 877.508388 427.584442 
L 878.480257 426.50447 
L 879.452125 426.50447 
L 880.423993 427.584442 
L 882.367728 427.584442 
L 883.339594 428.664413 
L 887.227053 428.664413 
L 888.198917 430.28437 
L 889.17078 430.28437 
L 890.142642 429.204398 
L 894.030087 429.204398 
L 895.001946 429.744384 
L 897.917522 429.744384 
L 898.88938 430.824355 
L 899.861237 431.364341 
L 908.607924 431.364341 
L 909.579776 428.664413 
L 910.551627 428.664413 
L 911.523477 429.744384 
L 913.467176 429.744384 
L 914.418443 431.364341 
L 915.357215 431.364341 
L 916.295986 431.904326 
L 918.173525 431.904326 
L 919.112293 432.444312 
L 920.989826 432.444312 
L 921.928592 432.984298 
L 922.867356 431.904326 
L 923.80612 431.364341 
L 925.683644 431.364341 
L 926.622405 429.744384 
L 928.499924 429.744384 
L 929.438682 430.28437 
L 933.193706 430.28437 
L 934.132459 430.824355 
L 936.009964 430.824355 
L 936.948715 429.204398 
L 937.887465 429.204398 
L 938.826214 429.744384 
L 940.703709 429.744384 
L 941.642455 431.364341 
L 943.519945 431.364341 
L 944.458689 430.824355 
L 945.397432 429.744384 
L 948.213654 429.744384 
L 949.152394 428.664413 
L 950.931121 428.664413 
L 951.765781 429.204398 
L 953.435097 429.204398 
L 954.269753 428.664413 
L 955.104406 427.584442 
L 955.939059 427.584442 
L 956.77371 427.044456 
L 957.608359 427.044456 
L 958.443007 427.584442 
L 960.112298 427.584442 
L 960.946941 426.50447 
L 961.781583 427.044456 
L 964.285498 427.044456 
L 965.120134 426.50447 
L 965.954768 425.424499 
L 966.7894 425.424499 
L 967.624031 426.50447 
L 971.797162 426.50447 
L 972.631784 427.044456 
L 973.466404 427.044456 
L 974.301022 425.964485 
L 975.135639 426.50447 
L 975.970254 426.50447 
L 976.804868 424.884514 
L 977.639481 424.884514 
L 978.474091 424.344528 
L 980.977915 424.344528 
L 981.812519 423.804542 
L 982.647122 423.804542 
L 983.481724 422.724571 
L 984.316324 422.724571 
L 985.150922 422.184586 
L 985.985519 421.104614 
L 987.654708 421.104614 
L 988.489301 420.024643 
L 989.323891 420.024643 
L 990.158481 419.484658 
L 990.993068 419.484658 
L 991.827654 418.944672 
L 992.662239 417.324715 
L 994.331404 417.324715 
L 995.165983 418.944672 
L 996.000562 418.944672 
L 996.835139 417.864701 
L 997.669714 417.864701 
L 998.504288 419.484658 
L 1001.008 419.484658 
L 1001.842568 417.864701 
L 1002.677134 417.864701 
L 1003.511698 417.324715 
L 1004.346261 417.324715 
L 1006.015383 416.244744 
L 1007.684498 416.244744 
L 1008.519053 416.78473 
L 1011.02271 416.78473 
L 1011.857259 416.244744 
L 1012.691806 416.78473 
L 1013.61056 416.78473 
L 1014.547509 415.164773 
L 1015.484457 415.164773 
L 1016.421405 414.624787 
L 1017.358351 413.00483 
L 1019.232241 413.00483 
L 1020.169184 410.304902 
L 1021.106127 410.304902 
L 1022.044603 406.525003 
L 1024.038505 406.525003 
L 1025.035456 400.585162 
L 1026.032406 396.805262 
L 1027.029356 391.405406 
L 1028.026306 391.405406 
L 1029.023255 390.865421 
L 1031.022262 390.865421 
L 1032.022105 391.405406 
L 1033.021948 391.405406 
L 1034.02179 391.945392 
L 1035.021632 394.64532 
L 1036.021474 394.105334 
L 1037.021316 394.105334 
L 1038.021158 392.485378 
L 1040.02084 392.485378 
L 1041.020681 393.025363 
L 1042.020522 393.025363 
L 1043.020363 395.725291 
L 1044.020203 395.725291 
L 1045.020043 391.945392 
L 1047.019723 391.945392 
L 1048.019562 386.545536 
L 1049.019402 386.545536 
L 1050.019241 383.845608 
L 1051.01908 383.845608 
L 1052.018919 379.525723 
L 1054.018596 379.525723 
L 1055.018434 386.00555 
L 1056.018272 386.00555 
L 1057.018109 389.245464 
L 1058.017947 389.245464 
L 1059.017784 386.545536 
L 1060.017621 386.545536 
L 1061.017458 384.925579 
L 1062.017295 381.14568 
L 1063.017131 381.14568 
L 1064.016968 377.905766 
L 1065.016804 377.905766 
L 1066.01664 372.50591 
L 1068.016311 372.50591 
L 1069.016146 364.406126 
L 1069.957724 364.946112 
L 1070.855999 358.466285 
L 1071.754272 358.466285 
L 1072.652544 360.086242 
L 1073.550815 351.446472 
L 1075.347352 351.446472 
L 1076.245619 340.64676 
L 1078.04215 340.64676 
L 1078.940413 333.086962 
L 1080.736935 333.086962 
L 1081.635195 324.447192 
L 1083.43171 324.447192 
L 1084.329966 314.187466 
L 1085.22822 313.64748 
L 1086.126473 313.64748 
L 1087.024725 309.867581 
L 1088.821225 309.867581 
L 1089.719473 310.947552 
L 1090.61772 309.867581 
L 1091.515966 309.867581 
L 1092.41421 310.407566 
L 1093.312453 310.407566 
L 1094.210695 309.867581 
L 1095.108936 315.267437 
L 1096.007175 315.267437 
L 1096.905413 315.807422 
L 1097.80365 312.567509 
L 1099.60012 312.567509 
L 1100.498353 309.867581 
L 1102.294815 309.867581 
L 1103.193045 308.78761 
L 1104.989499 308.78761 
L 1105.887725 308.247624 
L 1106.785949 305.547696 
L 1107.684172 305.547696 
L 1108.582394 306.627667 
L 1109.480615 302.847768 
L 1110.378834 302.847768 
L 1111.277052 304.467725 
L 1112.175269 302.847768 
L 1113.971698 302.847768 
L 1114.869911 299.607854 
L 1116.666334 299.607854 
L 1117.564543 290.968085 
L 1119.360957 290.968085 
L 1120.259163 283.948272 
L 1122.05557 283.948272 
L 1122.953772 282.328315 
L 1123.851972 275.848488 
L 1124.750171 275.848488 
L 1125.648369 271.528603 
L 1126.546566 269.368661 
L 1127.444761 269.368661 
L 1128.342955 267.748704 
L 1130.13934 267.748704 
L 1131.03753 263.968805 
L 1131.93572 263.968805 
L 1132.833907 263.428819 
L 1133.732094 266.668733 
L 1134.630279 266.668733 
L 1135.528463 272.068589 
L 1136.426646 285.028243 
L 1137.324828 285.028243 
L 1138.223008 290.428099 
L 1139.121187 299.067869 
L 1140.019365 299.067869 
L 1140.917542 300.687826 
L 1141.815717 303.927739 
L 1143.612064 303.927739 
L 1144.510236 302.847768 
L 1146.294071 302.847768 
L 1147.16166 304.467725 
L 1148.896833 304.467725 
L 1149.764417 300.14784 
L 1150.632 303.387754 
L 1150.632 303.387754 
" clip-path="url(#p205a1bdfd5)" style="fill: none; stroke-dasharray: 5.55,2.4; stroke-dashoffset: 0; stroke: #808080; stroke-width: 1.5"/>
   </g>
   <g id="line2d_28">
    <path d="M 213.192 531.261677 
L 214.081587 474.293196 
L 232.683488 445.943952 
L 237.591729 437.844168 
L 239.116999 435.14424 
L 1006.015383 435.14424 
L 1013.61056 422.994564 
L 1024.038505 408.14496 
L 1064.016968 354.1464 
L 1072.652544 354.1464 
L 1108.582394 300.14784 
L 1114.869911 300.14784 
L 1148.896833 351.446472 
L 1150.632 354.1464 
L 1150.632 354.1464 
" clip-path="url(#p205a1bdfd5)" style="fill: none; stroke: #ff7f0e; stroke-width: 1.5; stroke-linecap: square"/>
   </g>
   <g id="patch_3">
    <path d="M 166.32 624.1392 
L 166.32 84.1536 
" style="fill: none; stroke: #000000; stroke-width: 0.8; stroke-linejoin: miter; stroke-linecap: square"/>
   </g>
   <g id="patch_4">
    <path d="M 1197.504 624.1392 
L 1197.504 84.1536 
" style="fill: none; stroke: #000000; stroke-width: 0.8; stroke-linejoin: miter; stroke-linecap: square"/>
   </g>
   <g id="patch_5">
    <path d="M 166.32 624.1392 
L 1197.504 624.1392 
" style="fill: none; stroke: #000000; stroke-width: 0.8; stroke-linejoin: miter; stroke-linecap: square"/>
   </g>
   <g id="patch_6">
    <path d="M 166.32 84.1536 
L 1197.504 84.1536 
" style="fill: none; stroke: #000000; stroke-width: 0.8; stroke-linejoin: miter; stroke-linecap: square"/>
   </g>
   <g id="text_18">
    <!-- HPP -->
    <g transform="translate(203.402156 541.261677)scale(0.1 -0.1)">
     <defs>
      <path id="DejaVuSans-48" d="M 628 4666 
L 1259 4666 
L 1259 2753 
L 3553 2753 
L 3553 4666 
L 4184 4666 
L 4184 0 
L 3553 0 
L 3553 2222 
L 1259 2222 
L 1259 0 
L 628 0 
L 628 4666 
z
" transform="scale(0.015625)"/>
      <path id="DejaVuSans-50" d="M 1259 4147 
L 1259 2394 
L 2053 2394 
Q 2494 2394 2734 2622 
Q 2975 2850 2975 3272 
Q 2975 3691 2734 3919 
Q 2494 4147 2053 4147 
L 1259 4147 
z
M 628 4666 
L 2053 4666 
Q 2838 4666 3239 4311 
Q 3641 3956 3641 3272 
Q 3641 2581 3239 2228 
Q 2838 1875 2053 1875 
L 1259 1875 
L 1259 0 
L 628 0 
L 628 4666 
z
" transform="scale(0.015625)"/>
     </defs>
     <use xlink:href="#DejaVuSans-48"/>
     <use xlink:href="#DejaVuSans-50" x="75.195312"/>
     <use xlink:href="#DejaVuSans-50" x="135.498047"/>
    </g>
   </g>
   <g id="text_19">
    <!-- CEAM -->
    <g transform="translate(1136.246844 363.186026)scale(0.1 -0.1)">
     <defs>
      <path id="DejaVuSans-43" d="M 4122 4306 
L 4122 3641 
Q 3803 3938 3442 4084 
Q 3081 4231 2675 4231 
Q 1875 4231 1450 3742 
Q 1025 3253 1025 2328 
Q 1025 1406 1450 917 
Q 1875 428 2675 428 
Q 3081 428 3442 575 
Q 3803 722 4122 1019 
L 4122 359 
Q 3791 134 3420 21 
Q 3050 -91 2638 -91 
Q 1578 -91 968 557 
Q 359 1206 359 2328 
Q 359 3453 968 4101 
Q 1578 4750 2638 4750 
Q 3056 4750 3426 4639 
Q 3797 4528 4122 4306 
z
" transform="scale(0.015625)"/>
      <path id="DejaVuSans-41" d="M 2188 4044 
L 1331 1722 
L 3047 1722 
L 2188 4044 
z
M 1831 4666 
L 2547 4666 
L 4325 0 
L 3669 0 
L 3244 1197 
L 1141 1197 
L 716 0 
L 50 0 
L 1831 4666 
z
" transform="scale(0.015625)"/>
      <path id="DejaVuSans-4d" d="M 628 4666 
L 1569 4666 
L 2759 1491 
L 3956 4666 
L 4897 4666 
L 4897 0 
L 4281 0 
L 4281 4097 
L 3078 897 
L 2444 897 
L 1241 4097 
L 1241 0 
L 628 0 
L 628 4666 
z
" transform="scale(0.015625)"/>
     </defs>
     <use xlink:href="#DejaVuSans-43"/>
     <use xlink:href="#DejaVuSans-45" x="69.824219"/>
     <use xlink:href="#DejaVuSans-41" x="133.007812"/>
     <use xlink:href="#DejaVuSans-4d" x="201.416016"/>
    </g>
   </g>
   <g id="text_20">
    <!-- Elevation of the Terrain Along the Trajectory -->
    <g transform="translate(550.136062 78.1536)scale(0.12 -0.12)">
     <defs>
      <path id="DejaVuSans-66" d="M 2375 4863 
L 2375 4384 
L 1825 4384 
Q 1516 4384 1395 4259 
Q 1275 4134 1275 3809 
L 1275 3500 
L 2222 3500 
L 2222 3053 
L 1275 3053 
L 1275 0 
L 697 0 
L 697 3053 
L 147 3053 
L 147 3500 
L 697 3500 
L 697 3744 
Q 697 4328 969 4595 
Q 1241 4863 1831 4863 
L 2375 4863 
z
" transform="scale(0.015625)"/>
      <path id="DejaVuSans-68" d="M 3513 2113 
L 3513 0 
L 2938 0 
L 2938 2094 
Q 2938 2591 2744 2837 
Q 2550 3084 2163 3084 
Q 1697 3084 1428 2787 
Q 1159 2491 1159 1978 
L 1159 0 
L 581 0 
L 581 4863 
L 1159 4863 
L 1159 2956 
Q 1366 3272 1645 3428 
Q 1925 3584 2291 3584 
Q 2894 3584 3203 3211 
Q 3513 2838 3513 2113 
z
" transform="scale(0.015625)"/>
      <path id="DejaVuSans-54" d="M -19 4666 
L 3928 4666 
L 3928 4134 
L 2272 4134 
L 2272 0 
L 1638 0 
L 1638 4134 
L -19 4134 
L -19 4666 
z
" transform="scale(0.015625)"/>
      <path id="DejaVuSans-72" d="M 2631 2963 
Q 2534 3019 2420 3045 
Q 2306 3072 2169 3072 
Q 1681 3072 1420 2755 
Q 1159 2438 1159 1844 
L 1159 0 
L 581 0 
L 581 3500 
L 1159 3500 
L 1159 2956 
Q 1341 3275 1631 3429 
Q 1922 3584 2338 3584 
Q 2397 3584 2469 3576 
Q 2541 3569 2628 3553 
L 2631 2963 
z
" transform="scale(0.015625)"/>
      <path id="DejaVuSans-67" d="M 2906 1791 
Q 2906 2416 2648 2759 
Q 2391 3103 1925 3103 
Q 1463 3103 1205 2759 
Q 947 2416 947 1791 
Q 947 1169 1205 825 
Q 1463 481 1925 481 
Q 2391 481 2648 825 
Q 2906 1169 2906 1791 
z
M 3481 434 
Q 3481 -459 3084 -895 
Q 2688 -1331 1869 -1331 
Q 1566 -1331 1297 -1286 
Q 1028 -1241 775 -1147 
L 775 -588 
Q 1028 -725 1275 -790 
Q 1522 -856 1778 -856 
Q 2344 -856 2625 -561 
Q 2906 -266 2906 331 
L 2906 616 
Q 2728 306 2450 153 
Q 2172 0 1784 0 
Q 1141 0 747 490 
Q 353 981 353 1791 
Q 353 2603 747 3093 
Q 1141 3584 1784 3584 
Q 2172 3584 2450 3431 
Q 2728 3278 2906 2969 
L 2906 3500 
L 3481 3500 
L 3481 434 
z
" transform="scale(0.015625)"/>
      <path id="DejaVuSans-6a" d="M 603 3500 
L 1178 3500 
L 1178 -63 
Q 1178 -731 923 -1031 
Q 669 -1331 103 -1331 
L -116 -1331 
L -116 -844 
L 38 -844 
Q 366 -844 484 -692 
Q 603 -541 603 -63 
L 603 3500 
z
M 603 4863 
L 1178 4863 
L 1178 4134 
L 603 4134 
L 603 4863 
z
" transform="scale(0.015625)"/>
      <path id="DejaVuSans-79" d="M 2059 -325 
Q 1816 -950 1584 -1140 
Q 1353 -1331 966 -1331 
L 506 -1331 
L 506 -850 
L 844 -850 
Q 1081 -850 1212 -737 
Q 1344 -625 1503 -206 
L 1606 56 
L 191 3500 
L 800 3500 
L 1894 763 
L 2988 3500 
L 3597 3500 
L 2059 -325 
z
" transform="scale(0.015625)"/>
     </defs>
     <use xlink:href="#DejaVuSans-45"/>
     <use xlink:href="#DejaVuSans-6c" x="63.183594"/>
     <use xlink:href="#DejaVuSans-65" x="90.966797"/>
     <use xlink:href="#DejaVuSans-76" x="152.490234"/>
     <use xlink:href="#DejaVuSans-61" x="211.669922"/>
     <use xlink:href="#DejaVuSans-74" x="272.949219"/>
     <use xlink:href="#DejaVuSans-69" x="312.158203"/>
     <use xlink:href="#DejaVuSans-6f" x="339.941406"/>
     <use xlink:href="#DejaVuSans-6e" x="401.123047"/>
     <use xlink:href="#DejaVuSans-20" x="464.501953"/>
     <use xlink:href="#DejaVuSans-6f" x="496.289062"/>
     <use xlink:href="#DejaVuSans-66" x="557.470703"/>
     <use xlink:href="#DejaVuSans-20" x="592.675781"/>
     <use xlink:href="#DejaVuSans-74" x="624.462891"/>
     <use xlink:href="#DejaVuSans-68" x="663.671875"/>
     <use xlink:href="#DejaVuSans-65" x="727.050781"/>
     <use xlink:href="#DejaVuSans-20" x="788.574219"/>
     <use xlink:href="#DejaVuSans-54" x="820.361328"/>
     <use xlink:href="#DejaVuSans-65" x="864.445312"/>
     <use xlink:href="#DejaVuSans-72" x="925.96875"/>
     <use xlink:href="#DejaVuSans-72" x="965.332031"/>
     <use xlink:href="#DejaVuSans-61" x="1006.445312"/>
     <use xlink:href="#DejaVuSans-69" x="1067.724609"/>
     <use xlink:href="#DejaVuSans-6e" x="1095.507812"/>
     <use xlink:href="#DejaVuSans-20" x="1158.886719"/>
     <use xlink:href="#DejaVuSans-41" x="1190.673828"/>
     <use xlink:href="#DejaVuSans-6c" x="1259.082031"/>
     <use xlink:href="#DejaVuSans-6f" x="1286.865234"/>
     <use xlink:href="#DejaVuSans-6e" x="1348.046875"/>
     <use xlink:href="#DejaVuSans-67" x="1411.425781"/>
     <use xlink:href="#DejaVuSans-20" x="1474.902344"/>
     <use xlink:href="#DejaVuSans-74" x="1506.689453"/>
     <use xlink:href="#DejaVuSans-68" x="1545.898438"/>
     <use xlink:href="#DejaVuSans-65" x="1609.277344"/>
     <use xlink:href="#DejaVuSans-20" x="1670.800781"/>
     <use xlink:href="#DejaVuSans-54" x="1702.587891"/>
     <use xlink:href="#DejaVuSans-72" x="1748.921875"/>
     <use xlink:href="#DejaVuSans-61" x="1790.035156"/>
     <use xlink:href="#DejaVuSans-6a" x="1851.314453"/>
     <use xlink:href="#DejaVuSans-65" x="1879.097656"/>
     <use xlink:href="#DejaVuSans-63" x="1940.621094"/>
     <use xlink:href="#DejaVuSans-74" x="1995.601562"/>
     <use xlink:href="#DejaVuSans-6f" x="2034.810547"/>
     <use xlink:href="#DejaVuSans-72" x="2095.992188"/>
     <use xlink:href="#DejaVuSans-79" x="2137.105469"/>
    </g>
   </g>
  </g>
 </g>
 <defs>
  <clipPath id="p205a1bdfd5">
   <rect x="166.32" y="84.1536" width="1031.184" height="539.9856"/>
  </clipPath>
 </defs>
</svg>
