<?xml version="1.0" encoding="UTF-8" standalone="no"?>
<svg width="119.239mm" height="82.55mm"
 viewBox="0 0 338 234"
 xmlns="http://www.w3.org/2000/svg" xmlns:xlink="http://www.w3.org/1999/xlink"  version="1.2" baseProfile="tiny">
<title>Qt SVG Document</title>
<desc>MATLAB, The MathWorks, Inc. Version 25.1.0.2943329 R2025a</desc>
<defs>
</defs>
<g fill="none" stroke="black" stroke-width="1" fill-rule="evenodd" stroke-linecap="square" stroke-linejoin="bevel" >

<g fill="#ffffff" fill-opacity="1" stroke="none" transform="matrix(0.75749,0,0,0.75603,-21.7876,-3.96543)"
font-family="Sans Serif" font-size="9" font-weight="400" font-style="normal" 
>
<path vector-effect="none" fill-rule="evenodd" d="M27,4 L475,4 L475,314 L27,314 L27,4"/>
</g>

<g fill="#ffffff" fill-opacity="1" stroke="none" transform="matrix(7.5749e-05,0,0,7.5603e-05,-21.7876,-3.96543)"
font-family="Sans Serif" font-size="9" font-weight="400" font-style="normal" 
>
<path vector-effect="none" fill-rule="evenodd" d="M680000,230000 L680000,2.7e+06 L4.73e+06,2.7e+06 L4.73e+06,230000 L680000,230000"/>
</g>

<g fill="#212121" fill-opacity="0.14902" stroke="#212121" stroke-opacity="0.14902" stroke-width="0.659722" stroke-linecap="butt" stroke-linejoin="round" transform="matrix(0.75749,0,0,0.75603,-21.7876,-3.96543)"
font-family="Sans Serif" font-size="9" font-weight="400" font-style="normal" 
>
<polyline fill="none" vector-effect="none" points="108.5,23 108.5,270 " />
<polyline fill="none" vector-effect="none" points="189.5,23 189.5,270 " />
<polyline fill="none" vector-effect="none" points="270.5,23 270.5,270 " />
<polyline fill="none" vector-effect="none" points="351.5,23 351.5,270 " />
<polyline fill="none" vector-effect="none" points="432.5,23 432.5,270 " />
<polyline fill="none" vector-effect="none" points="68,265.041 473,265.041 " />
<polyline fill="none" vector-effect="none" points="68,188.713 473,188.713 " />
<polyline fill="none" vector-effect="none" points="68,112.386 473,112.386 " />
<polyline fill="none" vector-effect="none" points="68,36.0591 473,36.0591 " />
</g>

<g fill="#212121" fill-opacity="1" stroke="none" transform="matrix(0.75749,0,0,0.75603,172.13,226.624)"
font-family="Sans Serif" font-size="9" font-weight="400" font-style="normal" 
>
<path vector-effect="none" fill-rule="evenodd" d="M0.71875,-0.234375 C0.71875,-0.369792 0.776042,-0.5 0.890625,-0.625 L4.82813,-4.48438 L3.45313,-8.39063 C3.33854,-8.68229 3.22135,-8.91667 3.10156,-9.09375 C2.98177,-9.27083 2.80729,-9.35938 2.57813,-9.35938 C2.47396,-9.35938 2.42188,-9.41667 2.42188,-9.53125 C2.43229,-9.59375 2.45573,-9.64063 2.49219,-9.67188 C2.52865,-9.70313 2.57292,-9.71875 2.625,-9.71875 C3.61458,-9.71875 4.20833,-9.42708 4.40625,-8.84375 L7.25,-0.90625 C7.375,-0.510417 7.5,-0.244792 7.625,-0.109375 C7.67708,-0.0364583 7.70313,0.0104167 7.70313,0.03125 C7.70313,0.114583 7.66667,0.15625 7.59375,0.15625 L6.82813,0.15625 C6.59896,0.09375 6.41667,-0.109375 6.28125,-0.453125 L5,-4.03125 L1.60938,-0.0625 C1.44271,0.104167 1.29167,0.1875 1.15625,0.1875 C1.04167,0.1875 0.940104,0.145833 0.851563,0.0625 C0.763021,-0.0208333 0.71875,-0.119792 0.71875,-0.234375 "/>
</g>

<g fill="#212121" fill-opacity="1" stroke="none" transform="matrix(0.75749,0,0,0.75603,178.19,231.916)"
font-family="Sans Serif" font-size="9" font-weight="400" font-style="normal" 
>
<path vector-effect="none" fill-rule="evenodd" d="M5.10938,-1.60938 C5.10938,-1.05729 4.90104,-0.632813 4.48438,-0.335938 C4.06771,-0.0390625 3.48958,0.109375 2.75,0.109375 C2.02083,0.109375 1.46094,-0.0104167 1.07031,-0.25 C0.679688,-0.489583 0.427083,-0.859375 0.3125,-1.35938 L1.15625,-1.53125 C1.23958,-1.21875 1.41146,-0.989583 1.67188,-0.84375 C1.93229,-0.697917 2.29167,-0.625 2.75,-0.625 C3.23958,-0.625 3.59635,-0.700521 3.82031,-0.851563 C4.04427,-1.0026 4.15625,-1.22917 4.15625,-1.53125 C4.15625,-1.76042 4.07813,-1.94531 3.92188,-2.08594 C3.76563,-2.22656 3.51042,-2.34375 3.15625,-2.4375 L2.46875,-2.625 C1.91667,-2.77083 1.52344,-2.91146 1.28906,-3.04688 C1.05469,-3.18229 0.869792,-3.34896 0.734375,-3.54688 C0.598958,-3.74479 0.53125,-3.98958 0.53125,-4.28125 C0.53125,-4.8125 0.721354,-5.21615 1.10156,-5.49219 C1.48177,-5.76823 2.03125,-5.90625 2.75,-5.90625 C3.39583,-5.90625 3.90625,-5.79167 4.28125,-5.5625 C4.65625,-5.33333 4.89583,-4.97396 5,-4.48438 L4.125,-4.375 C4.07292,-4.63542 3.92969,-4.83333 3.69531,-4.96875 C3.46094,-5.10417 3.14583,-5.17188 2.75,-5.17188 C2.3125,-5.17188 1.99219,-5.10677 1.78906,-4.97656 C1.58594,-4.84635 1.48438,-4.64583 1.48438,-4.375 C1.48438,-4.20833 1.52604,-4.07031 1.60938,-3.96094 C1.69271,-3.85156 1.81771,-3.76042 1.98438,-3.6875 C2.15104,-3.61458 2.50521,-3.51042 3.04688,-3.375 C3.55729,-3.25 3.92708,-3.13281 4.15625,-3.02344 C4.38542,-2.91406 4.5651,-2.79167 4.69531,-2.65625 C4.82552,-2.52083 4.92708,-2.36719 5,-2.19531 C5.07292,-2.02344 5.10938,-1.82813 5.10938,-1.60938 M7.71875,0.109375 C7.13542,0.109375 6.69792,-0.0442708 6.40625,-0.351563 C6.11458,-0.658854 5.96875,-1.08333 5.96875,-1.625 C5.96875,-2.22917 6.16667,-2.6901 6.5625,-3.00781 C6.95833,-3.32552 7.59375,-3.5 8.46875,-3.53125 L9.78125,-3.54688 L9.78125,-3.85938 C9.78125,-4.33854 9.67969,-4.67969 9.47656,-4.88281 C9.27344,-5.08594 8.95833,-5.1875 8.53125,-5.1875 C8.10417,-5.1875 7.79167,-5.11458 7.59375,-4.96875 C7.39583,-4.82292 7.27604,-4.58854 7.23438,-4.26563 L6.21875,-4.34375 C6.38542,-5.39583 7.16667,-5.92188 8.5625,-5.92188 C9.29167,-5.92188 9.84115,-5.75521 10.2109,-5.42188 C10.5807,-5.08854 10.7656,-4.60417 10.7656,-3.96875 L10.7656,-1.46875 C10.7656,-1.17708 10.8021,-0.958333 10.875,-0.8125 C10.9479,-0.666667 11.0885,-0.59375 11.2969,-0.59375 C11.3906,-0.59375 11.5,-0.609375 11.625,-0.640625 L11.625,-0.03125 C11.375,0.0208333 11.125,0.046875 10.875,0.046875 C10.5104,0.046875 10.2474,-0.046875 10.0859,-0.234375 C9.92448,-0.421875 9.83333,-0.713542 9.8125,-1.10938 L9.78125,-1.10938 C9.53125,-0.671875 9.24219,-0.359375 8.91406,-0.171875 C8.58594,0.015625 8.1875,0.109375 7.71875,0.109375 M7.9375,-0.625 C8.29167,-0.625 8.60677,-0.703125 8.88281,-0.859375 C9.15885,-1.01563 9.3776,-1.23438 9.53906,-1.51563 C9.70052,-1.79688 9.78125,-2.08854 9.78125,-2.39063 L9.78125,-2.875 L8.71875,-2.84375 C8.27083,-2.84375 7.92969,-2.79948 7.69531,-2.71094 C7.46094,-2.6224 7.28125,-2.48958 7.15625,-2.3125 C7.03125,-2.13542 6.96875,-1.90104 6.96875,-1.60938 C6.96875,-1.29688 7.05208,-1.05469 7.21875,-0.882813 C7.38542,-0.710938 7.625,-0.625 7.9375,-0.625 M13.5469,-5.10938 L13.5469,0 L12.5781,0 L12.5781,-5.10938 L11.7656,-5.10938 L11.7656,-5.8125 L12.5781,-5.8125 L12.5781,-6.46875 C12.5781,-7 12.6953,-7.38021 12.9297,-7.60938 C13.1641,-7.83854 13.5208,-7.95313 14,-7.95313 C14.2708,-7.95313 14.5,-7.93229 14.6875,-7.89063 L14.6875,-7.15625 C14.5208,-7.1875 14.375,-7.20313 14.25,-7.20313 C14,-7.20313 13.8203,-7.14063 13.7109,-7.01563 C13.6016,-6.89063 13.5469,-6.66146 13.5469,-6.32813 L13.5469,-5.8125 L14.6875,-5.8125 L14.6875,-5.10938 L13.5469,-5.10938 M16.1406,-2.70313 C16.1406,-2.03646 16.2786,-1.52344 16.5547,-1.16406 C16.8307,-0.804688 17.2344,-0.625 17.7656,-0.625 C18.1823,-0.625 18.5156,-0.708333 18.7656,-0.875 C19.0156,-1.04167 19.1875,-1.25521 19.2813,-1.51563 L20.125,-1.26563 C19.7813,-0.348958 18.9948,0.109375 17.7656,0.109375 C16.901,0.109375 16.2448,-0.145833 15.7969,-0.65625 C15.349,-1.16667 15.125,-1.92708 15.125,-2.9375 C15.125,-3.90625 15.349,-4.64583 15.7969,-5.15625 C16.2448,-5.66667 16.8854,-5.92188 17.7188,-5.92188 C19.4271,-5.92188 20.2813,-4.89063 20.2813,-2.82813 L20.2813,-2.70313 L16.1406,-2.70313 M19.2813,-3.4375 C19.2292,-4.05208 19.0755,-4.5 18.8203,-4.78125 C18.5651,-5.0625 18.1927,-5.20313 17.7031,-5.20313 C17.2344,-5.20313 16.8646,-5.04688 16.5938,-4.73438 C16.3229,-4.42188 16.1771,-3.98958 16.1563,-3.4375 L19.2813,-3.4375"/>
</g>

<g fill="#212121" fill-opacity="1" stroke="#212121" stroke-opacity="1" stroke-width="0.659722" stroke-linecap="square" stroke-linejoin="round" transform="matrix(0.75749,0,0,0.75603,-21.7876,-3.96543)"
font-family="Sans Serif" font-size="9" font-weight="400" font-style="normal" 
>
<polyline fill="none" vector-effect="none" points="68,270 473,270 " />
<polyline fill="none" vector-effect="none" points="68,23 473,23 " />
<polyline fill="none" vector-effect="none" points="108.5,270 108.5,265.95 " />
<polyline fill="none" vector-effect="none" points="108.5,27.05 108.5,23 " />
<polyline fill="none" vector-effect="none" points="189.5,270 189.5,265.95 " />
<polyline fill="none" vector-effect="none" points="189.5,27.05 189.5,23 " />
<polyline fill="none" vector-effect="none" points="270.5,270 270.5,265.95 " />
<polyline fill="none" vector-effect="none" points="270.5,27.05 270.5,23 " />
<polyline fill="none" vector-effect="none" points="351.5,270 351.5,265.95 " />
<polyline fill="none" vector-effect="none" points="351.5,27.05 351.5,23 " />
<polyline fill="none" vector-effect="none" points="432.5,270 432.5,265.95 " />
<polyline fill="none" vector-effect="none" points="432.5,27.05 432.5,23 " />
</g>

<g fill="#212121" fill-opacity="1" stroke="none" transform="matrix(0.75749,0,0,0.75603,57.7489,213.225)"
font-family="Sans Serif" font-size="9" font-weight="400" font-style="normal" 
>
<path vector-effect="none" fill-rule="evenodd" d="M6.71875,-4.46875 C6.71875,-2.97917 6.45573,-1.84115 5.92969,-1.05469 C5.40365,-0.268229 4.625,0.125 3.59375,0.125 C2.57292,0.125 1.80469,-0.265625 1.28906,-1.04688 C0.773438,-1.82813 0.515625,-2.96875 0.515625,-4.46875 C0.515625,-6.01042 0.765625,-7.16406 1.26563,-7.92969 C1.76563,-8.69531 2.55729,-9.07813 3.64063,-9.07813 C4.69271,-9.07813 5.46875,-8.6901 5.96875,-7.91406 C6.46875,-7.13802 6.71875,-5.98958 6.71875,-4.46875 M5.5625,-4.46875 C5.5625,-5.76042 5.41406,-6.69792 5.11719,-7.28125 C4.82031,-7.86458 4.32813,-8.15625 3.64063,-8.15625 C2.93229,-8.15625 2.42448,-7.86979 2.11719,-7.29688 C1.8099,-6.72396 1.65625,-5.78125 1.65625,-4.46875 C1.65625,-3.20833 1.8125,-2.28385 2.125,-1.69531 C2.4375,-1.10677 2.93229,-0.8125 3.60938,-0.8125 C4.28646,-0.8125 4.78125,-1.11198 5.09375,-1.71094 C5.40625,-2.3099 5.5625,-3.22917 5.5625,-4.46875 "/>
</g>

<g fill="#212121" fill-opacity="1" stroke="none" transform="matrix(0.75749,0,0,0.75603,114.939,213.225)"
font-family="Sans Serif" font-size="9" font-weight="400" font-style="normal" 
>
<path vector-effect="none" fill-rule="evenodd" d="M6.71875,-4.46875 C6.71875,-2.97917 6.45573,-1.84115 5.92969,-1.05469 C5.40365,-0.268229 4.625,0.125 3.59375,0.125 C2.57292,0.125 1.80469,-0.265625 1.28906,-1.04688 C0.773438,-1.82813 0.515625,-2.96875 0.515625,-4.46875 C0.515625,-6.01042 0.765625,-7.16406 1.26563,-7.92969 C1.76563,-8.69531 2.55729,-9.07813 3.64063,-9.07813 C4.69271,-9.07813 5.46875,-8.6901 5.96875,-7.91406 C6.46875,-7.13802 6.71875,-5.98958 6.71875,-4.46875 M5.5625,-4.46875 C5.5625,-5.76042 5.41406,-6.69792 5.11719,-7.28125 C4.82031,-7.86458 4.32813,-8.15625 3.64063,-8.15625 C2.93229,-8.15625 2.42448,-7.86979 2.11719,-7.29688 C1.8099,-6.72396 1.65625,-5.78125 1.65625,-4.46875 C1.65625,-3.20833 1.8125,-2.28385 2.125,-1.69531 C2.4375,-1.10677 2.93229,-0.8125 3.60938,-0.8125 C4.28646,-0.8125 4.78125,-1.11198 5.09375,-1.71094 C5.40625,-2.3099 5.5625,-3.22917 5.5625,-4.46875 M8.40625,0 L8.40625,-1.39063 L9.64063,-1.39063 L9.64063,0 L8.40625,0 M17.4844,-2.46875 C17.4844,-1.64583 17.2214,-1.00781 16.6953,-0.554688 C16.1693,-0.101563 15.4219,0.125 14.4531,0.125 C13.5469,0.125 12.8229,-0.078125 12.2813,-0.484375 C11.7396,-0.890625 11.4219,-1.49479 11.3281,-2.29688 L12.5,-2.40625 C12.6563,-1.34375 13.3073,-0.8125 14.4531,-0.8125 C15.026,-0.8125 15.4766,-0.955729 15.8047,-1.24219 C16.1328,-1.52865 16.2969,-1.94792 16.2969,-2.5 C16.2969,-2.98958 16.1094,-3.3724 15.7344,-3.64844 C15.3594,-3.92448 14.8177,-4.0625 14.1094,-4.0625 L13.4688,-4.0625 L13.4688,-5.04688 L14.0938,-5.04688 C14.7188,-5.04688 15.2031,-5.18229 15.5469,-5.45313 C15.8906,-5.72396 16.0625,-6.10417 16.0625,-6.59375 C16.0625,-7.07292 15.9219,-7.45052 15.6406,-7.72656 C15.3594,-8.0026 14.9427,-8.14063 14.3906,-8.14063 C13.8906,-8.14063 13.4844,-8.01042 13.1719,-7.75 C12.8594,-7.48958 12.6771,-7.125 12.625,-6.65625 L11.4688,-6.75 C11.5625,-7.47917 11.8698,-8.04948 12.3906,-8.46094 C12.9115,-8.8724 13.5833,-9.07813 14.4063,-9.07813 C15.3021,-9.07813 15.9974,-8.86979 16.4922,-8.45313 C16.987,-8.03646 17.2344,-7.45313 17.2344,-6.70313 C17.2344,-6.14063 17.0755,-5.67969 16.7578,-5.32031 C16.4401,-4.96094 15.974,-4.71875 15.3594,-4.59375 L15.3594,-4.5625 C16.0365,-4.48958 16.5599,-4.26563 16.9297,-3.89063 C17.2995,-3.51563 17.4844,-3.04167 17.4844,-2.46875 "/>
</g>

<g fill="#212121" fill-opacity="1" stroke="none" transform="matrix(0.75749,0,0,0.75603,176.296,213.225)"
font-family="Sans Serif" font-size="9" font-weight="400" font-style="normal" 
>
<path vector-effect="none" fill-rule="evenodd" d="M6.71875,-4.46875 C6.71875,-2.97917 6.45573,-1.84115 5.92969,-1.05469 C5.40365,-0.268229 4.625,0.125 3.59375,0.125 C2.57292,0.125 1.80469,-0.265625 1.28906,-1.04688 C0.773438,-1.82813 0.515625,-2.96875 0.515625,-4.46875 C0.515625,-6.01042 0.765625,-7.16406 1.26563,-7.92969 C1.76563,-8.69531 2.55729,-9.07813 3.64063,-9.07813 C4.69271,-9.07813 5.46875,-8.6901 5.96875,-7.91406 C6.46875,-7.13802 6.71875,-5.98958 6.71875,-4.46875 M5.5625,-4.46875 C5.5625,-5.76042 5.41406,-6.69792 5.11719,-7.28125 C4.82031,-7.86458 4.32813,-8.15625 3.64063,-8.15625 C2.93229,-8.15625 2.42448,-7.86979 2.11719,-7.29688 C1.8099,-6.72396 1.65625,-5.78125 1.65625,-4.46875 C1.65625,-3.20833 1.8125,-2.28385 2.125,-1.69531 C2.4375,-1.10677 2.93229,-0.8125 3.60938,-0.8125 C4.28646,-0.8125 4.78125,-1.11198 5.09375,-1.71094 C5.40625,-2.3099 5.5625,-3.22917 5.5625,-4.46875 M8.40625,0 L8.40625,-1.39063 L9.64063,-1.39063 L9.64063,0 L8.40625,0 M17.5156,-2.90625 C17.5156,-1.96875 17.2344,-1.22917 16.6719,-0.6875 C16.1094,-0.145833 15.3333,0.125 14.3438,0.125 C13.5104,0.125 12.8359,-0.0572917 12.3203,-0.421875 C11.8047,-0.786458 11.4792,-1.3125 11.3438,-2 L12.5,-2.14063 C12.7396,-1.25521 13.3594,-0.8125 14.3594,-0.8125 C14.974,-0.8125 15.4557,-0.997396 15.8047,-1.36719 C16.1536,-1.73698 16.3281,-2.24479 16.3281,-2.89063 C16.3281,-3.45313 16.1536,-3.90885 15.8047,-4.25781 C15.4557,-4.60677 14.9844,-4.78125 14.3906,-4.78125 C14.0781,-4.78125 13.7891,-4.73177 13.5234,-4.63281 C13.2578,-4.53385 12.9896,-4.36458 12.7188,-4.125 L11.6094,-4.125 L11.9063,-8.9375 L16.9844,-8.9375 L16.9844,-7.96875 L12.9531,-7.96875 L12.7813,-5.14063 C13.2708,-5.51563 13.8854,-5.70313 14.625,-5.70313 C15.5,-5.70313 16.2005,-5.44531 16.7266,-4.92969 C17.2526,-4.41406 17.5156,-3.73958 17.5156,-2.90625 "/>
</g>

<g fill="#212121" fill-opacity="1" stroke="none" transform="matrix(0.75749,0,0,0.75603,237.653,213.225)"
font-family="Sans Serif" font-size="9" font-weight="400" font-style="normal" 
>
<path vector-effect="none" fill-rule="evenodd" d="M6.71875,-4.46875 C6.71875,-2.97917 6.45573,-1.84115 5.92969,-1.05469 C5.40365,-0.268229 4.625,0.125 3.59375,0.125 C2.57292,0.125 1.80469,-0.265625 1.28906,-1.04688 C0.773438,-1.82813 0.515625,-2.96875 0.515625,-4.46875 C0.515625,-6.01042 0.765625,-7.16406 1.26563,-7.92969 C1.76563,-8.69531 2.55729,-9.07813 3.64063,-9.07813 C4.69271,-9.07813 5.46875,-8.6901 5.96875,-7.91406 C6.46875,-7.13802 6.71875,-5.98958 6.71875,-4.46875 M5.5625,-4.46875 C5.5625,-5.76042 5.41406,-6.69792 5.11719,-7.28125 C4.82031,-7.86458 4.32813,-8.15625 3.64063,-8.15625 C2.93229,-8.15625 2.42448,-7.86979 2.11719,-7.29688 C1.8099,-6.72396 1.65625,-5.78125 1.65625,-4.46875 C1.65625,-3.20833 1.8125,-2.28385 2.125,-1.69531 C2.4375,-1.10677 2.93229,-0.8125 3.60938,-0.8125 C4.28646,-0.8125 4.78125,-1.11198 5.09375,-1.71094 C5.40625,-2.3099 5.5625,-3.22917 5.5625,-4.46875 M8.40625,0 L8.40625,-1.39063 L9.64063,-1.39063 L9.64063,0 L8.40625,0 M17.4063,-8.01563 C16.4896,-6.61979 15.8438,-5.52604 15.4688,-4.73438 C15.0938,-3.94271 14.8125,-3.16146 14.625,-2.39063 C14.4375,-1.61979 14.3438,-0.822917 14.3438,0 L13.1406,0 C13.1406,-1.14583 13.3828,-2.34896 13.8672,-3.60938 C14.3516,-4.86979 15.1615,-6.32292 16.2969,-7.96875 L11.5,-7.96875 L11.5,-8.9375 L17.4063,-8.9375 L17.4063,-8.01563"/>
</g>

<g fill="#212121" fill-opacity="1" stroke="none" transform="matrix(0.75749,0,0,0.75603,299.009,213.225)"
font-family="Sans Serif" font-size="9" font-weight="400" font-style="normal" 
>
<path vector-effect="none" fill-rule="evenodd" d="M6.71875,-4.46875 C6.71875,-2.97917 6.45573,-1.84115 5.92969,-1.05469 C5.40365,-0.268229 4.625,0.125 3.59375,0.125 C2.57292,0.125 1.80469,-0.265625 1.28906,-1.04688 C0.773438,-1.82813 0.515625,-2.96875 0.515625,-4.46875 C0.515625,-6.01042 0.765625,-7.16406 1.26563,-7.92969 C1.76563,-8.69531 2.55729,-9.07813 3.64063,-9.07813 C4.69271,-9.07813 5.46875,-8.6901 5.96875,-7.91406 C6.46875,-7.13802 6.71875,-5.98958 6.71875,-4.46875 M5.5625,-4.46875 C5.5625,-5.76042 5.41406,-6.69792 5.11719,-7.28125 C4.82031,-7.86458 4.32813,-8.15625 3.64063,-8.15625 C2.93229,-8.15625 2.42448,-7.86979 2.11719,-7.29688 C1.8099,-6.72396 1.65625,-5.78125 1.65625,-4.46875 C1.65625,-3.20833 1.8125,-2.28385 2.125,-1.69531 C2.4375,-1.10677 2.93229,-0.8125 3.60938,-0.8125 C4.28646,-0.8125 4.78125,-1.11198 5.09375,-1.71094 C5.40625,-2.3099 5.5625,-3.22917 5.5625,-4.46875 M8.40625,0 L8.40625,-1.39063 L9.64063,-1.39063 L9.64063,0 L8.40625,0 M17.4375,-4.65625 C17.4375,-3.11458 17.1589,-1.93229 16.6016,-1.10938 C16.0443,-0.286458 15.2448,0.125 14.2031,0.125 C13.5052,0.125 12.9453,-0.0208333 12.5234,-0.3125 C12.1016,-0.604167 11.8021,-1.07813 11.625,-1.73438 L12.7188,-1.90625 C12.9479,-1.16667 13.4479,-0.796875 14.2188,-0.796875 C14.875,-0.796875 15.3828,-1.10156 15.7422,-1.71094 C16.1016,-2.32031 16.2917,-3.1875 16.3125,-4.3125 C16.1458,-3.9375 15.8568,-3.63281 15.4453,-3.39844 C15.0339,-3.16406 14.5833,-3.04688 14.0938,-3.04688 C13.2917,-3.04688 12.6484,-3.32292 12.1641,-3.875 C11.6797,-4.42708 11.4375,-5.15625 11.4375,-6.0625 C11.4375,-7 11.7005,-7.73698 12.2266,-8.27344 C12.7526,-8.8099 13.4844,-9.07813 14.4219,-9.07813 C15.4115,-9.07813 16.1615,-8.71094 16.6719,-7.97656 C17.1823,-7.24219 17.4375,-6.13542 17.4375,-4.65625 M16.2031,-5.75 C16.2031,-6.47917 16.0365,-7.0625 15.7031,-7.5 C15.3698,-7.9375 14.9271,-8.15625 14.375,-8.15625 C13.8229,-8.15625 13.388,-7.96875 13.0703,-7.59375 C12.7526,-7.21875 12.5938,-6.70833 12.5938,-6.0625 C12.5938,-5.41667 12.7526,-4.90365 13.0703,-4.52344 C13.388,-4.14323 13.8177,-3.95313 14.3594,-3.95313 C14.6927,-3.95313 15,-4.02865 15.2813,-4.17969 C15.5625,-4.33073 15.7865,-4.54427 15.9531,-4.82031 C16.1198,-5.09635 16.2031,-5.40625 16.2031,-5.75 "/>
</g>

<g fill="#212121" fill-opacity="1" stroke="none" transform="matrix(0,-0.75603,0.75749,0,9.09069,151.021)"
font-family="Sans Serif" font-size="9" font-weight="400" font-style="normal" 
>
<path vector-effect="none" fill-rule="evenodd" d="M7.95313,0 L5.45313,-4 L2.45313,-4 L2.45313,0 L1.15625,0 L1.15625,-9.625 L5.6875,-9.625 C6.77083,-9.625 7.60677,-9.38281 8.19531,-8.89844 C8.78385,-8.41406 9.07813,-7.73958 9.07813,-6.875 C9.07813,-6.15625 8.86979,-5.55469 8.45313,-5.07031 C8.03646,-4.58594 7.46354,-4.28125 6.73438,-4.15625 L9.46875,0 L7.95313,0 M7.76563,-6.85938 C7.76563,-7.42188 7.57552,-7.85156 7.19531,-8.14844 C6.8151,-8.44531 6.26563,-8.59375 5.54688,-8.59375 L2.45313,-8.59375 L2.45313,-5.03125 L5.60938,-5.03125 C6.29688,-5.03125 6.82813,-5.19271 7.20313,-5.51563 C7.57813,-5.83854 7.76563,-6.28646 7.76563,-6.85938 M12,-3.4375 C12,-2.59375 12.1745,-1.9401 12.5234,-1.47656 C12.8724,-1.01302 13.3854,-0.78125 14.0625,-0.78125 C14.5938,-0.78125 15.0208,-0.888021 15.3438,-1.10156 C15.6667,-1.3151 15.8854,-1.58854 16,-1.92188 L17.0781,-1.60938 C16.6302,-0.442708 15.625,0.140625 14.0625,0.140625 C12.9688,0.140625 12.1354,-0.184896 11.5625,-0.835938 C10.9896,-1.48698 10.7031,-2.45833 10.7031,-3.75 C10.7031,-4.96875 10.9896,-5.90365 11.5625,-6.55469 C12.1354,-7.20573 12.9531,-7.53125 14.0156,-7.53125 C16.1927,-7.53125 17.2813,-6.22396 17.2813,-3.60938 L17.2813,-3.4375 L12,-3.4375 M16,-4.375 C15.9375,-5.15625 15.7422,-5.72656 15.4141,-6.08594 C15.0859,-6.44531 14.6146,-6.625 14,-6.625 C13.3958,-6.625 12.9193,-6.42448 12.5703,-6.02344 C12.2214,-5.6224 12.0365,-5.07292 12.0156,-4.375 L16,-4.375 M24.3906,-2.04688 C24.3906,-1.34896 24.1276,-0.809896 23.6016,-0.429688 C23.0755,-0.0494792 22.3385,0.140625 21.3906,0.140625 C20.4635,0.140625 19.75,-0.0104167 19.25,-0.3125 C18.75,-0.614583 18.4271,-1.08854 18.2813,-1.73438 L19.375,-1.95313 C19.4792,-1.55729 19.6953,-1.26563 20.0234,-1.07813 C20.3516,-0.890625 20.8073,-0.796875 21.3906,-0.796875 C22.0156,-0.796875 22.4714,-0.893229 22.7578,-1.08594 C23.0443,-1.27865 23.1875,-1.56771 23.1875,-1.95313 C23.1875,-2.24479 23.0885,-2.48177 22.8906,-2.66406 C22.6927,-2.84635 22.3698,-2.99479 21.9219,-3.10938 L21.0313,-3.34375 C20.3229,-3.52083 19.8203,-3.69792 19.5234,-3.875 C19.2266,-4.05208 18.9948,-4.26563 18.8281,-4.51563 C18.6615,-4.76563 18.5781,-5.07292 18.5781,-5.4375 C18.5781,-6.11458 18.8177,-6.63021 19.2969,-6.98438 C19.776,-7.33854 20.474,-7.51563 21.3906,-7.51563 C22.2135,-7.51563 22.8646,-7.3724 23.3438,-7.08594 C23.8229,-6.79948 24.125,-6.33854 24.25,-5.70313 L23.1406,-5.5625 C23.0781,-5.89583 22.8984,-6.14844 22.6016,-6.32031 C22.3047,-6.49219 21.901,-6.57813 21.3906,-6.57813 C20.8385,-6.57813 20.4297,-6.49479 20.1641,-6.32813 C19.8984,-6.16146 19.7656,-5.90625 19.7656,-5.5625 C19.7656,-5.35417 19.8203,-5.18229 19.9297,-5.04688 C20.0391,-4.91146 20.2005,-4.79427 20.4141,-4.69531 C20.6276,-4.59635 21.0833,-4.46354 21.7813,-4.29688 C22.4271,-4.13021 22.8932,-3.97917 23.1797,-3.84375 C23.4661,-3.70833 23.6927,-3.55469 23.8594,-3.38281 C24.026,-3.21094 24.1563,-3.01563 24.25,-2.79688 C24.3438,-2.57813 24.3906,-2.32813 24.3906,-2.04688 M32.0938,-3.73438 C32.0938,-1.15104 31.1875,0.140625 29.375,0.140625 C28.2292,0.140625 27.4635,-0.291667 27.0781,-1.15625 L27.0313,-1.15625 C27.0521,-1.11458 27.0625,-0.723958 27.0625,0.015625 L27.0625,2.90625 L25.8281,2.90625 L25.8281,-5.89063 C25.8281,-6.65104 25.8177,-7.15104 25.7969,-7.39063 L26.9844,-7.39063 C26.9844,-7.38021 26.9896,-7.31771 27,-7.20313 C27.0104,-7.08854 27.0208,-6.91667 27.0313,-6.6875 C27.0417,-6.45833 27.0469,-6.29688 27.0469,-6.20313 L27.0781,-6.20313 C27.2969,-6.66146 27.5859,-6.9974 27.9453,-7.21094 C28.3047,-7.42448 28.7813,-7.53125 29.375,-7.53125 C30.2813,-7.53125 30.9609,-7.22396 31.4141,-6.60938 C31.8672,-5.99479 32.0938,-5.03646 32.0938,-3.73438 M30.7969,-3.70313 C30.7969,-4.73438 30.6589,-5.47135 30.3828,-5.91406 C30.1068,-6.35677 29.6615,-6.57813 29.0469,-6.57813 C28.5677,-6.57813 28.1901,-6.47656 27.9141,-6.27344 C27.638,-6.07031 27.4271,-5.75 27.2813,-5.3125 C27.1354,-4.875 27.0625,-4.30729 27.0625,-3.60938 C27.0625,-2.64063 27.2188,-1.92448 27.5313,-1.46094 C27.8438,-0.997396 28.349,-0.765625 29.0469,-0.765625 C29.651,-0.765625 30.0938,-0.992188 30.375,-1.44531 C30.6563,-1.89844 30.7969,-2.65104 30.7969,-3.70313 M39.875,-3.70313 C39.875,-2.41146 39.5885,-1.44792 39.0156,-0.8125 C38.4427,-0.177083 37.6146,0.140625 36.5313,0.140625 C35.4583,0.140625 34.6458,-0.190104 34.0938,-0.851563 C33.5417,-1.51302 33.2656,-2.46354 33.2656,-3.70313 C33.2656,-6.25521 34.3698,-7.53125 36.5781,-7.53125 C37.7031,-7.53125 38.5339,-7.22135 39.0703,-6.60156 C39.6068,-5.98177 39.875,-5.01563 39.875,-3.70313 M38.5781,-3.70313 C38.5781,-4.72396 38.4271,-5.46615 38.125,-5.92969 C37.8229,-6.39323 37.3125,-6.625 36.5938,-6.625 C35.875,-6.625 35.3542,-6.38802 35.0313,-5.91406 C34.7083,-5.4401 34.5469,-4.70313 34.5469,-3.70313 C34.5469,-2.73438 34.7057,-2.0026 35.0234,-1.50781 C35.3411,-1.01302 35.8385,-0.765625 36.5156,-0.765625 C37.2552,-0.765625 37.7839,-1.0026 38.1016,-1.47656 C38.4193,-1.95052 38.5781,-2.69271 38.5781,-3.70313 M46.0938,0 L46.0938,-4.6875 C46.0938,-5.17708 46.0469,-5.55729 45.9531,-5.82813 C45.8594,-6.09896 45.7057,-6.29167 45.4922,-6.40625 C45.2786,-6.52083 44.9688,-6.57813 44.5625,-6.57813 C43.9792,-6.57813 43.5156,-6.375 43.1719,-5.96875 C42.8281,-5.5625 42.6563,-5 42.6563,-4.28125 L42.6563,0 L41.4219,0 L41.4219,-5.8125 C41.4219,-6.67708 41.4115,-7.20313 41.3906,-7.39063 L42.5469,-7.39063 C42.5469,-7.36979 42.5495,-7.3099 42.5547,-7.21094 C42.5599,-7.11198 42.5677,-6.9974 42.5781,-6.86719 C42.5885,-6.73698 42.5938,-6.48958 42.5938,-6.125 L42.625,-6.125 C42.9063,-6.63542 43.2318,-6.9974 43.6016,-7.21094 C43.9714,-7.42448 44.4323,-7.53125 44.9844,-7.53125 C45.7969,-7.53125 46.3906,-7.33073 46.7656,-6.92969 C47.1406,-6.52865 47.3281,-5.85938 47.3281,-4.92188 L47.3281,0 L46.0938,0 M54.7344,-2.04688 C54.7344,-1.34896 54.4714,-0.809896 53.9453,-0.429688 C53.4193,-0.0494792 52.6823,0.140625 51.7344,0.140625 C50.8073,0.140625 50.0938,-0.0104167 49.5938,-0.3125 C49.0938,-0.614583 48.7708,-1.08854 48.625,-1.73438 L49.7188,-1.95313 C49.8229,-1.55729 50.0391,-1.26563 50.3672,-1.07813 C50.6953,-0.890625 51.151,-0.796875 51.7344,-0.796875 C52.3594,-0.796875 52.8151,-0.893229 53.1016,-1.08594 C53.388,-1.27865 53.5313,-1.56771 53.5313,-1.95313 C53.5313,-2.24479 53.4323,-2.48177 53.2344,-2.66406 C53.0365,-2.84635 52.7135,-2.99479 52.2656,-3.10938 L51.375,-3.34375 C50.6667,-3.52083 50.1641,-3.69792 49.8672,-3.875 C49.5703,-4.05208 49.3385,-4.26563 49.1719,-4.51563 C49.0052,-4.76563 48.9219,-5.07292 48.9219,-5.4375 C48.9219,-6.11458 49.1615,-6.63021 49.6406,-6.98438 C50.1198,-7.33854 50.8177,-7.51563 51.7344,-7.51563 C52.5573,-7.51563 53.2083,-7.3724 53.6875,-7.08594 C54.1667,-6.79948 54.4688,-6.33854 54.5938,-5.70313 L53.4844,-5.5625 C53.4219,-5.89583 53.2422,-6.14844 52.9453,-6.32031 C52.6484,-6.49219 52.2448,-6.57813 51.7344,-6.57813 C51.1823,-6.57813 50.7734,-6.49479 50.5078,-6.32813 C50.2422,-6.16146 50.1094,-5.90625 50.1094,-5.5625 C50.1094,-5.35417 50.1641,-5.18229 50.2734,-5.04688 C50.3828,-4.91146 50.5443,-4.79427 50.7578,-4.69531 C50.9714,-4.59635 51.4271,-4.46354 52.125,-4.29688 C52.7708,-4.13021 53.237,-3.97917 53.5234,-3.84375 C53.8099,-3.70833 54.0365,-3.55469 54.2031,-3.38281 C54.3698,-3.21094 54.5,-3.01563 54.5938,-2.79688 C54.6875,-2.57813 54.7344,-2.32813 54.7344,-2.04688 M57.125,-3.4375 C57.125,-2.59375 57.2995,-1.9401 57.6484,-1.47656 C57.9974,-1.01302 58.5104,-0.78125 59.1875,-0.78125 C59.7188,-0.78125 60.1458,-0.888021 60.4688,-1.10156 C60.7917,-1.3151 61.0104,-1.58854 61.125,-1.92188 L62.2031,-1.60938 C61.7552,-0.442708 60.75,0.140625 59.1875,0.140625 C58.0938,0.140625 57.2604,-0.184896 56.6875,-0.835938 C56.1146,-1.48698 55.8281,-2.45833 55.8281,-3.75 C55.8281,-4.96875 56.1146,-5.90365 56.6875,-6.55469 C57.2604,-7.20573 58.0781,-7.53125 59.1406,-7.53125 C61.3177,-7.53125 62.4063,-6.22396 62.4063,-3.60938 L62.4063,-3.4375 L57.125,-3.4375 M61.125,-4.375 C61.0625,-5.15625 60.8672,-5.72656 60.5391,-6.08594 C60.2109,-6.44531 59.7396,-6.625 59.125,-6.625 C58.5208,-6.625 58.0443,-6.42448 57.6953,-6.02344 C57.3464,-5.6224 57.1615,-5.07292 57.1406,-4.375 L61.125,-4.375 M71.5625,-8.5625 L71.5625,0 L70.2656,0 L70.2656,-8.5625 L66.9531,-8.5625 L66.9531,-9.625 L74.875,-9.625 L74.875,-8.5625 L71.5625,-8.5625 M75.6094,-8.96875 L75.6094,-10.1406 L76.8438,-10.1406 L76.8438,-8.96875 L75.6094,-8.96875 M75.6094,0 L75.6094,-7.39063 L76.8438,-7.39063 L76.8438,0 L75.6094,0 M83.0313,0 L83.0313,-4.6875 C83.0313,-5.40625 82.9323,-5.90104 82.7344,-6.17188 C82.5365,-6.44271 82.1823,-6.57813 81.6719,-6.57813 C81.151,-6.57813 80.737,-6.3776 80.4297,-5.97656 C80.1224,-5.57552 79.9688,-5.01042 79.9688,-4.28125 L79.9688,0 L78.75,0 L78.75,-5.8125 C78.75,-6.67708 78.7396,-7.20313 78.7188,-7.39063 L79.875,-7.39063 C79.875,-7.36979 79.8776,-7.3099 79.8828,-7.21094 C79.888,-7.11198 79.8958,-6.9974 79.9063,-6.86719 C79.9167,-6.73698 79.9219,-6.48958 79.9219,-6.125 L79.9531,-6.125 C80.2135,-6.65625 80.5156,-7.02344 80.8594,-7.22656 C81.2031,-7.42969 81.6198,-7.53125 82.1094,-7.53125 C82.6719,-7.53125 83.1146,-7.41927 83.4375,-7.19531 C83.7604,-6.97135 83.9896,-6.61458 84.125,-6.125 L84.1406,-6.125 C84.3906,-6.625 84.6979,-6.98438 85.0625,-7.20313 C85.4271,-7.42188 85.8646,-7.53125 86.375,-7.53125 C87.125,-7.53125 87.6693,-7.32813 88.0078,-6.92188 C88.3464,-6.51563 88.5156,-5.84896 88.5156,-4.92188 L88.5156,0 L87.2969,0 L87.2969,-4.6875 C87.2969,-5.40625 87.2005,-5.90104 87.0078,-6.17188 C86.8151,-6.44271 86.4635,-6.57813 85.9531,-6.57813 C85.4115,-6.57813 84.9922,-6.38021 84.6953,-5.98438 C84.3984,-5.58854 84.25,-5.02083 84.25,-4.28125 L84.25,0 L83.0313,0 M91.3281,-3.4375 C91.3281,-2.59375 91.5026,-1.9401 91.8516,-1.47656 C92.2005,-1.01302 92.7135,-0.78125 93.3906,-0.78125 C93.9219,-0.78125 94.349,-0.888021 94.6719,-1.10156 C94.9948,-1.3151 95.2135,-1.58854 95.3281,-1.92188 L96.4063,-1.60938 C95.9583,-0.442708 94.9531,0.140625 93.3906,0.140625 C92.2969,0.140625 91.4635,-0.184896 90.8906,-0.835938 C90.3177,-1.48698 90.0313,-2.45833 90.0313,-3.75 C90.0313,-4.96875 90.3177,-5.90365 90.8906,-6.55469 C91.4635,-7.20573 92.2813,-7.53125 93.3438,-7.53125 C95.5208,-7.53125 96.6094,-6.22396 96.6094,-3.60938 L96.6094,-3.4375 L91.3281,-3.4375 M95.3281,-4.375 C95.2656,-5.15625 95.0703,-5.72656 94.7422,-6.08594 C94.4141,-6.44531 93.9427,-6.625 93.3281,-6.625 C92.724,-6.625 92.2474,-6.42448 91.8984,-6.02344 C91.5495,-5.6224 91.3646,-5.07292 91.3438,-4.375 L95.3281,-4.375 M101.969,-3.64063 C101.969,-4.95313 102.174,-6.13281 102.586,-7.17969 C102.997,-8.22656 103.63,-9.21354 104.484,-10.1406 L105.672,-10.1406 C104.818,-9.19271 104.193,-8.1875 103.797,-7.125 C103.401,-6.0625 103.203,-4.89583 103.203,-3.625 C103.203,-2.36458 103.398,-1.20313 103.789,-0.140625 C104.18,0.921875 104.807,1.9375 105.672,2.90625 L104.484,2.90625 C103.62,1.96875 102.984,0.976563 102.578,-0.0703125 C102.172,-1.11719 101.969,-2.29688 101.969,-3.60938 L101.969,-3.64063 M112.25,-2.04688 C112.25,-1.34896 111.987,-0.809896 111.461,-0.429688 C110.935,-0.0494792 110.198,0.140625 109.25,0.140625 C108.323,0.140625 107.609,-0.0104167 107.109,-0.3125 C106.609,-0.614583 106.286,-1.08854 106.141,-1.73438 L107.234,-1.95313 C107.339,-1.55729 107.555,-1.26563 107.883,-1.07813 C108.211,-0.890625 108.667,-0.796875 109.25,-0.796875 C109.875,-0.796875 110.331,-0.893229 110.617,-1.08594 C110.904,-1.27865 111.047,-1.56771 111.047,-1.95313 C111.047,-2.24479 110.948,-2.48177 110.75,-2.66406 C110.552,-2.84635 110.229,-2.99479 109.781,-3.10938 L108.891,-3.34375 C108.182,-3.52083 107.68,-3.69792 107.383,-3.875 C107.086,-4.05208 106.854,-4.26563 106.688,-4.51563 C106.521,-4.76563 106.438,-5.07292 106.438,-5.4375 C106.438,-6.11458 106.677,-6.63021 107.156,-6.98438 C107.635,-7.33854 108.333,-7.51563 109.25,-7.51563 C110.073,-7.51563 110.724,-7.3724 111.203,-7.08594 C111.682,-6.79948 111.984,-6.33854 112.109,-5.70313 L111,-5.5625 C110.938,-5.89583 110.758,-6.14844 110.461,-6.32031 C110.164,-6.49219 109.76,-6.57813 109.25,-6.57813 C108.698,-6.57813 108.289,-6.49479 108.023,-6.32813 C107.758,-6.16146 107.625,-5.90625 107.625,-5.5625 C107.625,-5.35417 107.68,-5.18229 107.789,-5.04688 C107.898,-4.91146 108.06,-4.79427 108.273,-4.69531 C108.487,-4.59635 108.943,-4.46354 109.641,-4.29688 C110.286,-4.13021 110.753,-3.97917 111.039,-3.84375 C111.326,-3.70833 111.552,-3.55469 111.719,-3.38281 C111.885,-3.21094 112.016,-3.01563 112.109,-2.79688 C112.203,-2.57813 112.25,-2.32813 112.25,-2.04688 M116.547,-3.60938 C116.547,-2.29688 116.341,-1.11458 115.93,-0.0625 C115.518,0.989583 114.88,1.97917 114.016,2.90625 L112.828,2.90625 C113.693,1.94792 114.323,0.9375 114.719,-0.125 C115.115,-1.1875 115.313,-2.35417 115.313,-3.625 C115.313,-4.89583 115.112,-6.0625 114.711,-7.125 C114.31,-8.1875 113.682,-9.19271 112.828,-10.1406 L114.016,-10.1406 C114.88,-9.21354 115.518,-8.22396 115.93,-7.17188 C116.341,-6.11979 116.547,-4.94271 116.547,-3.64063 L116.547,-3.60938"/>
</g>

<g fill="#212121" fill-opacity="1" stroke="#212121" stroke-opacity="1" stroke-width="0.659722" stroke-linecap="square" stroke-linejoin="round" transform="matrix(0.75749,0,0,0.75603,-21.7876,-3.96543)"
font-family="Sans Serif" font-size="9" font-weight="400" font-style="normal" 
>
<polyline fill="none" vector-effect="none" points="68,270 68,23 " />
<polyline fill="none" vector-effect="none" points="473,270 473,23 " />
<polyline fill="none" vector-effect="none" points="68,265.041 72.05,265.041 " />
<polyline fill="none" vector-effect="none" points="468.95,265.041 473,265.041 " />
<polyline fill="none" vector-effect="none" points="68,188.713 72.05,188.713 " />
<polyline fill="none" vector-effect="none" points="468.95,188.713 473,188.713 " />
<polyline fill="none" vector-effect="none" points="68,112.386 72.05,112.386 " />
<polyline fill="none" vector-effect="none" points="468.95,112.386 473,112.386 " />
<polyline fill="none" vector-effect="none" points="68,36.0591 72.05,36.0591 " />
<polyline fill="none" vector-effect="none" points="468.95,36.0591 473,36.0591 " />
</g>

<g fill="#212121" fill-opacity="1" stroke="none" transform="matrix(0.75749,0,0,0.75603,20.4215,199.815)"
font-family="Sans Serif" font-size="9" font-weight="400" font-style="normal" 
>
<path vector-effect="none" fill-rule="evenodd" d="M6.71875,-4.46875 C6.71875,-2.97917 6.45573,-1.84115 5.92969,-1.05469 C5.40365,-0.268229 4.625,0.125 3.59375,0.125 C2.57292,0.125 1.80469,-0.265625 1.28906,-1.04688 C0.773438,-1.82813 0.515625,-2.96875 0.515625,-4.46875 C0.515625,-6.01042 0.765625,-7.16406 1.26563,-7.92969 C1.76563,-8.69531 2.55729,-9.07813 3.64063,-9.07813 C4.69271,-9.07813 5.46875,-8.6901 5.96875,-7.91406 C6.46875,-7.13802 6.71875,-5.98958 6.71875,-4.46875 M5.5625,-4.46875 C5.5625,-5.76042 5.41406,-6.69792 5.11719,-7.28125 C4.82031,-7.86458 4.32813,-8.15625 3.64063,-8.15625 C2.93229,-8.15625 2.42448,-7.86979 2.11719,-7.29688 C1.8099,-6.72396 1.65625,-5.78125 1.65625,-4.46875 C1.65625,-3.20833 1.8125,-2.28385 2.125,-1.69531 C2.4375,-1.10677 2.93229,-0.8125 3.60938,-0.8125 C4.28646,-0.8125 4.78125,-1.11198 5.09375,-1.71094 C5.40625,-2.3099 5.5625,-3.22917 5.5625,-4.46875 "/>
</g>

<g fill="#212121" fill-opacity="1" stroke="none" transform="matrix(0.75749,0,0,0.75603,20.4215,142.11)"
font-family="Sans Serif" font-size="9" font-weight="400" font-style="normal" 
>
<path vector-effect="none" fill-rule="evenodd" d="M6.6875,-2.90625 C6.6875,-1.96875 6.40625,-1.22917 5.84375,-0.6875 C5.28125,-0.145833 4.50521,0.125 3.51563,0.125 C2.68229,0.125 2.00781,-0.0572917 1.49219,-0.421875 C0.976563,-0.786458 0.651042,-1.3125 0.515625,-2 L1.67188,-2.14063 C1.91146,-1.25521 2.53125,-0.8125 3.53125,-0.8125 C4.14583,-0.8125 4.6276,-0.997396 4.97656,-1.36719 C5.32552,-1.73698 5.5,-2.24479 5.5,-2.89063 C5.5,-3.45313 5.32552,-3.90885 4.97656,-4.25781 C4.6276,-4.60677 4.15625,-4.78125 3.5625,-4.78125 C3.25,-4.78125 2.96094,-4.73177 2.69531,-4.63281 C2.42969,-4.53385 2.16146,-4.36458 1.89063,-4.125 L0.78125,-4.125 L1.07813,-8.9375 L6.15625,-8.9375 L6.15625,-7.96875 L2.125,-7.96875 L1.95313,-5.14063 C2.44271,-5.51563 3.05729,-5.70313 3.79688,-5.70313 C4.67188,-5.70313 5.3724,-5.44531 5.89844,-4.92969 C6.42448,-4.41406 6.6875,-3.73958 6.6875,-2.90625 "/>
</g>

<g fill="#212121" fill-opacity="1" stroke="none" transform="matrix(0.75749,0,0,0.75603,15.119,84.4041)"
font-family="Sans Serif" font-size="9" font-weight="400" font-style="normal" 
>
<path vector-effect="none" fill-rule="evenodd" d="M0.984375,0 L0.984375,-0.96875 L3.26563,-0.96875 L3.26563,-7.85938 L1.25,-6.40625 L1.25,-7.48438 L3.35938,-8.9375 L4.42188,-8.9375 L4.42188,-0.96875 L6.59375,-0.96875 L6.59375,0 L0.984375,0 M13.9375,-4.46875 C13.9375,-2.97917 13.6745,-1.84115 13.1484,-1.05469 C12.6224,-0.268229 11.8438,0.125 10.8125,0.125 C9.79167,0.125 9.02344,-0.265625 8.50781,-1.04688 C7.99219,-1.82813 7.73438,-2.96875 7.73438,-4.46875 C7.73438,-6.01042 7.98438,-7.16406 8.48438,-7.92969 C8.98438,-8.69531 9.77604,-9.07813 10.8594,-9.07813 C11.9115,-9.07813 12.6875,-8.6901 13.1875,-7.91406 C13.6875,-7.13802 13.9375,-5.98958 13.9375,-4.46875 M12.7813,-4.46875 C12.7813,-5.76042 12.6328,-6.69792 12.3359,-7.28125 C12.0391,-7.86458 11.5469,-8.15625 10.8594,-8.15625 C10.151,-8.15625 9.64323,-7.86979 9.33594,-7.29688 C9.02865,-6.72396 8.875,-5.78125 8.875,-4.46875 C8.875,-3.20833 9.03125,-2.28385 9.34375,-1.69531 C9.65625,-1.10677 10.151,-0.8125 10.8281,-0.8125 C11.5052,-0.8125 12,-1.11198 12.3125,-1.71094 C12.625,-2.3099 12.7813,-3.22917 12.7813,-4.46875 "/>
</g>

<g fill="#212121" fill-opacity="1" stroke="none" transform="matrix(0.75749,0,0,0.75603,15.119,26.6985)"
font-family="Sans Serif" font-size="9" font-weight="400" font-style="normal" 
>
<path vector-effect="none" fill-rule="evenodd" d="M0.984375,0 L0.984375,-0.96875 L3.26563,-0.96875 L3.26563,-7.85938 L1.25,-6.40625 L1.25,-7.48438 L3.35938,-8.9375 L4.42188,-8.9375 L4.42188,-0.96875 L6.59375,-0.96875 L6.59375,0 L0.984375,0 M13.9063,-2.90625 C13.9063,-1.96875 13.625,-1.22917 13.0625,-0.6875 C12.5,-0.145833 11.724,0.125 10.7344,0.125 C9.90104,0.125 9.22656,-0.0572917 8.71094,-0.421875 C8.19531,-0.786458 7.86979,-1.3125 7.73438,-2 L8.89063,-2.14063 C9.13021,-1.25521 9.75,-0.8125 10.75,-0.8125 C11.3646,-0.8125 11.8464,-0.997396 12.1953,-1.36719 C12.5443,-1.73698 12.7188,-2.24479 12.7188,-2.89063 C12.7188,-3.45313 12.5443,-3.90885 12.1953,-4.25781 C11.8464,-4.60677 11.375,-4.78125 10.7813,-4.78125 C10.4688,-4.78125 10.1797,-4.73177 9.91406,-4.63281 C9.64844,-4.53385 9.38021,-4.36458 9.10938,-4.125 L8,-4.125 L8.29688,-8.9375 L13.375,-8.9375 L13.375,-7.96875 L9.34375,-7.96875 L9.17188,-5.14063 C9.66146,-5.51563 10.276,-5.70313 11.0156,-5.70313 C11.8906,-5.70313 12.5911,-5.44531 13.1172,-4.92969 C13.6432,-4.41406 13.9063,-3.73958 13.9063,-2.90625 "/>
</g>

<g fill="#212121" fill-opacity="1" stroke="none" transform="matrix(0.75749,0,0,0.75603,52.0677,9.07609)"
font-family="Sans Serif" font-size="9" font-weight="400" font-style="normal" 
>
<path vector-effect="none" fill-rule="evenodd" d="M7.54688,0 L5.3125,-3.65625 L2.95313,-3.65625 L2.95313,0 L0.9375,0 L0.9375,-9.625 L5.75,-9.625 C6.89583,-9.625 7.78125,-9.38021 8.40625,-8.89063 C9.03125,-8.40104 9.34375,-7.69271 9.34375,-6.76563 C9.34375,-6.08854 9.15365,-5.50521 8.77344,-5.01563 C8.39323,-4.52604 7.875,-4.20313 7.21875,-4.04688 L9.82813,0 L7.54688,0 M7.3125,-6.67188 C7.3125,-7.59896 6.71875,-8.0625 5.53125,-8.0625 L2.95313,-8.0625 L2.95313,-5.21875 L5.59375,-5.21875 C6.15625,-5.21875 6.58333,-5.34635 6.875,-5.60156 C7.16667,-5.85677 7.3125,-6.21354 7.3125,-6.67188 M14.1094,0.140625 C13.0052,0.140625 12.1536,-0.190104 11.5547,-0.851563 C10.9557,-1.51302 10.6563,-2.47396 10.6563,-3.73438 C10.6563,-4.95313 10.9583,-5.89063 11.5625,-6.54688 C12.1667,-7.20313 13.026,-7.53125 14.1406,-7.53125 C15.2031,-7.53125 16.0156,-7.17969 16.5781,-6.47656 C17.1406,-5.77344 17.4219,-4.74479 17.4219,-3.39063 L17.4219,-3.32813 L12.6719,-3.32813 C12.6719,-2.60938 12.8047,-2.06771 13.0703,-1.70313 C13.3359,-1.33854 13.7188,-1.15625 14.2188,-1.15625 C14.8958,-1.15625 15.3229,-1.44792 15.5,-2.03125 L17.3125,-1.875 C16.7813,-0.53125 15.7135,0.140625 14.1094,0.140625 M14.1094,-6.32813 C13.6615,-6.32813 13.3151,-6.16927 13.0703,-5.85156 C12.8255,-5.53385 12.6979,-5.09375 12.6875,-4.53125 L15.5625,-4.53125 C15.5208,-5.125 15.375,-5.57292 15.125,-5.875 C14.875,-6.17708 14.5365,-6.32813 14.1094,-6.32813 M25.1094,-2.15625 C25.1094,-1.44792 24.8151,-0.888021 24.2266,-0.476563 C23.638,-0.0651042 22.8281,0.140625 21.7969,0.140625 C20.776,0.140625 19.9974,-0.0208333 19.4609,-0.34375 C18.9245,-0.666667 18.5677,-1.16667 18.3906,-1.84375 L20.0781,-2.09375 C20.1719,-1.75 20.3359,-1.50521 20.5703,-1.35938 C20.8047,-1.21354 21.2135,-1.14063 21.7969,-1.14063 C22.3281,-1.14063 22.7188,-1.20833 22.9688,-1.34375 C23.2188,-1.47917 23.3438,-1.69271 23.3438,-1.98438 C23.3438,-2.22396 23.2448,-2.41146 23.0469,-2.54688 C22.849,-2.68229 22.5104,-2.80208 22.0313,-2.90625 C20.9479,-3.11458 20.2161,-3.3125 19.8359,-3.5 C19.4557,-3.6875 19.1667,-3.92708 18.9688,-4.21875 C18.7708,-4.51042 18.6719,-4.86979 18.6719,-5.29688 C18.6719,-6.00521 18.9453,-6.55729 19.4922,-6.95313 C20.0391,-7.34896 20.8125,-7.54688 21.8125,-7.54688 C22.6875,-7.54688 23.3932,-7.375 23.9297,-7.03125 C24.4661,-6.6875 24.8021,-6.19271 24.9375,-5.54688 L23.2344,-5.35938 C23.1719,-5.66146 23.0339,-5.88802 22.8203,-6.03906 C22.6068,-6.1901 22.2708,-6.26563 21.8125,-6.26563 C21.3542,-6.26563 21.0104,-6.20573 20.7813,-6.08594 C20.5521,-5.96615 20.4375,-5.77083 20.4375,-5.5 C20.4375,-5.29167 20.526,-5.125 20.7031,-5 C20.8802,-4.875 21.1771,-4.77083 21.5938,-4.6875 C22.1667,-4.5625 22.6771,-4.4375 23.125,-4.3125 C23.5729,-4.1875 23.9349,-4.03906 24.2109,-3.86719 C24.487,-3.69531 24.7057,-3.47396 24.8672,-3.20313 C25.0286,-2.93229 25.1094,-2.58333 25.1094,-2.15625 M33.6563,-3.73438 C33.6563,-2.49479 33.4089,-1.53906 32.9141,-0.867188 C32.4193,-0.195313 31.7188,0.140625 30.8125,0.140625 C30.2917,0.140625 29.8385,0.0260417 29.4531,-0.203125 C29.0677,-0.432292 28.776,-0.755208 28.5781,-1.17188 L28.5313,-1.17188 C28.5625,-1.03646 28.5781,-0.625 28.5781,0.0625 L28.5781,2.90625 L26.6563,2.90625 L26.6563,-5.6875 C26.6563,-6.38542 26.6354,-6.95313 26.5938,-7.39063 L28.4688,-7.39063 C28.4896,-7.31771 28.5078,-7.15885 28.5234,-6.91406 C28.5391,-6.66927 28.5469,-6.42708 28.5469,-6.1875 L28.5781,-6.1875 C29.0052,-7.09375 29.7917,-7.54688 30.9375,-7.54688 C31.8021,-7.54688 32.4714,-7.21615 32.9453,-6.55469 C33.4193,-5.89323 33.6563,-4.95313 33.6563,-3.73438 M31.6406,-3.73438 C31.6406,-5.39063 31.1354,-6.21875 30.125,-6.21875 C29.6146,-6.21875 29.224,-5.99479 28.9531,-5.54688 C28.6823,-5.09896 28.5469,-4.47396 28.5469,-3.67188 C28.5469,-2.88021 28.6823,-2.26563 28.9531,-1.82813 C29.224,-1.39063 29.6094,-1.17188 30.1094,-1.17188 C31.1302,-1.17188 31.6406,-2.02604 31.6406,-3.73438 M42.2188,-3.70313 C42.2188,-2.50521 41.888,-1.5651 41.2266,-0.882813 C40.5651,-0.200521 39.6458,0.140625 38.4688,0.140625 C37.3125,0.140625 36.4063,-0.203125 35.75,-0.890625 C35.0938,-1.57813 34.7656,-2.51563 34.7656,-3.70313 C34.7656,-4.89063 35.0938,-5.82552 35.75,-6.50781 C36.4063,-7.1901 37.3229,-7.53125 38.5,-7.53125 C39.7083,-7.53125 40.6302,-7.20313 41.2656,-6.54688 C41.901,-5.89063 42.2188,-4.94271 42.2188,-3.70313 M40.2188,-3.70313 C40.2188,-4.58854 40.0755,-5.22917 39.7891,-5.625 C39.5026,-6.02083 39.0833,-6.21875 38.5313,-6.21875 C37.3646,-6.21875 36.7813,-5.38021 36.7813,-3.70313 C36.7813,-2.88021 36.9245,-2.2526 37.2109,-1.82031 C37.4974,-1.38802 37.9063,-1.17188 38.4375,-1.17188 C39.625,-1.17188 40.2188,-2.01563 40.2188,-3.70313 M48.5313,0 L48.5313,-4.15625 C48.5313,-5.44792 48.0938,-6.09375 47.2188,-6.09375 C46.75,-6.09375 46.375,-5.89583 46.0938,-5.5 C45.8125,-5.10417 45.6719,-4.59375 45.6719,-3.96875 L45.6719,0 L43.75,0 L43.75,-5.75 C43.75,-6.14583 43.7422,-6.46875 43.7266,-6.71875 C43.7109,-6.96875 43.6979,-7.19271 43.6875,-7.39063 L45.5156,-7.39063 C45.5365,-7.30729 45.5573,-7.07813 45.5781,-6.70313 C45.599,-6.32813 45.6094,-6.06771 45.6094,-5.92188 L45.6406,-5.92188 C45.901,-6.49479 46.2266,-6.90885 46.6172,-7.16406 C47.0078,-7.41927 47.474,-7.54688 48.0156,-7.54688 C48.7969,-7.54688 49.3984,-7.30469 49.8203,-6.82031 C50.2422,-6.33594 50.4531,-5.63021 50.4531,-4.70313 L50.4531,0 L48.5313,0 M58.5313,-2.15625 C58.5313,-1.44792 58.237,-0.888021 57.6484,-0.476563 C57.0599,-0.0651042 56.25,0.140625 55.2188,0.140625 C54.1979,0.140625 53.4193,-0.0208333 52.8828,-0.34375 C52.3464,-0.666667 51.9896,-1.16667 51.8125,-1.84375 L53.5,-2.09375 C53.5938,-1.75 53.7578,-1.50521 53.9922,-1.35938 C54.2266,-1.21354 54.6354,-1.14063 55.2188,-1.14063 C55.75,-1.14063 56.1406,-1.20833 56.3906,-1.34375 C56.6406,-1.47917 56.7656,-1.69271 56.7656,-1.98438 C56.7656,-2.22396 56.6667,-2.41146 56.4688,-2.54688 C56.2708,-2.68229 55.9323,-2.80208 55.4531,-2.90625 C54.3698,-3.11458 53.638,-3.3125 53.2578,-3.5 C52.8776,-3.6875 52.5885,-3.92708 52.3906,-4.21875 C52.1927,-4.51042 52.0938,-4.86979 52.0938,-5.29688 C52.0938,-6.00521 52.3672,-6.55729 52.9141,-6.95313 C53.4609,-7.34896 54.2344,-7.54688 55.2344,-7.54688 C56.1094,-7.54688 56.8151,-7.375 57.3516,-7.03125 C57.888,-6.6875 58.224,-6.19271 58.3594,-5.54688 L56.6563,-5.35938 C56.5938,-5.66146 56.4557,-5.88802 56.2422,-6.03906 C56.0286,-6.1901 55.6927,-6.26563 55.2344,-6.26563 C54.776,-6.26563 54.4323,-6.20573 54.2031,-6.08594 C53.974,-5.96615 53.8594,-5.77083 53.8594,-5.5 C53.8594,-5.29167 53.9479,-5.125 54.125,-5 C54.3021,-4.875 54.599,-4.77083 55.0156,-4.6875 C55.5885,-4.5625 56.099,-4.4375 56.5469,-4.3125 C56.9948,-4.1875 57.3568,-4.03906 57.6328,-3.86719 C57.9089,-3.69531 58.1276,-3.47396 58.2891,-3.20313 C58.4505,-2.93229 58.5313,-2.58333 58.5313,-2.15625 M63.0938,0.140625 C61.9896,0.140625 61.138,-0.190104 60.5391,-0.851563 C59.9401,-1.51302 59.6406,-2.47396 59.6406,-3.73438 C59.6406,-4.95313 59.9427,-5.89063 60.5469,-6.54688 C61.151,-7.20313 62.0104,-7.53125 63.125,-7.53125 C64.1875,-7.53125 65,-7.17969 65.5625,-6.47656 C66.125,-5.77344 66.4063,-4.74479 66.4063,-3.39063 L66.4063,-3.32813 L61.6563,-3.32813 C61.6563,-2.60938 61.7891,-2.06771 62.0547,-1.70313 C62.3203,-1.33854 62.7031,-1.15625 63.2031,-1.15625 C63.8802,-1.15625 64.3073,-1.44792 64.4844,-2.03125 L66.2969,-1.875 C65.7656,-0.53125 64.6979,0.140625 63.0938,0.140625 M63.0938,-6.32813 C62.6458,-6.32813 62.2995,-6.16927 62.0547,-5.85156 C61.8099,-5.53385 61.6823,-5.09375 61.6719,-4.53125 L64.5469,-4.53125 C64.5052,-5.125 64.3594,-5.57292 64.1094,-5.875 C63.8594,-6.17708 63.5208,-6.32813 63.0938,-6.32813 M76.0313,-8.07813 L76.0313,0 L74.0156,0 L74.0156,-8.07813 L70.9063,-8.07813 L70.9063,-9.625 L79.1563,-9.625 L79.1563,-8.07813 L76.0313,-8.07813 M80.0313,-8.73438 L80.0313,-10.1406 L81.9531,-10.1406 L81.9531,-8.73438 L80.0313,-8.73438 M80.0313,0 L80.0313,-7.39063 L81.9531,-7.39063 L81.9531,0 L80.0313,0 M88.25,0 L88.25,-4.15625 C88.25,-5.44792 87.8802,-6.09375 87.1406,-6.09375 C86.7448,-6.09375 86.4271,-5.89583 86.1875,-5.5 C85.9479,-5.10417 85.8281,-4.59375 85.8281,-3.96875 L85.8281,0 L83.9063,0 L83.9063,-5.75 C83.9063,-6.14583 83.8984,-6.46875 83.8828,-6.71875 C83.8672,-6.96875 83.8542,-7.19271 83.8438,-7.39063 L85.6719,-7.39063 C85.6927,-7.30729 85.7135,-7.07813 85.7344,-6.70313 C85.7552,-6.32813 85.7656,-6.06771 85.7656,-5.92188 L85.7969,-5.92188 C86.0365,-6.49479 86.3307,-6.90885 86.6797,-7.16406 C87.0286,-7.41927 87.4531,-7.54688 87.9531,-7.54688 C89.0781,-7.54688 89.7604,-7.00521 90,-5.92188 L90.0469,-5.92188 C90.2969,-6.49479 90.5964,-6.90885 90.9453,-7.16406 C91.2943,-7.41927 91.7396,-7.54688 92.2813,-7.54688 C93.0104,-7.54688 93.5625,-7.30208 93.9375,-6.8125 C94.3125,-6.32292 94.5,-5.61979 94.5,-4.70313 L94.5,0 L92.5938,0 L92.5938,-4.15625 C92.5938,-5.44792 92.2188,-6.09375 91.4688,-6.09375 C91.0938,-6.09375 90.7891,-5.91406 90.5547,-5.55469 C90.3203,-5.19531 90.1875,-4.69271 90.1563,-4.04688 L90.1563,0 L88.25,0 M99.3594,0.140625 C98.2552,0.140625 97.4036,-0.190104 96.8047,-0.851563 C96.2057,-1.51302 95.9063,-2.47396 95.9063,-3.73438 C95.9063,-4.95313 96.2083,-5.89063 96.8125,-6.54688 C97.4167,-7.20313 98.276,-7.53125 99.3906,-7.53125 C100.453,-7.53125 101.266,-7.17969 101.828,-6.47656 C102.391,-5.77344 102.672,-4.74479 102.672,-3.39063 L102.672,-3.32813 L97.9219,-3.32813 C97.9219,-2.60938 98.0547,-2.06771 98.3203,-1.70313 C98.5859,-1.33854 98.9688,-1.15625 99.4688,-1.15625 C100.146,-1.15625 100.573,-1.44792 100.75,-2.03125 L102.563,-1.875 C102.031,-0.53125 100.964,0.140625 99.3594,0.140625 M99.3594,-6.32813 C98.9115,-6.32813 98.5651,-6.16927 98.3203,-5.85156 C98.0755,-5.53385 97.9479,-5.09375 97.9375,-4.53125 L100.813,-4.53125 C100.771,-5.125 100.625,-5.57292 100.375,-5.875 C100.125,-6.17708 99.7865,-6.32813 99.3594,-6.32813 M116.531,-4.89063 C116.531,-3.89063 116.339,-3.02083 115.953,-2.28125 C115.568,-1.54167 115.018,-0.976563 114.305,-0.585938 C113.591,-0.195313 112.771,0 111.844,0 L107.953,0 L107.953,-9.625 L111.438,-9.625 C113.063,-9.625 114.318,-9.21615 115.203,-8.39844 C116.089,-7.58073 116.531,-6.41146 116.531,-4.89063 M114.516,-4.89063 C114.516,-5.92188 114.245,-6.71094 113.703,-7.25781 C113.161,-7.80469 112.391,-8.07813 111.391,-8.07813 L109.969,-8.07813 L109.969,-1.5625 L111.672,-1.5625 C112.547,-1.5625 113.24,-1.85938 113.75,-2.45313 C114.26,-3.04688 114.516,-3.85938 114.516,-4.89063 M118.109,-8.73438 L118.109,-10.1406 L120.031,-10.1406 L120.031,-8.73438 L118.109,-8.73438 M118.109,0 L118.109,-7.39063 L120.031,-7.39063 L120.031,0 L118.109,0 M128.219,-2.15625 C128.219,-1.44792 127.924,-0.888021 127.336,-0.476563 C126.747,-0.0651042 125.938,0.140625 124.906,0.140625 C123.885,0.140625 123.107,-0.0208333 122.57,-0.34375 C122.034,-0.666667 121.677,-1.16667 121.5,-1.84375 L123.188,-2.09375 C123.281,-1.75 123.445,-1.50521 123.68,-1.35938 C123.914,-1.21354 124.323,-1.14063 124.906,-1.14063 C125.438,-1.14063 125.828,-1.20833 126.078,-1.34375 C126.328,-1.47917 126.453,-1.69271 126.453,-1.98438 C126.453,-2.22396 126.354,-2.41146 126.156,-2.54688 C125.958,-2.68229 125.62,-2.80208 125.141,-2.90625 C124.057,-3.11458 123.326,-3.3125 122.945,-3.5 C122.565,-3.6875 122.276,-3.92708 122.078,-4.21875 C121.88,-4.51042 121.781,-4.86979 121.781,-5.29688 C121.781,-6.00521 122.055,-6.55729 122.602,-6.95313 C123.148,-7.34896 123.922,-7.54688 124.922,-7.54688 C125.797,-7.54688 126.503,-7.375 127.039,-7.03125 C127.576,-6.6875 127.911,-6.19271 128.047,-5.54688 L126.344,-5.35938 C126.281,-5.66146 126.143,-5.88802 125.93,-6.03906 C125.716,-6.1901 125.38,-6.26563 124.922,-6.26563 C124.464,-6.26563 124.12,-6.20573 123.891,-6.08594 C123.661,-5.96615 123.547,-5.77083 123.547,-5.5 C123.547,-5.29167 123.635,-5.125 123.813,-5 C123.99,-4.875 124.286,-4.77083 124.703,-4.6875 C125.276,-4.5625 125.786,-4.4375 126.234,-4.3125 C126.682,-4.1875 127.044,-4.03906 127.32,-3.86719 C127.596,-3.69531 127.815,-3.47396 127.977,-3.20313 C128.138,-2.93229 128.219,-2.58333 128.219,-2.15625 M131.656,0.125 C131.094,0.125 130.659,-0.0286458 130.352,-0.335938 C130.044,-0.643229 129.891,-1.10938 129.891,-1.73438 L129.891,-6.09375 L128.953,-6.09375 L128.953,-7.39063 L129.984,-7.39063 L130.594,-9.14063 L131.797,-9.14063 L131.797,-7.39063 L133.188,-7.39063 L133.188,-6.09375 L131.797,-6.09375 L131.797,-2.25 C131.797,-1.89583 131.865,-1.63281 132,-1.46094 C132.135,-1.28906 132.344,-1.20313 132.625,-1.20313 C132.781,-1.20313 132.995,-1.23438 133.266,-1.29688 L133.266,-0.109375 C132.797,0.046875 132.26,0.125 131.656,0.125 M134.422,0 L134.422,-5.65625 C134.422,-6.0625 134.414,-6.40104 134.398,-6.67188 C134.383,-6.94271 134.37,-7.18229 134.359,-7.39063 L136.188,-7.39063 C136.208,-7.31771 136.229,-7.07031 136.25,-6.64844 C136.271,-6.22656 136.281,-5.94792 136.281,-5.8125 L136.313,-5.8125 C136.5,-6.33333 136.667,-6.70052 136.813,-6.91406 C136.958,-7.1276 137.13,-7.28646 137.328,-7.39063 C137.526,-7.49479 137.776,-7.54688 138.078,-7.54688 C138.328,-7.54688 138.526,-7.51042 138.672,-7.4375 L138.672,-5.82813 C138.359,-5.90104 138.089,-5.9375 137.859,-5.9375 C137.38,-5.9375 137.008,-5.74219 136.742,-5.35156 C136.477,-4.96094 136.344,-4.38542 136.344,-3.625 L136.344,0 L134.422,0 M139.859,-8.73438 L139.859,-10.1406 L141.781,-10.1406 L141.781,-8.73438 L139.859,-8.73438 M139.859,0 L139.859,-7.39063 L141.781,-7.39063 L141.781,0 L139.859,0 M150.734,-3.71875 C150.734,-2.5 150.49,-1.55208 150,-0.875 C149.51,-0.197917 148.807,0.140625 147.891,0.140625 C147.37,0.140625 146.917,0.0260417 146.531,-0.203125 C146.146,-0.432292 145.854,-0.760417 145.656,-1.1875 L145.641,-1.1875 C145.641,-1.03125 145.63,-0.8125 145.609,-0.53125 C145.589,-0.25 145.568,-0.0729167 145.547,0 L143.672,0 C143.714,-0.427083 143.734,-0.989583 143.734,-1.6875 L143.734,-10.1406 L145.656,-10.1406 L145.656,-7.3125 L145.625,-6.10938 L145.656,-6.10938 C146.083,-7.05729 146.87,-7.53125 148.016,-7.53125 C148.891,-7.53125 149.563,-7.20052 150.031,-6.53906 C150.5,-5.8776 150.734,-4.9375 150.734,-3.71875 M148.719,-3.71875 C148.719,-4.5625 148.596,-5.1875 148.352,-5.59375 C148.107,-6 147.729,-6.20313 147.219,-6.20313 C146.698,-6.20313 146.302,-5.98438 146.031,-5.54688 C145.76,-5.10938 145.625,-4.48438 145.625,-3.67188 C145.625,-2.88021 145.758,-2.26563 146.023,-1.82813 C146.289,-1.39063 146.682,-1.17188 147.203,-1.17188 C148.214,-1.17188 148.719,-2.02083 148.719,-3.71875 M154.094,-7.39063 L154.094,-3.25 C154.094,-1.94792 154.531,-1.29688 155.406,-1.29688 C155.865,-1.29688 156.237,-1.4974 156.523,-1.89844 C156.81,-2.29948 156.953,-2.8125 156.953,-3.4375 L156.953,-7.39063 L158.875,-7.39063 L158.875,-1.65625 C158.875,-1.03125 158.891,-0.479167 158.922,0 L157.094,0 C157.042,-0.65625 157.016,-1.14583 157.016,-1.46875 L156.984,-1.46875 C156.724,-0.90625 156.396,-0.497396 156,-0.242188 C155.604,0.0130208 155.135,0.140625 154.594,0.140625 C153.813,0.140625 153.214,-0.101563 152.797,-0.585938 C152.38,-1.07031 152.172,-1.77604 152.172,-2.70313 L152.172,-7.39063 L154.094,-7.39063 M162.719,0.125 C162.156,0.125 161.721,-0.0286458 161.414,-0.335938 C161.107,-0.643229 160.953,-1.10938 160.953,-1.73438 L160.953,-6.09375 L160.016,-6.09375 L160.016,-7.39063 L161.047,-7.39063 L161.656,-9.14063 L162.859,-9.14063 L162.859,-7.39063 L164.25,-7.39063 L164.25,-6.09375 L162.859,-6.09375 L162.859,-2.25 C162.859,-1.89583 162.927,-1.63281 163.063,-1.46094 C163.198,-1.28906 163.406,-1.20313 163.688,-1.20313 C163.844,-1.20313 164.057,-1.23438 164.328,-1.29688 L164.328,-0.109375 C163.859,0.046875 163.323,0.125 162.719,0.125 M165.484,-8.73438 L165.484,-10.1406 L167.406,-10.1406 L167.406,-8.73438 L165.484,-8.73438 M165.484,0 L165.484,-7.39063 L167.406,-7.39063 L167.406,0 L165.484,0 M176.375,-3.70313 C176.375,-2.50521 176.044,-1.5651 175.383,-0.882813 C174.721,-0.200521 173.802,0.140625 172.625,0.140625 C171.469,0.140625 170.563,-0.203125 169.906,-0.890625 C169.25,-1.57813 168.922,-2.51563 168.922,-3.70313 C168.922,-4.89063 169.25,-5.82552 169.906,-6.50781 C170.563,-7.1901 171.479,-7.53125 172.656,-7.53125 C173.865,-7.53125 174.786,-7.20313 175.422,-6.54688 C176.057,-5.89063 176.375,-4.94271 176.375,-3.70313 M174.375,-3.70313 C174.375,-4.58854 174.232,-5.22917 173.945,-5.625 C173.659,-6.02083 173.24,-6.21875 172.688,-6.21875 C171.521,-6.21875 170.938,-5.38021 170.938,-3.70313 C170.938,-2.88021 171.081,-2.2526 171.367,-1.82031 C171.654,-1.38802 172.063,-1.17188 172.594,-1.17188 C173.781,-1.17188 174.375,-2.01563 174.375,-3.70313 M182.688,0 L182.688,-4.15625 C182.688,-5.44792 182.25,-6.09375 181.375,-6.09375 C180.906,-6.09375 180.531,-5.89583 180.25,-5.5 C179.969,-5.10417 179.828,-4.59375 179.828,-3.96875 L179.828,0 L177.906,0 L177.906,-5.75 C177.906,-6.14583 177.898,-6.46875 177.883,-6.71875 C177.867,-6.96875 177.854,-7.19271 177.844,-7.39063 L179.672,-7.39063 C179.693,-7.30729 179.714,-7.07813 179.734,-6.70313 C179.755,-6.32813 179.766,-6.06771 179.766,-5.92188 L179.797,-5.92188 C180.057,-6.49479 180.383,-6.90885 180.773,-7.16406 C181.164,-7.41927 181.63,-7.54688 182.172,-7.54688 C182.953,-7.54688 183.555,-7.30469 183.977,-6.82031 C184.398,-6.33594 184.609,-5.63021 184.609,-4.70313 L184.609,0 L182.688,0 M189.891,-2.79688 L189.891,-4.46875 L193.453,-4.46875 L193.453,-2.79688 L189.891,-2.79688 M203.313,-1.45313 C204.531,-1.45313 205.375,-2.0625 205.844,-3.28125 L207.609,-2.625 C207.224,-1.6875 206.667,-0.992188 205.938,-0.539063 C205.208,-0.0859375 204.333,0.140625 203.313,0.140625 C201.76,0.140625 200.563,-0.299479 199.719,-1.17969 C198.875,-2.0599 198.453,-3.28646 198.453,-4.85938 C198.453,-6.44271 198.859,-7.65885 199.672,-8.50781 C200.484,-9.35677 201.667,-9.78125 203.219,-9.78125 C204.354,-9.78125 205.276,-9.55469 205.984,-9.10156 C206.693,-8.64844 207.193,-7.97917 207.484,-7.09375 L205.703,-6.60938 C205.557,-7.08854 205.263,-7.47135 204.82,-7.75781 C204.378,-8.04427 203.859,-8.1875 203.266,-8.1875 C202.349,-8.1875 201.656,-7.90625 201.188,-7.34375 C200.719,-6.78125 200.484,-5.95313 200.484,-4.85938 C200.484,-3.75521 200.727,-2.91146 201.211,-2.32813 C201.695,-1.74479 202.396,-1.45313 203.313,-1.45313 M215.984,-3.70313 C215.984,-2.50521 215.654,-1.5651 214.992,-0.882813 C214.331,-0.200521 213.411,0.140625 212.234,0.140625 C211.078,0.140625 210.172,-0.203125 209.516,-0.890625 C208.859,-1.57813 208.531,-2.51563 208.531,-3.70313 C208.531,-4.89063 208.859,-5.82552 209.516,-6.50781 C210.172,-7.1901 211.089,-7.53125 212.266,-7.53125 C213.474,-7.53125 214.396,-7.20313 215.031,-6.54688 C215.667,-5.89063 215.984,-4.94271 215.984,-3.70313 M213.984,-3.70313 C213.984,-4.58854 213.841,-5.22917 213.555,-5.625 C213.268,-6.02083 212.849,-6.21875 212.297,-6.21875 C211.13,-6.21875 210.547,-5.38021 210.547,-3.70313 C210.547,-2.88021 210.69,-2.2526 210.977,-1.82031 C211.263,-1.38802 211.672,-1.17188 212.203,-1.17188 C213.391,-1.17188 213.984,-2.01563 213.984,-3.70313 M221.859,0 L221.859,-4.15625 C221.859,-5.44792 221.49,-6.09375 220.75,-6.09375 C220.354,-6.09375 220.036,-5.89583 219.797,-5.5 C219.557,-5.10417 219.438,-4.59375 219.438,-3.96875 L219.438,0 L217.516,0 L217.516,-5.75 C217.516,-6.14583 217.508,-6.46875 217.492,-6.71875 C217.477,-6.96875 217.464,-7.19271 217.453,-7.39063 L219.281,-7.39063 C219.302,-7.30729 219.323,-7.07813 219.344,-6.70313 C219.365,-6.32813 219.375,-6.06771 219.375,-5.92188 L219.406,-5.92188 C219.646,-6.49479 219.94,-6.90885 220.289,-7.16406 C220.638,-7.41927 221.063,-7.54688 221.563,-7.54688 C222.688,-7.54688 223.37,-7.00521 223.609,-5.92188 L223.656,-5.92188 C223.906,-6.49479 224.206,-6.90885 224.555,-7.16406 C224.904,-7.41927 225.349,-7.54688 225.891,-7.54688 C226.62,-7.54688 227.172,-7.30208 227.547,-6.8125 C227.922,-6.32292 228.109,-5.61979 228.109,-4.70313 L228.109,0 L226.203,0 L226.203,-4.15625 C226.203,-5.44792 225.828,-6.09375 225.078,-6.09375 C224.703,-6.09375 224.398,-5.91406 224.164,-5.55469 C223.93,-5.19531 223.797,-4.69271 223.766,-4.04688 L223.766,0 L221.859,0 M234.297,0 L234.297,-4.15625 C234.297,-5.44792 233.927,-6.09375 233.188,-6.09375 C232.792,-6.09375 232.474,-5.89583 232.234,-5.5 C231.995,-5.10417 231.875,-4.59375 231.875,-3.96875 L231.875,0 L229.953,0 L229.953,-5.75 C229.953,-6.14583 229.945,-6.46875 229.93,-6.71875 C229.914,-6.96875 229.901,-7.19271 229.891,-7.39063 L231.719,-7.39063 C231.74,-7.30729 231.76,-7.07813 231.781,-6.70313 C231.802,-6.32813 231.813,-6.06771 231.813,-5.92188 L231.844,-5.92188 C232.083,-6.49479 232.378,-6.90885 232.727,-7.16406 C233.076,-7.41927 233.5,-7.54688 234,-7.54688 C235.125,-7.54688 235.807,-7.00521 236.047,-5.92188 L236.094,-5.92188 C236.344,-6.49479 236.643,-6.90885 236.992,-7.16406 C237.341,-7.41927 237.786,-7.54688 238.328,-7.54688 C239.057,-7.54688 239.609,-7.30208 239.984,-6.8125 C240.359,-6.32292 240.547,-5.61979 240.547,-4.70313 L240.547,0 L238.641,0 L238.641,-4.15625 C238.641,-5.44792 238.266,-6.09375 237.516,-6.09375 C237.141,-6.09375 236.836,-5.91406 236.602,-5.55469 C236.367,-5.19531 236.234,-4.69271 236.203,-4.04688 L236.203,0 L234.297,0 M249.406,-3.70313 C249.406,-2.50521 249.076,-1.5651 248.414,-0.882813 C247.753,-0.200521 246.833,0.140625 245.656,0.140625 C244.5,0.140625 243.594,-0.203125 242.938,-0.890625 C242.281,-1.57813 241.953,-2.51563 241.953,-3.70313 C241.953,-4.89063 242.281,-5.82552 242.938,-6.50781 C243.594,-7.1901 244.51,-7.53125 245.688,-7.53125 C246.896,-7.53125 247.818,-7.20313 248.453,-6.54688 C249.089,-5.89063 249.406,-4.94271 249.406,-3.70313 M247.406,-3.70313 C247.406,-4.58854 247.263,-5.22917 246.977,-5.625 C246.69,-6.02083 246.271,-6.21875 245.719,-6.21875 C244.552,-6.21875 243.969,-5.38021 243.969,-3.70313 C243.969,-2.88021 244.112,-2.2526 244.398,-1.82031 C244.685,-1.38802 245.094,-1.17188 245.625,-1.17188 C246.813,-1.17188 247.406,-2.01563 247.406,-3.70313 M255.719,0 L255.719,-4.15625 C255.719,-5.44792 255.281,-6.09375 254.406,-6.09375 C253.938,-6.09375 253.563,-5.89583 253.281,-5.5 C253,-5.10417 252.859,-4.59375 252.859,-3.96875 L252.859,0 L250.938,0 L250.938,-5.75 C250.938,-6.14583 250.93,-6.46875 250.914,-6.71875 C250.898,-6.96875 250.885,-7.19271 250.875,-7.39063 L252.703,-7.39063 C252.724,-7.30729 252.745,-7.07813 252.766,-6.70313 C252.786,-6.32813 252.797,-6.06771 252.797,-5.92188 L252.828,-5.92188 C253.089,-6.49479 253.414,-6.90885 253.805,-7.16406 C254.195,-7.41927 254.661,-7.54688 255.203,-7.54688 C255.984,-7.54688 256.586,-7.30469 257.008,-6.82031 C257.43,-6.33594 257.641,-5.63021 257.641,-4.70313 L257.641,0 L255.719,0 M271.891,-4.89063 C271.891,-3.89063 271.698,-3.02083 271.313,-2.28125 C270.927,-1.54167 270.378,-0.976563 269.664,-0.585938 C268.951,-0.195313 268.13,0 267.203,0 L263.313,0 L263.313,-9.625 L266.797,-9.625 C268.422,-9.625 269.677,-9.21615 270.563,-8.39844 C271.448,-7.58073 271.891,-6.41146 271.891,-4.89063 M269.875,-4.89063 C269.875,-5.92188 269.604,-6.71094 269.063,-7.25781 C268.521,-7.80469 267.75,-8.07813 266.75,-8.07813 L265.328,-8.07813 L265.328,-1.5625 L267.031,-1.5625 C267.906,-1.5625 268.599,-1.85938 269.109,-2.45313 C269.62,-3.04688 269.875,-3.85938 269.875,-4.89063 M273.469,0 L273.469,-5.65625 C273.469,-6.0625 273.461,-6.40104 273.445,-6.67188 C273.43,-6.94271 273.417,-7.18229 273.406,-7.39063 L275.234,-7.39063 C275.255,-7.31771 275.276,-7.07031 275.297,-6.64844 C275.318,-6.22656 275.328,-5.94792 275.328,-5.8125 L275.359,-5.8125 C275.547,-6.33333 275.714,-6.70052 275.859,-6.91406 C276.005,-7.1276 276.177,-7.28646 276.375,-7.39063 C276.573,-7.49479 276.823,-7.54688 277.125,-7.54688 C277.375,-7.54688 277.573,-7.51042 277.719,-7.4375 L277.719,-5.82813 C277.406,-5.90104 277.135,-5.9375 276.906,-5.9375 C276.427,-5.9375 276.055,-5.74219 275.789,-5.35156 C275.523,-4.96094 275.391,-4.38542 275.391,-3.625 L275.391,0 L273.469,0 M285.922,-3.70313 C285.922,-2.50521 285.591,-1.5651 284.93,-0.882813 C284.268,-0.200521 283.349,0.140625 282.172,0.140625 C281.016,0.140625 280.109,-0.203125 279.453,-0.890625 C278.797,-1.57813 278.469,-2.51563 278.469,-3.70313 C278.469,-4.89063 278.797,-5.82552 279.453,-6.50781 C280.109,-7.1901 281.026,-7.53125 282.203,-7.53125 C283.411,-7.53125 284.333,-7.20313 284.969,-6.54688 C285.604,-5.89063 285.922,-4.94271 285.922,-3.70313 M283.922,-3.70313 C283.922,-4.58854 283.779,-5.22917 283.492,-5.625 C283.206,-6.02083 282.786,-6.21875 282.234,-6.21875 C281.068,-6.21875 280.484,-5.38021 280.484,-3.70313 C280.484,-2.88021 280.628,-2.2526 280.914,-1.82031 C281.201,-1.38802 281.609,-1.17188 282.141,-1.17188 C283.328,-1.17188 283.922,-2.01563 283.922,-3.70313 M292.234,0 L292.234,-4.15625 C292.234,-5.44792 291.797,-6.09375 290.922,-6.09375 C290.453,-6.09375 290.078,-5.89583 289.797,-5.5 C289.516,-5.10417 289.375,-4.59375 289.375,-3.96875 L289.375,0 L287.453,0 L287.453,-5.75 C287.453,-6.14583 287.445,-6.46875 287.43,-6.71875 C287.414,-6.96875 287.401,-7.19271 287.391,-7.39063 L289.219,-7.39063 C289.24,-7.30729 289.26,-7.07813 289.281,-6.70313 C289.302,-6.32813 289.313,-6.06771 289.313,-5.92188 L289.344,-5.92188 C289.604,-6.49479 289.93,-6.90885 290.32,-7.16406 C290.711,-7.41927 291.177,-7.54688 291.719,-7.54688 C292.5,-7.54688 293.102,-7.30469 293.523,-6.82031 C293.945,-6.33594 294.156,-5.63021 294.156,-4.70313 L294.156,0 L292.234,0 M299.016,0.140625 C297.911,0.140625 297.06,-0.190104 296.461,-0.851563 C295.862,-1.51302 295.563,-2.47396 295.563,-3.73438 C295.563,-4.95313 295.865,-5.89063 296.469,-6.54688 C297.073,-7.20313 297.932,-7.53125 299.047,-7.53125 C300.109,-7.53125 300.922,-7.17969 301.484,-6.47656 C302.047,-5.77344 302.328,-4.74479 302.328,-3.39063 L302.328,-3.32813 L297.578,-3.32813 C297.578,-2.60938 297.711,-2.06771 297.977,-1.70313 C298.242,-1.33854 298.625,-1.15625 299.125,-1.15625 C299.802,-1.15625 300.229,-1.44792 300.406,-2.03125 L302.219,-1.875 C301.688,-0.53125 300.62,0.140625 299.016,0.140625 M299.016,-6.32813 C298.568,-6.32813 298.221,-6.16927 297.977,-5.85156 C297.732,-5.53385 297.604,-5.09375 297.594,-4.53125 L300.469,-4.53125 C300.427,-5.125 300.281,-5.57292 300.031,-5.875 C299.781,-6.17708 299.443,-6.32813 299.016,-6.32813 M310.016,-2.15625 C310.016,-1.44792 309.721,-0.888021 309.133,-0.476563 C308.544,-0.0651042 307.734,0.140625 306.703,0.140625 C305.682,0.140625 304.904,-0.0208333 304.367,-0.34375 C303.831,-0.666667 303.474,-1.16667 303.297,-1.84375 L304.984,-2.09375 C305.078,-1.75 305.242,-1.50521 305.477,-1.35938 C305.711,-1.21354 306.12,-1.14063 306.703,-1.14063 C307.234,-1.14063 307.625,-1.20833 307.875,-1.34375 C308.125,-1.47917 308.25,-1.69271 308.25,-1.98438 C308.25,-2.22396 308.151,-2.41146 307.953,-2.54688 C307.755,-2.68229 307.417,-2.80208 306.938,-2.90625 C305.854,-3.11458 305.122,-3.3125 304.742,-3.5 C304.362,-3.6875 304.073,-3.92708 303.875,-4.21875 C303.677,-4.51042 303.578,-4.86979 303.578,-5.29688 C303.578,-6.00521 303.852,-6.55729 304.398,-6.95313 C304.945,-7.34896 305.719,-7.54688 306.719,-7.54688 C307.594,-7.54688 308.299,-7.375 308.836,-7.03125 C309.372,-6.6875 309.708,-6.19271 309.844,-5.54688 L308.141,-5.35938 C308.078,-5.66146 307.94,-5.88802 307.727,-6.03906 C307.513,-6.1901 307.177,-6.26563 306.719,-6.26563 C306.26,-6.26563 305.917,-6.20573 305.688,-6.08594 C305.458,-5.96615 305.344,-5.77083 305.344,-5.5 C305.344,-5.29167 305.432,-5.125 305.609,-5 C305.786,-4.875 306.083,-4.77083 306.5,-4.6875 C307.073,-4.5625 307.583,-4.4375 308.031,-4.3125 C308.479,-4.1875 308.841,-4.03906 309.117,-3.86719 C309.393,-3.69531 309.612,-3.47396 309.773,-3.20313 C309.935,-2.93229 310.016,-2.58333 310.016,-2.15625 M324.75,-4.85938 C324.75,-3.85938 324.552,-2.97917 324.156,-2.21875 C323.76,-1.45833 323.193,-0.875 322.453,-0.46875 C321.714,-0.0625 320.854,0.140625 319.875,0.140625 C318.365,0.140625 317.18,-0.304688 316.32,-1.19531 C315.461,-2.08594 315.031,-3.30729 315.031,-4.85938 C315.031,-6.40104 315.458,-7.60677 316.313,-8.47656 C317.167,-9.34635 318.359,-9.78125 319.891,-9.78125 C321.411,-9.78125 322.602,-9.34375 323.461,-8.46875 C324.32,-7.59375 324.75,-6.39063 324.75,-4.85938 M322.703,-4.85938 C322.703,-5.90104 322.456,-6.71615 321.961,-7.30469 C321.466,-7.89323 320.776,-8.1875 319.891,-8.1875 C318.984,-8.1875 318.286,-7.89583 317.797,-7.3125 C317.307,-6.72917 317.063,-5.91146 317.063,-4.85938 C317.063,-3.80729 317.313,-2.97656 317.813,-2.36719 C318.313,-1.75781 319,-1.45313 319.875,-1.45313 C320.781,-1.45313 321.479,-1.75 321.969,-2.34375 C322.458,-2.9375 322.703,-3.77604 322.703,-4.85938 M331.094,0 L331.094,-4.15625 C331.094,-5.44792 330.656,-6.09375 329.781,-6.09375 C329.313,-6.09375 328.938,-5.89583 328.656,-5.5 C328.375,-5.10417 328.234,-4.59375 328.234,-3.96875 L328.234,0 L326.313,0 L326.313,-5.75 C326.313,-6.14583 326.305,-6.46875 326.289,-6.71875 C326.273,-6.96875 326.26,-7.19271 326.25,-7.39063 L328.078,-7.39063 C328.099,-7.30729 328.12,-7.07813 328.141,-6.70313 C328.161,-6.32813 328.172,-6.06771 328.172,-5.92188 L328.203,-5.92188 C328.464,-6.49479 328.789,-6.90885 329.18,-7.16406 C329.57,-7.41927 330.036,-7.54688 330.578,-7.54688 C331.359,-7.54688 331.961,-7.30469 332.383,-6.82031 C332.805,-6.33594 333.016,-5.63021 333.016,-4.70313 L333.016,0 L331.094,0 M334.859,0 L334.859,-10.1406 L336.781,-10.1406 L336.781,0 L334.859,0 M339.688,2.90625 C339.229,2.90625 338.823,2.875 338.469,2.8125 L338.469,1.45313 C338.719,1.48438 338.943,1.5 339.141,1.5 C339.411,1.5 339.638,1.45833 339.82,1.375 C340.003,1.29167 340.164,1.14844 340.305,0.945313 C340.445,0.742188 340.604,0.401042 340.781,-0.078125 L337.859,-7.39063 L339.891,-7.39063 L341.047,-3.9375 C341.234,-3.4375 341.469,-2.67188 341.75,-1.64063 L341.906,-2.29688 L342.359,-3.90625 L343.453,-7.39063 L345.469,-7.39063 L342.531,0.390625 C342.146,1.33854 341.742,1.99479 341.32,2.35938 C340.898,2.72396 340.354,2.90625 339.688,2.90625 "/>
</g>

<g fill="#212121" fill-opacity="1" stroke="#212121" stroke-opacity="1" stroke-dasharray="10,6" stroke-dashoffset="0" stroke-width="0.659722" stroke-linecap="butt" stroke-linejoin="round" transform="matrix(0.75749,0,0,0.75603,-21.7876,-3.96543)"
font-family="Sans Serif" font-size="9" font-weight="400" font-style="normal" 
>
<polyline fill="none" vector-effect="none" points="108.5,205.353 108.5,181.386 " />
<polyline fill="none" vector-effect="none" points="189.5,233.06 189.5,213.901 " />
<polyline fill="none" vector-effect="none" points="270.5,240.043 270.5,221.229 " />
<polyline fill="none" vector-effect="none" points="351.5,239.929 351.5,226.724 " />
<polyline fill="none" vector-effect="none" points="432.5,245.653 432.5,244.127 " />
<polyline fill="none" vector-effect="none" points="108.5,248.554 108.5,227.831 " />
<polyline fill="none" vector-effect="none" points="189.5,254.355 189.5,253.744 " />
<polyline fill="none" vector-effect="none" points="270.5,254.049 270.5,253.401 " />
<polyline fill="none" vector-effect="none" points="351.5,254.507 351.5,253.859 " />
<polyline fill="none" vector-effect="none" points="432.5,254.202 432.5,253.592 " />
</g>

<g fill="#212121" fill-opacity="1" stroke="#212121" stroke-opacity="1" stroke-width="0.659722" stroke-linecap="butt" stroke-linejoin="round" transform="matrix(0.75749,0,0,0.75603,-21.7876,-3.96543)"
font-family="Sans Serif" font-size="9" font-weight="400" font-style="normal" 
>
<polyline fill="none" vector-effect="none" points="98.375,181.386 118.625,181.386 " />
<polyline fill="none" vector-effect="none" points="179.375,213.901 199.625,213.901 " />
<polyline fill="none" vector-effect="none" points="260.375,221.229 280.625,221.229 " />
<polyline fill="none" vector-effect="none" points="341.375,226.724 361.625,226.724 " />
<polyline fill="none" vector-effect="none" points="422.375,244.127 442.625,244.127 " />
<polyline fill="none" vector-effect="none" points="98.375,248.554 118.625,248.554 " />
<polyline fill="none" vector-effect="none" points="179.375,254.355 199.625,254.355 " />
<polyline fill="none" vector-effect="none" points="260.375,254.049 280.625,254.049 " />
<polyline fill="none" vector-effect="none" points="341.375,254.507 361.625,254.507 " />
<polyline fill="none" vector-effect="none" points="422.375,254.202 442.625,254.202 " />
</g>

<g fill="none" stroke="#1171be" stroke-opacity="1" stroke-width="0.659722" stroke-linecap="butt" stroke-linejoin="round" transform="matrix(0.75749,0,0,0.75603,-21.7876,-3.96543)"
font-family="Sans Serif" font-size="9" font-weight="400" font-style="normal" 
>
<polyline fill="none" vector-effect="none" points="88.25,227.831 88.25,205.353 128.75,205.353 128.75,227.831 88.25,227.831 " />
<polyline fill="none" vector-effect="none" points="169.25,253.744 169.25,233.06 209.75,233.06 209.75,253.744 169.25,253.744 " />
<polyline fill="none" vector-effect="none" points="250.25,253.401 250.25,240.043 290.75,240.043 290.75,253.401 250.25,253.401 " />
<polyline fill="none" vector-effect="none" points="331.25,253.859 331.25,239.929 371.75,239.929 371.75,253.859 331.25,253.859 " />
<polyline fill="none" vector-effect="none" points="412.25,253.592 412.25,245.653 452.75,245.653 452.75,253.592 412.25,253.592 " />
</g>

<g fill="#dd5400" fill-opacity="1" stroke="#dd5400" stroke-opacity="1" stroke-width="0.659722" stroke-linecap="butt" stroke-linejoin="round" transform="matrix(0.75749,0,0,0.75603,-21.7876,-3.96543)"
font-family="Sans Serif" font-size="9" font-weight="400" font-style="normal" 
>
<polyline fill="none" vector-effect="none" points="88.25,219.244 128.75,219.244 " />
<polyline fill="none" vector-effect="none" points="169.25,252.523 209.75,252.523 " />
<polyline fill="none" vector-effect="none" points="250.25,247.638 290.75,247.638 " />
<polyline fill="none" vector-effect="none" points="331.25,252.981 371.75,252.981 " />
<polyline fill="none" vector-effect="none" points="412.25,253.134 452.75,253.134 " />
</g>

<g fill="#dd5400" fill-opacity="1" stroke="#dd5400" stroke-opacity="1" stroke-width="0.659722" stroke-linecap="butt" stroke-linejoin="miter" stroke-miterlimit="2" transform="matrix(0.75749,0,0,0.75603,-21.7876,-3.96543)"
font-family="Sans Serif" font-size="9" font-weight="400" font-style="normal" 
>
<polyline fill="none" vector-effect="none" points="108.5,30.2273 108.5,38.2273 " />
<polyline fill="none" vector-effect="none" points="104.5,34.2273 112.5,34.2273 " />
<polyline fill="none" vector-effect="none" points="189.5,184.713 189.5,192.713 " />
<polyline fill="none" vector-effect="none" points="185.5,188.713 193.5,188.713 " />
<polyline fill="none" vector-effect="none" points="270.5,215.855 270.5,223.855 " />
<polyline fill="none" vector-effect="none" points="266.5,219.855 274.5,219.855 " />
<polyline fill="none" vector-effect="none" points="270.5,211.886 270.5,219.886 " />
<polyline fill="none" vector-effect="none" points="266.5,215.886 274.5,215.886 " />
<polyline fill="none" vector-effect="none" points="270.5,209.596 270.5,217.596 " />
<polyline fill="none" vector-effect="none" points="266.5,213.596 274.5,213.596 " />
<polyline fill="none" vector-effect="none" points="270.5,183.34 270.5,191.34 " />
<polyline fill="none" vector-effect="none" points="266.5,187.34 274.5,187.34 " />
<polyline fill="none" vector-effect="none" points="351.5,214.634 351.5,222.634 " />
<polyline fill="none" vector-effect="none" points="347.5,218.634 355.5,218.634 " />
<polyline fill="none" vector-effect="none" points="351.5,211.886 351.5,219.886 " />
<polyline fill="none" vector-effect="none" points="347.5,215.886 355.5,215.886 " />
<polyline fill="none" vector-effect="none" points="351.5,210.665 351.5,218.665 " />
<polyline fill="none" vector-effect="none" points="347.5,214.665 355.5,214.665 " />
<polyline fill="none" vector-effect="none" points="351.5,180.134 351.5,188.134 " />
<polyline fill="none" vector-effect="none" points="347.5,184.134 355.5,184.134 " />
<polyline fill="none" vector-effect="none" points="432.5,228.067 432.5,236.067 " />
<polyline fill="none" vector-effect="none" points="428.5,232.067 436.5,232.067 " />
<polyline fill="none" vector-effect="none" points="432.5,221.808 432.5,229.808 " />
<polyline fill="none" vector-effect="none" points="428.5,225.808 436.5,225.808 " />
<polyline fill="none" vector-effect="none" points="432.5,215.092 432.5,223.092 " />
<polyline fill="none" vector-effect="none" points="428.5,219.092 436.5,219.092 " />
<polyline fill="none" vector-effect="none" points="432.5,210.054 432.5,218.054 " />
<polyline fill="none" vector-effect="none" points="428.5,214.054 436.5,214.054 " />
<polyline fill="none" vector-effect="none" points="432.5,173.722 432.5,181.722 " />
<polyline fill="none" vector-effect="none" points="428.5,177.722 436.5,177.722 " />
</g>
</g>
</svg>
